M48
; DRILL file {KiCad (6.0.0-rc1-489-g57af990066)} date Friday, 17 December 2021 at 02:29:29
; FORMAT={3:3/ absolute / metric / suppress leading zeros}
; #@! TF.CreationDate,2021-12-17T02:29:29+00:00
; #@! TF.GenerationSoftware,Kicad,Pcbnew,(6.0.0-rc1-489-g57af990066)
; #@! TF.FileFunction,MixedPlating,1,2
FMAT,2
METRIC,TZ
; #@! TA.AperFunction,Plated,PTH,ViaDrill
T1C0.400
; #@! TA.AperFunction,Plated,PTH,ComponentDrill
T2C0.400
; #@! TA.AperFunction,Plated,PTH,ComponentDrill
T3C0.500
; #@! TA.AperFunction,Plated,PTH,ViaDrill
T4C0.660
; #@! TA.AperFunction,Plated,PTH,ComponentDrill
T5C0.700
; #@! TA.AperFunction,Plated,PTH,ComponentDrill
T6C0.800
; #@! TA.AperFunction,Plated,PTH,ComponentDrill
T7C1.000
; #@! TA.AperFunction,Plated,PTH,ComponentDrill
T8C1.020
; #@! TA.AperFunction,Plated,PTH,ComponentDrill
T9C1.100
; #@! TA.AperFunction,Plated,PTH,ComponentDrill
T10C1.200
; #@! TA.AperFunction,Plated,PTH,ComponentDrill
T11C1.300
; #@! TA.AperFunction,Plated,PTH,ComponentDrill
T12C1.500
; #@! TA.AperFunction,Plated,PTH,ViaDrill
T13C2.000
; #@! TA.AperFunction,Plated,PTH,ComponentDrill
T14C2.000
; #@! TA.AperFunction,Plated,PTH,ComponentDrill
T15C2.200
; #@! TA.AperFunction,Plated,PTH,ComponentDrill
T16C3.900
; #@! TA.AperFunction,NonPlated,NPTH,ComponentDrill
T17C4.300
%
G90
G05
T1
X18421Y-140416
X18421Y-142956
X18421Y-145496
X18421Y-148036
X18421Y-150576
X18421Y-153116
X18421Y-155656
X18421Y-158196
X18421Y-160736
X18421Y-163276
X18421Y-165816
X18421Y-168356
X20381Y-138016
X20681Y-77416
X20681Y-79816
X20681Y-82216
X20681Y-84616
X20681Y-87016
X20681Y-89416
X20681Y-91816
X20681Y-96616
X20681Y-99016
X20681Y-101416
X20681Y-103816
X20681Y-106216
X20681Y-111016
X20681Y-113416
X20681Y-115816
X20681Y-118216
X20961Y-127682
X20961Y-130216
X20961Y-132756
X20961Y-135296
X20961Y-140416
X20961Y-148036
X20961Y-153116
X20961Y-158196
X20961Y-160736
X20961Y-168356
X21481Y-137716
X23501Y-145496
X23501Y-153116
X23501Y-155656
X23501Y-158196
X23501Y-160736
X23501Y-168356
X26001Y-127676
X26001Y-130256
X26001Y-132796
X26001Y-135336
X26001Y-137876
X26001Y-140416
X26001Y-150576
X26001Y-153116
X26001Y-155656
X26001Y-158196
X26001Y-160736
X26041Y-163276
X26041Y-165816
X26041Y-168356
X28541Y-127676
X28541Y-130256
X28541Y-132796
X28541Y-135336
X28541Y-137876
X28541Y-140416
X28541Y-160736
X28541Y-163276
X28541Y-165816
X28541Y-168356
X28581Y-150576
X28581Y-153116
X28581Y-155656
X28581Y-158196
X31081Y-127676
X31081Y-130256
X31081Y-132796
X31081Y-135316
X31081Y-150576
X31081Y-153116
X31081Y-155656
X31081Y-158196
X31081Y-160736
X31081Y-163276
X31081Y-165816
X31081Y-168356
X31581Y-113016
X32632Y-107341
X33661Y-150576
X33661Y-153116
X33661Y-155656
X33661Y-158196
X33661Y-160736
X33661Y-163276
X33661Y-165816
X33661Y-168356
X33881Y-140216
X34581Y-139616
X36201Y-140416
X36201Y-145496
X36201Y-150576
X36201Y-153116
X36201Y-155656
X36201Y-158196
X36201Y-160736
X36201Y-163276
X36201Y-165816
X36201Y-168356
X37510Y-151151
X38741Y-140416
X38741Y-142956
X38741Y-145496
X38741Y-150576
X38741Y-155656
X38741Y-158196
X38741Y-160736
X38741Y-163276
X38741Y-165816
X38741Y-168356
X38754Y-137867
X39081Y-76216
X39081Y-78616
X39081Y-81016
X39081Y-83416
X39081Y-85816
X39081Y-88216
X39081Y-90616
X39081Y-93016
X39081Y-95416
X39081Y-97816
X39081Y-100216
X41269Y-137876
X41281Y-145496
X41281Y-148036
X41281Y-150576
X41281Y-153116
X41281Y-155656
X41281Y-158196
X41281Y-160736
X41281Y-163276
X41281Y-165816
X41281Y-168356
X43821Y-140416
X43821Y-155656
X43821Y-158196
X43821Y-160736
X43821Y-163276
X43821Y-165816
X43821Y-168356
X46349Y-132762
X46349Y-137842
X46361Y-140416
X46361Y-142956
X46361Y-145496
X46361Y-148036
X46361Y-155656
X46361Y-158196
X46361Y-160736
X46361Y-163276
X46361Y-165816
X46361Y-168356
X47111Y-135200
X47431Y-113866
X48076Y-134286
X48889Y-135302
X48901Y-155656
X48901Y-158196
X48901Y-160736
X48901Y-163276
X48901Y-165816
X48901Y-168356
X48921Y-140416
X51429Y-135302
X51441Y-140416
X51441Y-145496
X51441Y-148036
X51441Y-153116
X51441Y-155656
X51441Y-158196
X51441Y-160736
X51441Y-163276
X51441Y-165816
X51441Y-168356
X53969Y-102561
X53969Y-105076
X53969Y-107616
X53969Y-110156
X53969Y-112696
X53969Y-135302
X53981Y-153116
X53981Y-155656
X53981Y-158196
X53981Y-160736
X53981Y-163276
X53981Y-165816
X53981Y-168356
X56509Y-105076
X56509Y-107616
X56509Y-110156
X56509Y-112696
X56521Y-140416
X56521Y-142956
X56521Y-145496
X56521Y-148036
X56521Y-155656
X56521Y-158196
X56521Y-160736
X56521Y-163276
X56521Y-165816
X56521Y-168356
X57423Y-137181
X57681Y-74416
X57681Y-78116
X57681Y-128016
X58236Y-137943
X58581Y-123116
X59049Y-102561
X59049Y-105076
X59049Y-107616
X59049Y-110156
X59049Y-112696
X59061Y-145496
X59061Y-148036
X59061Y-153116
X59061Y-155656
X59061Y-158196
X59061Y-160736
X59061Y-163276
X59061Y-165816
X59061Y-168356
X59074Y-100021
X60081Y-74416
X60081Y-78116
X60381Y-127016
X61589Y-102561
X61589Y-105076
X61589Y-107616
X61589Y-110156
X61601Y-140416
X61601Y-148036
X61601Y-153116
X61601Y-158196
X61601Y-160736
X61601Y-163276
X61601Y-165816
X61601Y-168356
X61614Y-97481
X61614Y-100021
X62481Y-74416
X62481Y-78116
X64129Y-105076
X64129Y-107616
X64141Y-142956
X64141Y-145496
X64141Y-155656
X64141Y-158196
X64141Y-160736
X64141Y-163276
X64141Y-165816
X64141Y-168356
X64154Y-97481
X64154Y-100021
X64881Y-74416
X64881Y-78116
X66405Y-116441
X66681Y-140416
X66681Y-142956
X66681Y-145496
X66681Y-155656
X66681Y-158196
X66681Y-160736
X66681Y-163276
X66681Y-165816
X66681Y-168356
X66694Y-92401
X66694Y-94941
X66694Y-97481
X67281Y-74416
X67281Y-78116
X67329Y-102942
X67430Y-107666
X68081Y-124916
X68218Y-100656
X69221Y-140416
X69221Y-155656
X69221Y-158196
X69221Y-160736
X69221Y-163276
X69221Y-165816
X69221Y-168356
X69234Y-92401
X69234Y-94941
X69234Y-97481
X69241Y-148036
X70758Y-100656
X71761Y-140416
X71761Y-148036
X71761Y-153116
X71761Y-155656
X71761Y-158196
X71761Y-160736
X71761Y-163276
X71761Y-165816
X71761Y-168356
X71774Y-97481
X74301Y-153116
X74301Y-155656
X74301Y-158196
X74301Y-160736
X74301Y-163276
X74301Y-165816
X74301Y-168356
X74481Y-74416
X74481Y-78116
X76841Y-140416
X76841Y-142956
X76841Y-145496
X76841Y-155656
X76841Y-165816
X76841Y-168356
X76881Y-74416
X76881Y-78116
X76881Y-148036
X79281Y-74416
X79281Y-78116
X79381Y-142956
X79381Y-145496
X79381Y-150576
X79381Y-153116
X79381Y-155656
X79381Y-168356
X79394Y-92401
X79394Y-94941
X79394Y-107641
X79421Y-148036
X81681Y-74416
X81681Y-78116
X81909Y-95982
X81934Y-92401
X81934Y-94941
X81934Y-107641
X83585Y-105101
X84081Y-74416
X84081Y-78116
X84474Y-92401
X84474Y-94941
X84474Y-107641
X85481Y-156816
X85649Y-143205
X86081Y-133916
X86481Y-74416
X86481Y-78116
X87014Y-92401
X87014Y-94941
X87014Y-97481
X87014Y-100021
X87014Y-102561
X87014Y-105101
X87014Y-107641
X87231Y-60691
X88881Y-74416
X88881Y-78116
X89510Y-139852
X89510Y-148133
X89554Y-94941
X89554Y-97481
X89554Y-110156
X89865Y-137566
X90475Y-136754
X90681Y-133891
X91567Y-144018
X91866Y-123821
X92094Y-94941
X92094Y-97481
X92094Y-102561
X92094Y-105101
X92094Y-107641
X92094Y-110156
X92094Y-112696
X92188Y-60691
X92862Y-148285
X93066Y-145542
X93105Y-160791
X94005Y-142341
X94082Y-148742
X94130Y-118316
X94855Y-163041
X94855Y-165291
X95405Y-122341
X95680Y-168423
X95955Y-95391
X96063Y-152908
X96105Y-81866
X96672Y-138633
X96905Y-77941
X96955Y-128241
X97104Y-144374
X97145Y-60691
X98105Y-129091
X98705Y-161091
X99060Y-134925
X99205Y-129091
X99638Y-119096
X99720Y-158445
X99873Y-134010
X100555Y-163041
X100627Y-168423
X100756Y-128037
X101181Y-143716
X101281Y-100141
X101307Y-106116
X101805Y-119091
X101990Y-155859
X102056Y-142341
X102057Y-145288
X102101Y-60691
X102870Y-138455
X103022Y-141656
X103149Y-145644
X103255Y-94041
X103255Y-100141
X103281Y-106116
X103320Y-140641
X103320Y-158409
X104255Y-122366
X104280Y-128241
X104355Y-84141
X104597Y-143662
X104705Y-138091
X105081Y-100141
X105107Y-106116
X105520Y-154259
X105574Y-168423
X107058Y-60691
X107696Y-132893
X108155Y-128241
X108705Y-138641
X109703Y-145009
X110521Y-168423
X110905Y-163041
X111455Y-135331
X112015Y-60691
X112155Y-100041
X112870Y-158409
X113081Y-135331
X113792Y-131572
X114655Y-147141
X114905Y-138991
X115468Y-168423
X115555Y-159841
X115570Y-131521
X115755Y-146041
X116805Y-116241
X116905Y-158391
X116971Y-60691
X116992Y-154737
X118313Y-137414
X118822Y-153478
X118905Y-144441
X118922Y-139091
X120415Y-168423
X121928Y-60691
X122105Y-140541
X122105Y-142191
X122105Y-143691
X122105Y-144991
X122295Y-158409
X125362Y-168423
X125655Y-142191
X126605Y-145191
X126755Y-160841
X126885Y-60691
X127105Y-100691
X127437Y-122601
X129005Y-92691
X129005Y-97291
X129184Y-122580
X129405Y-77941
X129667Y-134620
X130309Y-168423
X130805Y-90941
X130905Y-158891
X131655Y-145391
X131841Y-60691
X131905Y-100591
X131998Y-83691
X132302Y-167458
X132791Y-133502
X133555Y-158891
X133655Y-161341
X133755Y-145891
X133826Y-83536
X134455Y-147891
X134747Y-136906
X134747Y-138938
X135096Y-165426
X135097Y-121281
X135280Y-168423
X135405Y-158341
X136798Y-60691
X137230Y-162916
X137520Y-134259
X137855Y-100941
X137881Y-106916
X138278Y-121260
X138449Y-83028
X139446Y-161417
X139755Y-100941
X139781Y-106916
X139905Y-141291
X140227Y-168423
X140255Y-83691
X140938Y-71700
X140962Y-70100
X141655Y-100941
X141681Y-106916
X141755Y-60691
X142805Y-81541
X142920Y-148859
X143505Y-133191
X145174Y-168423
X145358Y-81758
X145505Y-133241
X145542Y-161417
X145542Y-165303
X146679Y-80742
X146711Y-60691
X147542Y-71700
X147542Y-82571
X147542Y-84400
X147566Y-70100
X150121Y-168423
X151003Y-161417
X151281Y-71716
X151305Y-70116
X151655Y-100191
X151668Y-60691
X152470Y-155469
X153020Y-141659
X153020Y-148859
X153406Y-109842
X154205Y-74641
X155068Y-168423
X155467Y-80031
X156625Y-60691
X156755Y-96241
X156781Y-100916
X156781Y-102216
X157005Y-81541
X157481Y-71716
X159381Y-109816
X159783Y-72501
X160015Y-168423
X160020Y-134259
X160081Y-68316
X160082Y-73989
X160205Y-130891
X161581Y-60691
X162681Y-140841
X162681Y-144691
X162681Y-146891
X162681Y-148866
X162681Y-153259
X162681Y-160609
X163005Y-87491
X163848Y-149877
X164856Y-151891
X164963Y-168423
X167355Y-74016
X167381Y-70316
X167381Y-80716
X169463Y-141067
X170860Y-164054
X172930Y-70291
X172930Y-80716
X176403Y-94316
X176403Y-96716
X176403Y-99116
X176403Y-101516
X176403Y-103916
X176403Y-106316
X176403Y-108716
X176403Y-111116
X178105Y-62191
X178530Y-140839
X179959Y-94312
X179959Y-96712
X179959Y-99112
X179959Y-101512
X179959Y-103912
X179959Y-106312
X179959Y-108712
X179983Y-111187
X182391Y-155991
X182391Y-164054
X190305Y-70541
X190355Y-89841
X190355Y-112841
X190355Y-132541
T2
X45155Y-96191
X45155Y-121016
X45638Y-95024
X45638Y-97358
X45638Y-119849
X45638Y-122183
X46805Y-94541
X46805Y-97841
X46805Y-119366
X46805Y-122666
X47972Y-95024
X47972Y-97358
X47972Y-119849
X47972Y-122183
X48455Y-96191
X48455Y-121016
X91755Y-76541
X92238Y-75374
X92238Y-77708
X93405Y-74891
X93405Y-78191
X94572Y-75374
X94572Y-77708
X95055Y-76541
X112755Y-121016
X113238Y-119849
X113238Y-122183
X114405Y-119366
X114405Y-122666
X115572Y-119849
X115572Y-122183
X116055Y-121016
X137455Y-63541
X137938Y-62374
X137938Y-64708
X139105Y-61891
X139105Y-65191
X140272Y-62374
X140272Y-64708
X140755Y-63541
X179205Y-63541
X179205Y-78016
X179688Y-62374
X179688Y-64708
X179688Y-76849
X179688Y-79183
X180855Y-61891
X180855Y-65191
X180855Y-76366
X180855Y-79666
X182022Y-62374
X182022Y-64708
X182022Y-76849
X182022Y-79183
X182505Y-63541
X182505Y-78016
T3
X44780Y-76651
X44780Y-77981
X44780Y-79321
X44780Y-80651
X44780Y-86651
X44780Y-87981
X44780Y-89321
X44780Y-90651
X45170Y-75451
X45170Y-81851
X45170Y-85451
X45170Y-91851
X46200Y-74701
X46200Y-82601
X46200Y-84701
X46200Y-92601
X47460Y-74701
X47460Y-82601
X47460Y-84701
X47460Y-92601
X48490Y-75451
X48490Y-81851
X48490Y-85451
X48490Y-91851
X48880Y-76651
X48880Y-77981
X48880Y-79321
X48880Y-80651
X48880Y-86651
X48880Y-87981
X48880Y-89321
X48880Y-90651
X94250Y-90248
X94250Y-91508
X95000Y-89218
X95000Y-92538
X96200Y-88828
X96200Y-92928
X97530Y-88828
X97530Y-92928
X98870Y-88828
X98870Y-92928
X100200Y-88828
X100200Y-92928
X101400Y-89218
X101400Y-92538
X102150Y-90248
X102150Y-91508
X104250Y-90248
X104250Y-91508
X105000Y-89218
X105000Y-92538
X106200Y-88828
X106200Y-92928
X107530Y-88828
X107530Y-92928
X108870Y-88828
X108870Y-92928
X110200Y-88828
X110200Y-92928
X111400Y-89218
X111400Y-92538
X112150Y-90248
X112150Y-91508
X130855Y-114423
X130855Y-115683
X131605Y-113393
X131605Y-116713
X132805Y-113003
X132805Y-117103
X134135Y-113003
X134135Y-117103
X135475Y-113003
X135475Y-117103
X136805Y-113003
X136805Y-117103
X138005Y-113393
X138005Y-116713
X138755Y-114423
X138755Y-115683
X140855Y-114423
X140855Y-115683
X141605Y-113393
X141605Y-116713
X142805Y-113003
X142805Y-117103
X144135Y-113003
X144135Y-117103
X145475Y-113003
X145475Y-117103
X146805Y-113003
X146805Y-117103
X147865Y-92136
X147865Y-93396
X148005Y-113393
X148005Y-116713
X148615Y-91106
X148615Y-94426
X148755Y-114423
X148755Y-115683
X149815Y-90716
X149815Y-94816
X151145Y-90716
X151145Y-94816
X152485Y-90716
X152485Y-94816
X153815Y-90716
X153815Y-94816
X155015Y-91106
X155015Y-94426
X155765Y-92136
X155765Y-93396
X157865Y-92136
X157865Y-93396
X158615Y-91106
X158615Y-94426
X159815Y-90716
X159815Y-94816
X161145Y-90716
X161145Y-94816
X162485Y-90716
X162485Y-94816
X163815Y-90716
X163815Y-94816
X165015Y-91106
X165015Y-94426
X165765Y-92136
X165765Y-93396
T4
X39669Y-131517
X41855Y-71141
X50905Y-71141
X56509Y-114829
X65196Y-114829
X70377Y-114829
X70428Y-120620
X75170Y-100754
X75170Y-103503
X79064Y-114880
X83738Y-114880
X88513Y-124176
X91967Y-114829
X93136Y-120468
T5
X127520Y-148336
X127520Y-151511
X127520Y-154686
X131020Y-148336
X131020Y-151511
X131020Y-154686
T6
X23181Y-109316
X23181Y-111816
X25430Y-81741
X25430Y-83651
X25430Y-85561
X43606Y-131136
X47106Y-131136
X56306Y-151405
X56306Y-153905
X56805Y-99589
X56805Y-103089
X76219Y-151405
X76219Y-153905
X81128Y-143226
X81128Y-146726
X101290Y-112278
X103200Y-112278
X105110Y-112278
X123705Y-148639
X123705Y-151179
X123705Y-153719
X123705Y-156259
X132842Y-135891
X132842Y-137891
X132842Y-139891
X137505Y-137891
X137505Y-139891
X137505Y-141891
X137505Y-143891
X137505Y-145891
X137505Y-147891
X137505Y-149891
X137505Y-151891
X137505Y-153891
X137505Y-155891
X137895Y-93653
X139505Y-135891
X139505Y-157891
X139805Y-93653
X141505Y-135891
X141505Y-157891
X141715Y-93653
X143505Y-135891
X143505Y-157891
X145505Y-135891
X145505Y-157891
X147505Y-135891
X147505Y-157891
X149505Y-135891
X149505Y-157891
X151505Y-135891
X151505Y-157891
X153080Y-162052
X153505Y-135891
X153505Y-157891
X154905Y-114166
X155080Y-162052
X155505Y-135891
X155505Y-157891
X156815Y-114166
X157080Y-162052
X157505Y-135891
X157505Y-157891
X158725Y-114166
X159080Y-162052
X159505Y-137891
X159505Y-139891
X159505Y-141891
X159505Y-143891
X159505Y-145891
X159505Y-147891
X159505Y-149891
X159505Y-151891
X159505Y-153891
X159505Y-155891
X167755Y-125891
X167820Y-145059
X167820Y-147059
X167820Y-149059
X167820Y-151059
X167820Y-153059
X167820Y-155059
X169820Y-145059
X169820Y-147059
X169820Y-149059
X169820Y-151059
X169820Y-153059
X169820Y-155059
X171255Y-125891
X174771Y-133213
X174771Y-135213
X174771Y-137213
X174771Y-139213
X186595Y-139066
X186595Y-141566
X186595Y-143566
X186595Y-146066
T7
X25368Y-119655
X30368Y-119655
X91948Y-154330
X94548Y-154330
T8
X78181Y-159016
X78181Y-161556
X78181Y-164096
X87954Y-159016
X87954Y-161556
X87954Y-164096
T9
X58625Y-118411
X61165Y-115871
X63705Y-118411
X73151Y-118486
X75691Y-115946
X78231Y-118486
X86415Y-118334
X88955Y-115793
X91495Y-118334
X105925Y-80878
X108465Y-80878
X111005Y-80878
X121475Y-80848
X124015Y-80848
X126555Y-80848
X151905Y-67541
X154445Y-67541
X156985Y-67541
X169105Y-67541
X171645Y-67541
X174185Y-67541
T10
X25876Y-94116
X25876Y-99116
X34405Y-66141
X34405Y-71141
T11
X97905Y-66641
X102985Y-66641
X108065Y-66641
X113145Y-66641
X118225Y-66641
X123305Y-66641
X128385Y-66641
X133465Y-66641
T12
X72536Y-71234
X72536Y-89734
X170405Y-101641
X188905Y-101641
T13
X116255Y-74141
X186005Y-88741
X186055Y-83041
T15
X46805Y-96191
X46805Y-121016
X93405Y-76541
X114405Y-121016
X139105Y-63541
X180855Y-63541
X180855Y-78016
X184195Y-135966
X184195Y-149166
T16
X46005Y-63741
X54405Y-63741
X67105Y-63741
X75505Y-63741
X122605Y-90703
X122605Y-99103
X122605Y-111803
X122605Y-120203
T17
X22355Y-64191
X22455Y-164491
X187655Y-164391
X187755Y-64241
T2
G00X39031Y-104166
M15
G01X39031Y-104466
M16
G05
G00X39031Y-106706
M15
G01X39031Y-107006
M16
G05
G00X39031Y-109246
M15
G01X39031Y-109546
M16
G05
G00X39031Y-111786
M15
G01X39031Y-112086
M16
G05
T14
G00X46830Y-76651
M15
G01X46830Y-80651
M16
G05
G00X46830Y-86651
M15
G01X46830Y-90651
M16
G05
G00X96200Y-90878
M15
G01X100200Y-90878
M16
G05
G00X106200Y-90878
M15
G01X110200Y-90878
M16
G05
G00X136805Y-115053
M15
G01X132805Y-115053
M16
G05
G00X146805Y-115053
M15
G01X142805Y-115053
M16
G05
G00X149815Y-92766
M15
G01X153815Y-92766
M16
G05
G00X159815Y-92766
M15
G01X163815Y-92766
M16
G05
T0
M30
