%TF.GenerationSoftware,KiCad,Pcbnew,(6.0.0-rc1-489-g57af990066)*%
%TF.CreationDate,2021-12-17T01:52:51+00:00*%
%TF.ProjectId,solarpump,736f6c61-7270-4756-9d70-2e6b69636164,1.0*%
%TF.SameCoordinates,Original*%
%TF.FileFunction,Paste,Top*%
%TF.FilePolarity,Positive*%
%FSLAX46Y46*%
G04 Gerber Fmt 4.6, Leading zero omitted, Abs format (unit mm)*
G04 Created by KiCad (PCBNEW (6.0.0-rc1-489-g57af990066)) date 2021-12-17 01:52:51*
%MOMM*%
%LPD*%
G01*
G04 APERTURE LIST*
G04 Aperture macros list*
%AMRoundRect*
0 Rectangle with rounded corners*
0 $1 Rounding radius*
0 $2 $3 $4 $5 $6 $7 $8 $9 X,Y pos of 4 corners*
0 Add a 4 corners polygon primitive as box body*
4,1,4,$2,$3,$4,$5,$6,$7,$8,$9,$2,$3,0*
0 Add four circle primitives for the rounded corners*
1,1,$1+$1,$2,$3*
1,1,$1+$1,$4,$5*
1,1,$1+$1,$6,$7*
1,1,$1+$1,$8,$9*
0 Add four rect primitives between the rounded corners*
20,1,$1+$1,$2,$3,$4,$5,0*
20,1,$1+$1,$4,$5,$6,$7,0*
20,1,$1+$1,$6,$7,$8,$9,0*
20,1,$1+$1,$8,$9,$2,$3,0*%
G04 Aperture macros list end*
%ADD10RoundRect,0.250000X0.450000X-0.350000X0.450000X0.350000X-0.450000X0.350000X-0.450000X-0.350000X0*%
%ADD11RoundRect,0.250000X-0.475000X0.337500X-0.475000X-0.337500X0.475000X-0.337500X0.475000X0.337500X0*%
%ADD12R,5.250000X4.550000*%
%ADD13R,0.800000X4.600000*%
%ADD14RoundRect,0.150000X0.825000X0.150000X-0.825000X0.150000X-0.825000X-0.150000X0.825000X-0.150000X0*%
%ADD15RoundRect,0.250000X0.350000X0.450000X-0.350000X0.450000X-0.350000X-0.450000X0.350000X-0.450000X0*%
%ADD16RoundRect,0.250000X0.337500X0.475000X-0.337500X0.475000X-0.337500X-0.475000X0.337500X-0.475000X0*%
%ADD17RoundRect,0.250000X0.475000X-0.337500X0.475000X0.337500X-0.475000X0.337500X-0.475000X-0.337500X0*%
%ADD18RoundRect,0.150000X0.150000X-0.587500X0.150000X0.587500X-0.150000X0.587500X-0.150000X-0.587500X0*%
%ADD19RoundRect,0.250000X-0.450000X0.350000X-0.450000X-0.350000X0.450000X-0.350000X0.450000X0.350000X0*%
%ADD20R,1.800000X2.500000*%
%ADD21RoundRect,0.250000X-0.337500X-0.475000X0.337500X-0.475000X0.337500X0.475000X-0.337500X0.475000X0*%
%ADD22R,1.100000X4.600000*%
%ADD23R,2.800000X1.500000*%
%ADD24R,1.500000X2.800000*%
%ADD25RoundRect,0.150000X0.587500X0.150000X-0.587500X0.150000X-0.587500X-0.150000X0.587500X-0.150000X0*%
%ADD26RoundRect,0.250000X-0.350000X-0.450000X0.350000X-0.450000X0.350000X0.450000X-0.350000X0.450000X0*%
%ADD27RoundRect,0.150000X0.150000X-0.875000X0.150000X0.875000X-0.150000X0.875000X-0.150000X-0.875000X0*%
%ADD28RoundRect,0.150000X0.150000X-0.512500X0.150000X0.512500X-0.150000X0.512500X-0.150000X-0.512500X0*%
%ADD29R,1.300000X1.400000*%
%ADD30R,1.400000X1.300000*%
%ADD31RoundRect,0.250000X0.450000X-0.325000X0.450000X0.325000X-0.450000X0.325000X-0.450000X-0.325000X0*%
%ADD32R,2.700000X3.600000*%
%ADD33RoundRect,0.250001X-0.624999X0.462499X-0.624999X-0.462499X0.624999X-0.462499X0.624999X0.462499X0*%
%ADD34RoundRect,0.075000X-0.662500X-0.075000X0.662500X-0.075000X0.662500X0.075000X-0.662500X0.075000X0*%
%ADD35RoundRect,0.075000X-0.075000X-0.662500X0.075000X-0.662500X0.075000X0.662500X-0.075000X0.662500X0*%
%ADD36RoundRect,0.150000X-0.150000X0.587500X-0.150000X-0.587500X0.150000X-0.587500X0.150000X0.587500X0*%
%ADD37R,2.900000X5.400000*%
%ADD38RoundRect,0.250000X1.100000X-0.412500X1.100000X0.412500X-1.100000X0.412500X-1.100000X-0.412500X0*%
%ADD39RoundRect,0.150000X-0.587500X-0.150000X0.587500X-0.150000X0.587500X0.150000X-0.587500X0.150000X0*%
%ADD40RoundRect,0.250000X-1.100000X0.412500X-1.100000X-0.412500X1.100000X-0.412500X1.100000X0.412500X0*%
%ADD41R,2.500000X1.800000*%
%ADD42RoundRect,0.250000X-0.650000X0.412500X-0.650000X-0.412500X0.650000X-0.412500X0.650000X0.412500X0*%
%ADD43RoundRect,0.250001X-1.074999X0.462499X-1.074999X-0.462499X1.074999X-0.462499X1.074999X0.462499X0*%
%ADD44RoundRect,0.150000X0.875000X0.150000X-0.875000X0.150000X-0.875000X-0.150000X0.875000X-0.150000X0*%
%ADD45RoundRect,0.150000X-0.825000X-0.150000X0.825000X-0.150000X0.825000X0.150000X-0.825000X0.150000X0*%
G04 APERTURE END LIST*
D10*
%TO.C,R19*%
X81681235Y-155605600D03*
X81681235Y-153605600D03*
%TD*%
D11*
%TO.C,C26*%
X19981235Y-151178500D03*
X19981235Y-153253500D03*
%TD*%
%TO.C,C27*%
X19981235Y-156178500D03*
X19981235Y-158253500D03*
%TD*%
D12*
%TO.C,U7*%
X26906235Y-152366000D03*
X32456235Y-157216000D03*
X26906235Y-157216000D03*
X32456235Y-152366000D03*
D13*
X33491235Y-145641000D03*
X32221235Y-145641000D03*
X30951235Y-145641000D03*
X29681235Y-145641000D03*
X28411235Y-145641000D03*
X27141235Y-145641000D03*
X25871235Y-145641000D03*
%TD*%
D14*
%TO.C,U11*%
X157281835Y-77516600D03*
X157281835Y-76246600D03*
X157281835Y-74976600D03*
X157281835Y-73706600D03*
X152331835Y-73706600D03*
X152331835Y-74976600D03*
X152331835Y-76246600D03*
X152331835Y-77516600D03*
%TD*%
D15*
%TO.C,R41*%
X99205000Y-85091000D03*
X97205000Y-85091000D03*
%TD*%
D16*
%TO.C,C18*%
X45118735Y-108716000D03*
X43043735Y-108716000D03*
%TD*%
D11*
%TO.C,C8*%
X119227600Y-130890100D03*
X119227600Y-132965100D03*
%TD*%
D17*
%TO.C,C29*%
X21710835Y-122775500D03*
X21710835Y-120700500D03*
%TD*%
D18*
%TO.C,Q4*%
X30731235Y-106078500D03*
X32631235Y-106078500D03*
X31681235Y-104203500D03*
%TD*%
D19*
%TO.C,R20*%
X36849235Y-147052400D03*
X36849235Y-149052400D03*
%TD*%
D20*
%TO.C,D10*%
X144799235Y-71871200D03*
X144799235Y-67871200D03*
%TD*%
D21*
%TO.C,C1*%
X109520155Y-152984070D03*
X111595155Y-152984070D03*
%TD*%
D10*
%TO.C,R5*%
X82481235Y-164616000D03*
X82481235Y-162616000D03*
%TD*%
D19*
%TO.C,R23*%
X87503000Y-17415000D03*
X87503000Y-19415000D03*
%TD*%
D16*
%TO.C,C37*%
X157555500Y-42164000D03*
X155480500Y-42164000D03*
%TD*%
D15*
%TO.C,R49*%
X166862000Y-20955000D03*
X164862000Y-20955000D03*
%TD*%
D12*
%TO.C,U9*%
X48956235Y-164016000D03*
X43406235Y-159166000D03*
X43406235Y-164016000D03*
X48956235Y-159166000D03*
D22*
X49581235Y-152441000D03*
X47881235Y-152441000D03*
X46181235Y-152441000D03*
X44481235Y-152441000D03*
X42781235Y-152441000D03*
%TD*%
D23*
%TO.C,MCU1*%
X160155000Y-155891000D03*
X160155000Y-153891000D03*
X160155000Y-151891000D03*
X160155000Y-149891000D03*
X160155000Y-147891000D03*
X160155000Y-145891000D03*
X160155000Y-143891000D03*
X160155000Y-141891000D03*
X160155000Y-139891000D03*
X160155000Y-137891000D03*
D24*
X157505000Y-135241000D03*
X155505000Y-135241000D03*
X153505000Y-135241000D03*
X151505000Y-135241000D03*
X149505000Y-135241000D03*
X147505000Y-135241000D03*
X145505000Y-135241000D03*
X143505000Y-135241000D03*
X141505000Y-135241000D03*
X139505000Y-135241000D03*
D23*
X136855000Y-137891000D03*
X136855000Y-139891000D03*
X136855000Y-141891000D03*
X136855000Y-143891000D03*
X136855000Y-145891000D03*
X136855000Y-147891000D03*
X136855000Y-149891000D03*
X136855000Y-151891000D03*
X136855000Y-153891000D03*
X136855000Y-155891000D03*
D24*
X139505000Y-158541000D03*
X141505000Y-158541000D03*
X143505000Y-158541000D03*
X145505000Y-158541000D03*
X147505000Y-158541000D03*
X149505000Y-158541000D03*
X151505000Y-158541000D03*
X153505000Y-158541000D03*
X155505000Y-158541000D03*
X157505000Y-158541000D03*
%TD*%
D15*
%TO.C,R13*%
X84178835Y-100503600D03*
X82178835Y-100503600D03*
%TD*%
%TO.C,R33*%
X159781235Y-70116000D03*
X157781235Y-70116000D03*
%TD*%
D25*
%TO.C,Q6*%
X49603900Y-53858200D03*
X49603900Y-51958200D03*
X47728900Y-52908200D03*
%TD*%
D11*
%TO.C,C51*%
X147193000Y-15472500D03*
X147193000Y-17547500D03*
%TD*%
D26*
%TO.C,R46*%
X98176235Y-143416000D03*
X100176235Y-143416000D03*
%TD*%
%TO.C,R36*%
X131791200Y-121291000D03*
X133791200Y-121291000D03*
%TD*%
D11*
%TO.C,C28*%
X19781235Y-145978500D03*
X19781235Y-148053500D03*
%TD*%
D21*
%TO.C,C48*%
X153867500Y-116516000D03*
X155942500Y-116516000D03*
%TD*%
D27*
%TO.C,U14*%
X135128000Y-24970000D03*
X136398000Y-24970000D03*
X137668000Y-24970000D03*
X138938000Y-24970000D03*
X140208000Y-24970000D03*
X141478000Y-24970000D03*
X142748000Y-24970000D03*
X144018000Y-24970000D03*
X144018000Y-15670000D03*
X142748000Y-15670000D03*
X141478000Y-15670000D03*
X140208000Y-15670000D03*
X138938000Y-15670000D03*
X137668000Y-15670000D03*
X136398000Y-15670000D03*
X135128000Y-15670000D03*
%TD*%
D19*
%TO.C,R25*%
X28067000Y-18456400D03*
X28067000Y-20456400D03*
%TD*%
D17*
%TO.C,C13*%
X119922175Y-152615130D03*
X119922175Y-150540130D03*
%TD*%
D15*
%TO.C,R8*%
X96055000Y-149741000D03*
X94055000Y-149741000D03*
%TD*%
%TO.C,R39*%
X99217500Y-78991000D03*
X97217500Y-78991000D03*
%TD*%
D26*
%TO.C,R27*%
X155518000Y-30353000D03*
X157518000Y-30353000D03*
%TD*%
D16*
%TO.C,C44*%
X100243735Y-140141000D03*
X98168735Y-140141000D03*
%TD*%
%TO.C,C35*%
X29612500Y-37058600D03*
X27537500Y-37058600D03*
%TD*%
%TO.C,C9*%
X115896300Y-154584400D03*
X113821300Y-154584400D03*
%TD*%
D28*
%TO.C,U1*%
X167572835Y-139791900D03*
X168522835Y-139791900D03*
X169472835Y-139791900D03*
X169472835Y-137516900D03*
X167572835Y-137516900D03*
%TD*%
D21*
%TO.C,C2*%
X109520155Y-150984070D03*
X111595155Y-150984070D03*
%TD*%
D10*
%TO.C,R38*%
X138195235Y-81082000D03*
X138195235Y-79082000D03*
%TD*%
D17*
%TO.C,C39*%
X149523635Y-77055500D03*
X149523635Y-74980500D03*
%TD*%
D29*
%TO.C,D5*%
X82931235Y-137016000D03*
X85831235Y-137016000D03*
%TD*%
D17*
%TO.C,C4*%
X104557655Y-153121570D03*
X104557655Y-151046570D03*
%TD*%
D16*
%TO.C,C47*%
X159942500Y-116516000D03*
X157867500Y-116516000D03*
%TD*%
%TO.C,C46*%
X96122500Y-140141000D03*
X94047500Y-140141000D03*
%TD*%
D21*
%TO.C,C43*%
X136777500Y-91091000D03*
X138852500Y-91091000D03*
%TD*%
D26*
%TO.C,R35*%
X127574800Y-121291000D03*
X129574800Y-121291000D03*
%TD*%
D15*
%TO.C,R1*%
X105749600Y-135128000D03*
X103749600Y-135128000D03*
%TD*%
%TO.C,R30*%
X145545235Y-78566000D03*
X143545235Y-78566000D03*
%TD*%
D26*
%TO.C,R45*%
X94055000Y-143409070D03*
X96055000Y-143409070D03*
%TD*%
D30*
%TO.C,D13*%
X37509635Y-152749200D03*
X37509635Y-155649200D03*
%TD*%
D31*
%TO.C,D2*%
X48361600Y-112277000D03*
X48361600Y-110227000D03*
%TD*%
D19*
%TO.C,R24*%
X90043000Y-17415000D03*
X90043000Y-19415000D03*
%TD*%
D11*
%TO.C,C33*%
X54629235Y-138226500D03*
X54629235Y-140301500D03*
%TD*%
%TO.C,C10*%
X112420400Y-131601300D03*
X112420400Y-133676300D03*
%TD*%
D26*
%TO.C,R16*%
X30656235Y-109066000D03*
X32656235Y-109066000D03*
%TD*%
D32*
%TO.C,L4*%
X50331235Y-143116000D03*
X42031235Y-143116000D03*
%TD*%
D26*
%TO.C,R2*%
X103749600Y-132943600D03*
X105749600Y-132943600D03*
%TD*%
D20*
%TO.C,D7*%
X74390435Y-143055200D03*
X74390435Y-147055200D03*
%TD*%
D10*
%TO.C,R15*%
X82366035Y-118470800D03*
X82366035Y-116470800D03*
%TD*%
D21*
%TO.C,C6*%
X108284100Y-131521200D03*
X110359100Y-131521200D03*
%TD*%
D33*
%TO.C,D14*%
X172288200Y-14336700D03*
X172288200Y-17311700D03*
%TD*%
D10*
%TO.C,R6*%
X82467635Y-160279200D03*
X82467635Y-158279200D03*
%TD*%
D26*
%TO.C,R11*%
X43081235Y-113316000D03*
X45081235Y-113316000D03*
%TD*%
D17*
%TO.C,C3*%
X106622175Y-153121570D03*
X106622175Y-151046570D03*
%TD*%
D19*
%TO.C,R37*%
X94917500Y-81141000D03*
X94917500Y-83141000D03*
%TD*%
D21*
%TO.C,C17*%
X69332915Y-99132000D03*
X71407915Y-99132000D03*
%TD*%
D26*
%TO.C,R44*%
X130692835Y-81910800D03*
X132692835Y-81910800D03*
%TD*%
D11*
%TO.C,C49*%
X38881235Y-147014900D03*
X38881235Y-149089900D03*
%TD*%
D26*
%TO.C,R51*%
X27575000Y-39243000D03*
X29575000Y-39243000D03*
%TD*%
D33*
%TO.C,D16*%
X162560000Y-14336700D03*
X162560000Y-17311700D03*
%TD*%
D15*
%TO.C,R12*%
X90579635Y-107463200D03*
X88579635Y-107463200D03*
%TD*%
D34*
%TO.C,U2*%
X105995155Y-139159070D03*
X105995155Y-139659070D03*
X105995155Y-140159070D03*
X105995155Y-140659070D03*
X105995155Y-141159070D03*
X105995155Y-141659070D03*
X105995155Y-142159070D03*
X105995155Y-142659070D03*
X105995155Y-143159070D03*
X105995155Y-143659070D03*
X105995155Y-144159070D03*
X105995155Y-144659070D03*
X105995155Y-145159070D03*
X105995155Y-145659070D03*
X105995155Y-146159070D03*
X105995155Y-146659070D03*
D35*
X107907655Y-148571570D03*
X108407655Y-148571570D03*
X108907655Y-148571570D03*
X109407655Y-148571570D03*
X109907655Y-148571570D03*
X110407655Y-148571570D03*
X110907655Y-148571570D03*
X111407655Y-148571570D03*
X111907655Y-148571570D03*
X112407655Y-148571570D03*
X112907655Y-148571570D03*
X113407655Y-148571570D03*
X113907655Y-148571570D03*
X114407655Y-148571570D03*
X114907655Y-148571570D03*
X115407655Y-148571570D03*
D34*
X117320155Y-146659070D03*
X117320155Y-146159070D03*
X117320155Y-145659070D03*
X117320155Y-145159070D03*
X117320155Y-144659070D03*
X117320155Y-144159070D03*
X117320155Y-143659070D03*
X117320155Y-143159070D03*
X117320155Y-142659070D03*
X117320155Y-142159070D03*
X117320155Y-141659070D03*
X117320155Y-141159070D03*
X117320155Y-140659070D03*
X117320155Y-140159070D03*
X117320155Y-139659070D03*
X117320155Y-139159070D03*
D35*
X115407655Y-137246570D03*
X114907655Y-137246570D03*
X114407655Y-137246570D03*
X113907655Y-137246570D03*
X113407655Y-137246570D03*
X112907655Y-137246570D03*
X112407655Y-137246570D03*
X111907655Y-137246570D03*
X111407655Y-137246570D03*
X110907655Y-137246570D03*
X110407655Y-137246570D03*
X109907655Y-137246570D03*
X109407655Y-137246570D03*
X108907655Y-137246570D03*
X108407655Y-137246570D03*
X107907655Y-137246570D03*
%TD*%
D36*
%TO.C,Q10*%
X136351235Y-79203500D03*
X134451235Y-79203500D03*
X135401235Y-81078500D03*
%TD*%
D37*
%TO.C,L2*%
X33431235Y-132016000D03*
X23531235Y-132016000D03*
%TD*%
D16*
%TO.C,C45*%
X142852500Y-91091000D03*
X140777500Y-91091000D03*
%TD*%
D38*
%TO.C,C20*%
X62920415Y-95868500D03*
X62920415Y-92743500D03*
%TD*%
D17*
%TO.C,C14*%
X22405000Y-86678500D03*
X22405000Y-84603500D03*
%TD*%
D18*
%TO.C,Q5*%
X83631235Y-155593900D03*
X85531235Y-155593900D03*
X84581235Y-153718900D03*
%TD*%
D12*
%TO.C,U8*%
X68556235Y-159166000D03*
X63006235Y-164016000D03*
X63006235Y-159166000D03*
X68556235Y-164016000D03*
D22*
X69181235Y-152441000D03*
X67481235Y-152441000D03*
X65781235Y-152441000D03*
X64081235Y-152441000D03*
X62381235Y-152441000D03*
%TD*%
D26*
%TO.C,R28*%
X155518000Y-35687000D03*
X157518000Y-35687000D03*
%TD*%
%TO.C,R32*%
X143680000Y-74748000D03*
X145680000Y-74748000D03*
%TD*%
D11*
%TO.C,C25*%
X37255635Y-141934900D03*
X37255635Y-144009900D03*
%TD*%
D30*
%TO.C,D11*%
X111810800Y-75166000D03*
X111810800Y-78066000D03*
%TD*%
D39*
%TO.C,Q9*%
X97280000Y-81091000D03*
X97280000Y-82991000D03*
X99155000Y-82041000D03*
%TD*%
D20*
%TO.C,D8*%
X54629235Y-142953600D03*
X54629235Y-146953600D03*
%TD*%
D11*
%TO.C,C16*%
X22405000Y-80603500D03*
X22405000Y-82678500D03*
%TD*%
D15*
%TO.C,R40*%
X136553635Y-83130000D03*
X134553635Y-83130000D03*
%TD*%
D21*
%TO.C,C38*%
X155480500Y-44958000D03*
X157555500Y-44958000D03*
%TD*%
D26*
%TO.C,R42*%
X130692835Y-79828000D03*
X132692835Y-79828000D03*
%TD*%
%TO.C,R17*%
X78013235Y-97912800D03*
X80013235Y-97912800D03*
%TD*%
D15*
%TO.C,R7*%
X99955000Y-149741000D03*
X97955000Y-149741000D03*
%TD*%
D16*
%TO.C,C22*%
X99992500Y-146691000D03*
X97917500Y-146691000D03*
%TD*%
D15*
%TO.C,R14*%
X90935235Y-121738000D03*
X88935235Y-121738000D03*
%TD*%
D40*
%TO.C,C41*%
X163180000Y-112928500D03*
X163180000Y-116053500D03*
%TD*%
D15*
%TO.C,R31*%
X169981235Y-72216000D03*
X167981235Y-72216000D03*
%TD*%
D16*
%TO.C,C11*%
X115892500Y-152196800D03*
X113817500Y-152196800D03*
%TD*%
D41*
%TO.C,D9*%
X167538835Y-76221200D03*
X171538835Y-76221200D03*
%TD*%
D26*
%TO.C,R29*%
X155518000Y-33020000D03*
X157518000Y-33020000D03*
%TD*%
D10*
%TO.C,R26*%
X52197000Y-53975000D03*
X52197000Y-51975000D03*
%TD*%
D26*
%TO.C,R10*%
X43081235Y-111016000D03*
X45081235Y-111016000D03*
%TD*%
D11*
%TO.C,C19*%
X43531235Y-104378500D03*
X43531235Y-106453500D03*
%TD*%
D41*
%TO.C,D4*%
X80162835Y-103805600D03*
X84162835Y-103805600D03*
%TD*%
D42*
%TO.C,C34*%
X58083635Y-140546300D03*
X58083635Y-143671300D03*
%TD*%
D43*
%TO.C,D15*%
X167424100Y-14336700D03*
X167424100Y-17311700D03*
%TD*%
D20*
%TO.C,D3*%
X89579635Y-103976800D03*
X89579635Y-99976800D03*
%TD*%
D15*
%TO.C,R9*%
X67186235Y-99132000D03*
X65186235Y-99132000D03*
%TD*%
D11*
%TO.C,C24*%
X132334000Y-18520500D03*
X132334000Y-20595500D03*
%TD*%
D15*
%TO.C,R48*%
X170799000Y-20955000D03*
X168799000Y-20955000D03*
%TD*%
D26*
%TO.C,R18*%
X82178835Y-97912800D03*
X84178835Y-97912800D03*
%TD*%
D17*
%TO.C,C12*%
X117822175Y-152615130D03*
X117822175Y-150540130D03*
%TD*%
D10*
%TO.C,R21*%
X22081235Y-144016000D03*
X22081235Y-142016000D03*
%TD*%
D20*
%TO.C,D6*%
X37712835Y-132031600D03*
X37712835Y-136031600D03*
%TD*%
D19*
%TO.C,R4*%
X174923635Y-142124800D03*
X174923635Y-144124800D03*
%TD*%
D16*
%TO.C,C36*%
X157555500Y-38910500D03*
X155480500Y-38910500D03*
%TD*%
D15*
%TO.C,R47*%
X171942000Y-23114000D03*
X169942000Y-23114000D03*
%TD*%
D16*
%TO.C,C32*%
X75377135Y-139822800D03*
X73302135Y-139822800D03*
%TD*%
D40*
%TO.C,C42*%
X166705000Y-112878500D03*
X166705000Y-116003500D03*
%TD*%
D44*
%TO.C,U10*%
X72326953Y-43381000D03*
X72326953Y-42111000D03*
X72326953Y-40841000D03*
X72326953Y-39571000D03*
X72326953Y-38301000D03*
X72326953Y-37031000D03*
X72326953Y-35761000D03*
X72326953Y-34491000D03*
X72326953Y-33221000D03*
X72326953Y-31951000D03*
X72326953Y-30681000D03*
X72326953Y-29411000D03*
X72326953Y-28141000D03*
X72326953Y-26871000D03*
X63026953Y-26871000D03*
X63026953Y-28141000D03*
X63026953Y-29411000D03*
X63026953Y-30681000D03*
X63026953Y-31951000D03*
X63026953Y-33221000D03*
X63026953Y-34491000D03*
X63026953Y-35761000D03*
X63026953Y-37031000D03*
X63026953Y-38301000D03*
X63026953Y-39571000D03*
X63026953Y-40841000D03*
X63026953Y-42111000D03*
X63026953Y-43381000D03*
%TD*%
D16*
%TO.C,C15*%
X96092500Y-146691000D03*
X94017500Y-146691000D03*
%TD*%
D38*
%TO.C,C40*%
X166405000Y-101253500D03*
X166405000Y-98128500D03*
%TD*%
D10*
%TO.C,R22*%
X22081235Y-148016000D03*
X22081235Y-146016000D03*
%TD*%
D19*
%TO.C,R3*%
X171570835Y-137832200D03*
X171570835Y-139832200D03*
%TD*%
D21*
%TO.C,C5*%
X108317500Y-133891000D03*
X110392500Y-133891000D03*
%TD*%
D45*
%TO.C,U4*%
X65845415Y-102053000D03*
X65845415Y-103323000D03*
X65845415Y-104593000D03*
X65845415Y-105863000D03*
X70795415Y-105863000D03*
X70795415Y-104593000D03*
X70795415Y-103323000D03*
X70795415Y-102053000D03*
%TD*%
D26*
%TO.C,R34*%
X143799235Y-64994400D03*
X145799235Y-64994400D03*
%TD*%
D30*
%TO.C,D12*%
X120599200Y-75156400D03*
X120599200Y-78056400D03*
%TD*%
D11*
%TO.C,C7*%
X117094000Y-130890100D03*
X117094000Y-132965100D03*
%TD*%
D26*
%TO.C,R50*%
X114138200Y-53365400D03*
X116138200Y-53365400D03*
%TD*%
D21*
%TO.C,C23*%
X100102175Y-115452630D03*
X102177175Y-115452630D03*
%TD*%
D30*
%TO.C,D1*%
X21455000Y-74541000D03*
X21455000Y-71641000D03*
%TD*%
D32*
%TO.C,L3*%
X70006035Y-143116000D03*
X61706035Y-143116000D03*
%TD*%
D16*
%TO.C,C21*%
X106227175Y-115452630D03*
X104152175Y-115452630D03*
%TD*%
D19*
%TO.C,R43*%
X101705000Y-83241000D03*
X101705000Y-85241000D03*
%TD*%
M02*
