%TF.GenerationSoftware,KiCad,Pcbnew,(5.99.0-13134-g7fd669b6a8-dirty)*%
%TF.CreationDate,2021-11-08T01:58:15+00:00*%
%TF.ProjectId,solarpump,736f6c61-7270-4756-9d70-2e6b69636164,1.0*%
%TF.SameCoordinates,Original*%
%TF.FileFunction,Legend,Bot*%
%TF.FilePolarity,Positive*%
%FSLAX46Y46*%
G04 Gerber Fmt 4.6, Leading zero omitted, Abs format (unit mm)*
G04 Created by KiCad (PCBNEW (5.99.0-13134-g7fd669b6a8-dirty)) date 2021-11-08 01:58:15*
%MOMM*%
%LPD*%
G01*
G04 APERTURE LIST*
%ADD10C,0.150000*%
%ADD11C,0.130000*%
%ADD12C,0.120000*%
G04 APERTURE END LIST*
D10*
%TO.C,J6*%
X128368896Y-28386100D02*
X129083182Y-28386100D01*
X129226039Y-28338481D01*
X129321277Y-28243243D01*
X129368896Y-28100386D01*
X129368896Y-28005148D01*
X128368896Y-29290862D02*
X128368896Y-29100386D01*
X128416516Y-29005148D01*
X128464135Y-28957529D01*
X128606992Y-28862291D01*
X128797468Y-28814672D01*
X129178420Y-28814672D01*
X129273658Y-28862291D01*
X129321277Y-28909910D01*
X129368896Y-29005148D01*
X129368896Y-29195624D01*
X129321277Y-29290862D01*
X129273658Y-29338481D01*
X129178420Y-29386100D01*
X128940325Y-29386100D01*
X128845087Y-29338481D01*
X128797468Y-29290862D01*
X128749849Y-29195624D01*
X128749849Y-29005148D01*
X128797468Y-28909910D01*
X128845087Y-28862291D01*
X128940325Y-28814672D01*
%TO.C,BZ1*%
X85079806Y-28939269D02*
X85127425Y-29082126D01*
X85175044Y-29129745D01*
X85270282Y-29177364D01*
X85413139Y-29177364D01*
X85508377Y-29129745D01*
X85555996Y-29082126D01*
X85603615Y-28986888D01*
X85603615Y-28605936D01*
X84603615Y-28605936D01*
X84603615Y-28939269D01*
X84651235Y-29034507D01*
X84698854Y-29082126D01*
X84794092Y-29129745D01*
X84889330Y-29129745D01*
X84984568Y-29082126D01*
X85032187Y-29034507D01*
X85079806Y-28939269D01*
X85079806Y-28605936D01*
X84603615Y-29510698D02*
X84603615Y-30177364D01*
X85603615Y-29510698D01*
X85603615Y-30177364D01*
X85603615Y-31082126D02*
X85603615Y-30510698D01*
X85603615Y-30796412D02*
X84603615Y-30796412D01*
X84746473Y-30701174D01*
X84841711Y-30605936D01*
X84889330Y-30510698D01*
D11*
X58651235Y-28591650D02*
X58622663Y-28563079D01*
X58536949Y-28505936D01*
X58479806Y-28477364D01*
X58394092Y-28448793D01*
X58251235Y-28420222D01*
X58136949Y-28420222D01*
X57994092Y-28448793D01*
X57908377Y-28477364D01*
X57851235Y-28505936D01*
X57765520Y-28563079D01*
X57736949Y-28591650D01*
X58022663Y-28763079D02*
X58422663Y-28877364D01*
X58136949Y-28991650D01*
X58422663Y-29105936D01*
X58022663Y-29220222D01*
X58422663Y-29448793D02*
X58022663Y-29448793D01*
X57822663Y-29448793D02*
X57851235Y-29420222D01*
X57879806Y-29448793D01*
X57851235Y-29477364D01*
X57822663Y-29448793D01*
X57879806Y-29448793D01*
X58422663Y-29734507D02*
X58022663Y-29734507D01*
X58136949Y-29734507D02*
X58079806Y-29763079D01*
X58051235Y-29791650D01*
X58022663Y-29848793D01*
X58022663Y-29905936D01*
X58394092Y-30334507D02*
X58422663Y-30277364D01*
X58422663Y-30163079D01*
X58394092Y-30105936D01*
X58336949Y-30077364D01*
X58108377Y-30077364D01*
X58051235Y-30105936D01*
X58022663Y-30163079D01*
X58022663Y-30277364D01*
X58051235Y-30334507D01*
X58108377Y-30363079D01*
X58165520Y-30363079D01*
X58222663Y-30077364D01*
X58394092Y-30591650D02*
X58422663Y-30648793D01*
X58422663Y-30763079D01*
X58394092Y-30820222D01*
X58336949Y-30848793D01*
X58308377Y-30848793D01*
X58251235Y-30820222D01*
X58222663Y-30763079D01*
X58222663Y-30677364D01*
X58194092Y-30620222D01*
X58136949Y-30591650D01*
X58108377Y-30591650D01*
X58051235Y-30620222D01*
X58022663Y-30677364D01*
X58022663Y-30763079D01*
X58051235Y-30820222D01*
X58651235Y-31048793D02*
X58622663Y-31077364D01*
X58536949Y-31134507D01*
X58479806Y-31163079D01*
X58394092Y-31191650D01*
X58251235Y-31220222D01*
X58136949Y-31220222D01*
X57994092Y-31191650D01*
X57908377Y-31163079D01*
X57851235Y-31134507D01*
X57765520Y-31077364D01*
X57736949Y-31048793D01*
D10*
X58222663Y-31939269D02*
X58222663Y-32701174D01*
X58222663Y-26939269D02*
X58222663Y-27701174D01*
X58603615Y-27320222D02*
X57841711Y-27320222D01*
D11*
X85365520Y-20677364D02*
X85365520Y-20791650D01*
X85422663Y-20905936D01*
X85536949Y-20963079D01*
X85651235Y-20963079D01*
X85765520Y-20905936D01*
X85822663Y-20791650D01*
X85822663Y-20677364D01*
X85765520Y-20563079D01*
X85651235Y-20505936D01*
X85536949Y-20505936D01*
X85422663Y-20563079D01*
X85365520Y-20677364D01*
X85365520Y-20963079D02*
X85822663Y-20505936D01*
X85822663Y-21563079D02*
X85822663Y-21220222D01*
X85822663Y-21391650D02*
X85222663Y-21391650D01*
X85308377Y-21334507D01*
X85365520Y-21277364D01*
X85394092Y-21220222D01*
X85822663Y-21820222D02*
X85422663Y-21820222D01*
X85479806Y-21820222D02*
X85451235Y-21848793D01*
X85422663Y-21905936D01*
X85422663Y-21991650D01*
X85451235Y-22048793D01*
X85508377Y-22077364D01*
X85822663Y-22077364D01*
X85508377Y-22077364D02*
X85451235Y-22105936D01*
X85422663Y-22163079D01*
X85422663Y-22248793D01*
X85451235Y-22305936D01*
X85508377Y-22334507D01*
X85822663Y-22334507D01*
X85822663Y-22620222D02*
X85422663Y-22620222D01*
X85479806Y-22620222D02*
X85451235Y-22648793D01*
X85422663Y-22705936D01*
X85422663Y-22791650D01*
X85451235Y-22848793D01*
X85508377Y-22877364D01*
X85822663Y-22877364D01*
X85508377Y-22877364D02*
X85451235Y-22905936D01*
X85422663Y-22963079D01*
X85422663Y-23048793D01*
X85451235Y-23105936D01*
X85508377Y-23134507D01*
X85822663Y-23134507D01*
D12*
%TO.C,J6*%
X127916516Y-26659434D02*
X115796516Y-26659434D01*
X126856516Y-30779434D02*
X127916516Y-30779434D01*
X127916516Y-30779434D02*
X127916516Y-29719434D01*
X115796516Y-30779434D02*
X115796516Y-26659434D01*
X125856516Y-30779434D02*
X115796516Y-30779434D01*
X125856516Y-30779434D02*
X125856516Y-28719434D01*
X125856516Y-28719434D02*
X127916516Y-28719434D01*
X127916516Y-28719434D02*
X127916516Y-26659434D01*
%TO.C,BZ1*%
X82151235Y-46820222D02*
X77151235Y-41820222D01*
X89151235Y-46820222D02*
X94151235Y-41820222D01*
X77151235Y-31820222D02*
X76151235Y-31820222D01*
X89151235Y-12820222D02*
X94151235Y-17820222D01*
X82151235Y-12820222D02*
X89151235Y-12820222D01*
X82151235Y-12820222D02*
X77151235Y-17820222D01*
X82151235Y-46820222D02*
X89151235Y-46820222D01*
X77151235Y-32320222D02*
X76151235Y-32320222D01*
X77151235Y-17820222D02*
X94151235Y-17820222D01*
X94151235Y-17820222D02*
X94151235Y-41820222D01*
X94151235Y-41820222D02*
X77151235Y-41820222D01*
X77151235Y-41820222D02*
X77151235Y-17820222D01*
X87651235Y-43320222D02*
G75*
G03*
X87651235Y-43320222I-2000000J0D01*
G01*
X87651235Y-16320222D02*
G75*
G03*
X87651235Y-16320222I-2000000J0D01*
G01*
%TD*%
M02*
