%TF.GenerationSoftware,KiCad,Pcbnew,(6.0.0-rc1-489-g57af990066)*%
%TF.CreationDate,2021-12-17T01:52:52+00:00*%
%TF.ProjectId,solarpump,736f6c61-7270-4756-9d70-2e6b69636164,1.0*%
%TF.SameCoordinates,Original*%
%TF.FileFunction,Soldermask,Bot*%
%TF.FilePolarity,Negative*%
%FSLAX46Y46*%
G04 Gerber Fmt 4.6, Leading zero omitted, Abs format (unit mm)*
G04 Created by KiCad (PCBNEW (6.0.0-rc1-489-g57af990066)) date 2021-12-17 01:52:52*
%MOMM*%
%LPD*%
G01*
G04 APERTURE LIST*
G04 Aperture macros list*
%AMRoundRect*
0 Rectangle with rounded corners*
0 $1 Rounding radius*
0 $2 $3 $4 $5 $6 $7 $8 $9 X,Y pos of 4 corners*
0 Add a 4 corners polygon primitive as box body*
4,1,4,$2,$3,$4,$5,$6,$7,$8,$9,$2,$3,0*
0 Add four circle primitives for the rounded corners*
1,1,$1+$1,$2,$3*
1,1,$1+$1,$4,$5*
1,1,$1+$1,$6,$7*
1,1,$1+$1,$8,$9*
0 Add four rect primitives between the rounded corners*
20,1,$1+$1,$2,$3,$4,$5,0*
20,1,$1+$1,$4,$5,$6,$7,0*
20,1,$1+$1,$6,$7,$8,$9,0*
20,1,$1+$1,$8,$9,$2,$3,0*%
%AMHorizOval*
0 Thick line with rounded ends*
0 $1 width*
0 $2 $3 position (X,Y) of the first rounded end (center of the circle)*
0 $4 $5 position (X,Y) of the second rounded end (center of the circle)*
0 Add line between two ends*
20,1,$1,$2,$3,$4,$5,0*
0 Add two circle primitives to create the rounded ends*
1,1,$1,$2,$3*
1,1,$1,$4,$5*%
G04 Aperture macros list end*
%ADD10C,0.700000*%
%ADD11C,4.400000*%
%ADD12R,1.600000X1.600000*%
%ADD13C,1.600000*%
%ADD14C,1.200000*%
%ADD15C,3.200000*%
%ADD16RoundRect,0.250000X0.600000X0.600000X-0.600000X0.600000X-0.600000X-0.600000X0.600000X-0.600000X0*%
%ADD17C,1.700000*%
%ADD18R,1.500000X1.500000*%
%ADD19C,1.500000*%
%ADD20HorizOval,0.800000X0.000000X0.000000X0.000000X0.000000X0*%
%ADD21C,0.800000*%
%ADD22O,9.000000X6.000000*%
%ADD23HorizOval,0.800000X0.000000X0.000000X0.000000X0.000000X0*%
%ADD24C,3.000000*%
%ADD25C,1.350000*%
%ADD26O,1.350000X1.350000*%
%ADD27O,1.000000X1.400000*%
%ADD28R,1.350000X1.350000*%
%ADD29R,1.905000X2.000000*%
%ADD30O,1.905000X2.000000*%
%ADD31C,4.300000*%
%ADD32R,2.030000X1.730000*%
%ADD33O,2.030000X1.730000*%
%ADD34RoundRect,2.400000X-0.600000X0.600000X-0.600000X-0.600000X0.600000X-0.600000X0.600000X0.600000X0*%
%ADD35RoundRect,2.400000X0.600000X0.600000X-0.600000X0.600000X-0.600000X-0.600000X0.600000X-0.600000X0*%
%ADD36C,6.000000*%
%ADD37O,4.000000X2.000000*%
%ADD38R,3.200000X2.000000*%
%ADD39R,2.400000X2.400000*%
%ADD40C,2.400000*%
%ADD41O,1.600000X1.600000*%
%ADD42RoundRect,0.250001X-0.799999X-0.799999X0.799999X-0.799999X0.799999X0.799999X-0.799999X0.799999X0*%
%ADD43C,2.100000*%
%ADD44R,2.000000X2.000000*%
%ADD45C,2.000000*%
%ADD46C,1.400000*%
%ADD47C,2.500000*%
%ADD48RoundRect,0.250001X0.799999X0.799999X-0.799999X0.799999X-0.799999X-0.799999X0.799999X-0.799999X0*%
%ADD49HorizOval,0.800000X0.000000X0.000000X0.000000X0.000000X0*%
%ADD50HorizOval,0.800000X0.000000X0.000000X0.000000X0.000000X0*%
%ADD51C,5.800000*%
%ADD52R,2.600000X2.600000*%
%ADD53C,2.600000*%
%ADD54HorizOval,0.800000X0.000000X0.000000X0.000000X0.000000X0*%
%ADD55O,6.000000X9.000000*%
%ADD56HorizOval,0.800000X0.000000X0.000000X0.000000X0.000000X0*%
%ADD57RoundRect,2.400000X0.600000X-0.600000X0.600000X0.600000X-0.600000X0.600000X-0.600000X-0.600000X0*%
%ADD58C,2.540000*%
%ADD59RoundRect,0.250000X-0.350000X-0.625000X0.350000X-0.625000X0.350000X0.625000X-0.350000X0.625000X0*%
%ADD60O,1.200000X1.750000*%
%ADD61C,1.750000*%
%ADD62C,1.524000*%
G04 APERTURE END LIST*
D10*
%TO.C,HS4*%
X139105000Y-65191000D03*
D11*
X139105000Y-63541000D03*
D10*
X139105000Y-61891000D03*
X140271726Y-64707726D03*
X137938274Y-62374274D03*
X140755000Y-63541000D03*
X137938274Y-64707726D03*
X137455000Y-63541000D03*
X140271726Y-62374274D03*
%TD*%
D12*
%TO.C,CP7*%
X171255000Y-125891000D03*
D13*
X167755000Y-125891000D03*
%TD*%
D14*
%TO.C,J4*%
X186594635Y-139066000D03*
X186594635Y-141566000D03*
X186594635Y-143566000D03*
X186594635Y-146066000D03*
D15*
X184194635Y-149166000D03*
X184194635Y-135966000D03*
%TD*%
D16*
%TO.C,TH1*%
X131020155Y-154686000D03*
D17*
X127520155Y-154686000D03*
%TD*%
D18*
%TO.C,U6*%
X101289675Y-112277630D03*
D19*
X103199675Y-112277630D03*
X105109675Y-112277630D03*
D20*
X104249675Y-90247630D03*
D21*
X112149675Y-90247630D03*
X104999675Y-92537630D03*
X104999675Y-89217630D03*
X106199675Y-88827630D03*
X110199675Y-88827630D03*
X107529675Y-88827630D03*
X111399675Y-89217630D03*
X107529675Y-92927630D03*
D22*
X108199675Y-90877630D03*
D21*
X108869675Y-88827630D03*
X111399675Y-92537630D03*
D23*
X104249675Y-91507630D03*
D21*
X108869675Y-92927630D03*
X110199675Y-92927630D03*
X112149675Y-91507630D03*
X106199675Y-92927630D03*
X98869675Y-88827630D03*
X100199675Y-92927630D03*
X94249675Y-91507630D03*
D20*
X102149675Y-91507630D03*
D21*
X98869675Y-92927630D03*
X96199675Y-92927630D03*
X101399675Y-92537630D03*
X100199675Y-88827630D03*
X94999675Y-89217630D03*
X101399675Y-89217630D03*
D22*
X98199675Y-90877630D03*
D21*
X94249675Y-90247630D03*
X96199675Y-88827630D03*
D23*
X102149675Y-90247630D03*
D21*
X97529675Y-88827630D03*
X97529675Y-92927630D03*
X94999675Y-92537630D03*
%TD*%
D16*
%TO.C,TH3*%
X131020155Y-148336000D03*
D17*
X127520155Y-148336000D03*
%TD*%
D24*
%TO.C,L1*%
X72536235Y-89734000D03*
X72536235Y-71234000D03*
%TD*%
D25*
%TO.C,MCU1*%
X159505000Y-155891000D03*
D26*
X159505000Y-153891000D03*
X159505000Y-151891000D03*
X159505000Y-149891000D03*
X159505000Y-147891000D03*
X159505000Y-145891000D03*
X159505000Y-143891000D03*
X159505000Y-141891000D03*
X159505000Y-139891000D03*
X159505000Y-137891000D03*
X157505000Y-135891000D03*
X155505000Y-135891000D03*
X153505000Y-135891000D03*
X151505000Y-135891000D03*
X149505000Y-135891000D03*
X147505000Y-135891000D03*
X145505000Y-135891000D03*
X143505000Y-135891000D03*
X141505000Y-135891000D03*
X139505000Y-135891000D03*
X137505000Y-137891000D03*
X137505000Y-139891000D03*
X137505000Y-141891000D03*
X137505000Y-143891000D03*
X137505000Y-145891000D03*
X137505000Y-147891000D03*
X137505000Y-149891000D03*
X137505000Y-151891000D03*
X137505000Y-153891000D03*
X137505000Y-155891000D03*
X139505000Y-157891000D03*
X141505000Y-157891000D03*
X143505000Y-157891000D03*
X145505000Y-157891000D03*
X147505000Y-157891000D03*
X149505000Y-157891000D03*
X151505000Y-157891000D03*
X153505000Y-157891000D03*
X155505000Y-157891000D03*
X157505000Y-157891000D03*
%TD*%
D27*
%TO.C,U5*%
X39031235Y-104316000D03*
X39031235Y-106856000D03*
X39031235Y-109396000D03*
X39031235Y-111936000D03*
%TD*%
D12*
%TO.C,CP6*%
X43605635Y-131136000D03*
D13*
X47105635Y-131136000D03*
%TD*%
D28*
%TO.C,J5*%
X167820155Y-145059070D03*
D26*
X169820155Y-145059070D03*
X167820155Y-147059070D03*
X169820155Y-147059070D03*
X167820155Y-149059070D03*
X169820155Y-149059070D03*
X167820155Y-151059070D03*
X169820155Y-151059070D03*
X167820155Y-153059070D03*
X169820155Y-153059070D03*
X167820155Y-155059070D03*
X169820155Y-155059070D03*
%TD*%
D16*
%TO.C,TH2*%
X131020155Y-151511000D03*
D17*
X127520155Y-151511000D03*
%TD*%
D29*
%TO.C,Q2*%
X91495000Y-118333500D03*
D30*
X88955000Y-115793500D03*
X86415000Y-118333500D03*
%TD*%
D31*
%TO.C,H7*%
X178054000Y-52578000D03*
%TD*%
D28*
%TO.C,J13*%
X159080200Y-162052000D03*
D26*
X157080200Y-162052000D03*
X155080200Y-162052000D03*
X153080200Y-162052000D03*
%TD*%
D32*
%TO.C,J8*%
X78181235Y-159016000D03*
D33*
X78181235Y-161556000D03*
X78181235Y-164096000D03*
%TD*%
D31*
%TO.C,H6*%
X178054000Y-17272000D03*
%TD*%
D34*
%TO.C,F1*%
X75505000Y-63741000D03*
D35*
X67105000Y-63741000D03*
D36*
X46005000Y-63741000D03*
X54405000Y-63741000D03*
%TD*%
D10*
%TO.C,HS6*%
X95055000Y-76541000D03*
X92238274Y-75374274D03*
X91755000Y-76541000D03*
D11*
X93405000Y-76541000D03*
D10*
X94571726Y-77707726D03*
X92238274Y-77707726D03*
X93405000Y-78191000D03*
X93405000Y-74891000D03*
X94571726Y-75374274D03*
%TD*%
D37*
%TO.C,SW2*%
X161672600Y-36029900D03*
X161672600Y-41029900D03*
X161672600Y-38529900D03*
D38*
X170294600Y-31280900D03*
X170294000Y-45783300D03*
D37*
X178916000Y-41004500D03*
X178916000Y-36004500D03*
%TD*%
D39*
%TO.C,CP3*%
X25876435Y-94116000D03*
D40*
X25876435Y-99116000D03*
%TD*%
D31*
%TO.C,H4*%
X22455000Y-164491000D03*
%TD*%
D12*
%TO.C,M3*%
X79074000Y-42532277D03*
D41*
X81614000Y-42532277D03*
X84154000Y-42532277D03*
X86694000Y-42532277D03*
X89234000Y-42532277D03*
X91774000Y-42532277D03*
X94314000Y-42532277D03*
X96854000Y-42532277D03*
X99394000Y-42532277D03*
X101934000Y-42532277D03*
X104474000Y-42532277D03*
X107014000Y-42532277D03*
X109554000Y-42532277D03*
X112094000Y-42532277D03*
X114634000Y-42532277D03*
X117174000Y-42532277D03*
X119714000Y-42532277D03*
X122254000Y-42532277D03*
X124794000Y-42532277D03*
X127334000Y-42532277D03*
X127334000Y-27292277D03*
X124794000Y-27292277D03*
X122254000Y-27292277D03*
X119714000Y-27292277D03*
X117174000Y-27292277D03*
X114634000Y-27292277D03*
X112094000Y-27292277D03*
X109554000Y-27292277D03*
X107014000Y-27292277D03*
X104474000Y-27292277D03*
X101934000Y-27292277D03*
X99394000Y-27292277D03*
X96854000Y-27292277D03*
X94314000Y-27292277D03*
X91774000Y-27292277D03*
X89234000Y-27292277D03*
X86694000Y-27292277D03*
X84154000Y-27292277D03*
X81614000Y-27292277D03*
X79074000Y-27292277D03*
%TD*%
D10*
%TO.C,HS5*%
X179688274Y-64707726D03*
X182505000Y-63541000D03*
X179205000Y-63541000D03*
D11*
X180855000Y-63541000D03*
D10*
X179688274Y-62374274D03*
X182021726Y-62374274D03*
X180855000Y-61891000D03*
X182021726Y-64707726D03*
X180855000Y-65191000D03*
%TD*%
D29*
%TO.C,Q8*%
X151905000Y-67541000D03*
D30*
X154445000Y-67541000D03*
X156985000Y-67541000D03*
%TD*%
D12*
%TO.C,RN1*%
X123705000Y-156259070D03*
D41*
X123705000Y-153719070D03*
X123705000Y-151179070D03*
X123705000Y-148639070D03*
%TD*%
D12*
%TO.C,C31*%
X56305635Y-151405200D03*
D13*
X56305635Y-153905200D03*
%TD*%
D42*
%TO.C,SW4*%
X117257800Y-47091600D03*
D43*
X121857800Y-47091600D03*
%TD*%
D24*
%TO.C,L5*%
X188905000Y-101641000D03*
X170405000Y-101641000D03*
%TD*%
D42*
%TO.C,SW5*%
X126466600Y-47091600D03*
D43*
X131066600Y-47091600D03*
%TD*%
D44*
%TO.C,CP4*%
X25368435Y-119655200D03*
D45*
X30368435Y-119655200D03*
%TD*%
D29*
%TO.C,Q3*%
X78231235Y-118486000D03*
D30*
X75691235Y-115946000D03*
X73151235Y-118486000D03*
%TD*%
D28*
%TO.C,J3*%
X174771235Y-139213200D03*
D26*
X174771235Y-137213200D03*
X174771235Y-135213200D03*
X174771235Y-133213200D03*
%TD*%
D28*
%TO.C,J2*%
X132842000Y-139891000D03*
D26*
X132842000Y-137891000D03*
X132842000Y-135891000D03*
%TD*%
D46*
%TO.C,SW1*%
X30963000Y-25121000D03*
X23343000Y-32741000D03*
D47*
X23343000Y-25121000D03*
X27153000Y-28931000D03*
%TD*%
D10*
%TO.C,HS7*%
X182021726Y-76849274D03*
X180855000Y-79666000D03*
X179688274Y-79182726D03*
X179688274Y-76849274D03*
X182505000Y-78016000D03*
X182021726Y-79182726D03*
X180855000Y-76366000D03*
X179205000Y-78016000D03*
D11*
X180855000Y-78016000D03*
%TD*%
D39*
%TO.C,CP1*%
X34405000Y-66141000D03*
D40*
X34405000Y-71141000D03*
%TD*%
D12*
%TO.C,CP2*%
X56805000Y-99589200D03*
D13*
X56805000Y-103089200D03*
%TD*%
D29*
%TO.C,Q12*%
X126555000Y-80847630D03*
D30*
X124015000Y-80847630D03*
X121475000Y-80847630D03*
%TD*%
D32*
%TO.C,J9*%
X87954035Y-159016000D03*
D33*
X87954035Y-161556000D03*
X87954035Y-164096000D03*
%TD*%
D31*
%TO.C,H8*%
X22256235Y-52578000D03*
%TD*%
D48*
%TO.C,SW3*%
X112790000Y-47091600D03*
D43*
X108190000Y-47091600D03*
%TD*%
D12*
%TO.C,C30*%
X76219235Y-151405200D03*
D13*
X76219235Y-153905200D03*
%TD*%
D10*
%TO.C,HS1*%
X45638274Y-122182726D03*
X47971726Y-119849274D03*
X45638274Y-119849274D03*
X46805000Y-122666000D03*
X45155000Y-121016000D03*
X47971726Y-122182726D03*
X48455000Y-121016000D03*
D11*
X46805000Y-121016000D03*
D10*
X46805000Y-119366000D03*
%TD*%
D29*
%TO.C,Q11*%
X111005000Y-80877630D03*
D30*
X108465000Y-80877630D03*
X105925000Y-80877630D03*
%TD*%
D10*
%TO.C,HS3*%
X45155000Y-96191000D03*
X46805000Y-94541000D03*
D11*
X46805000Y-96191000D03*
D10*
X47971726Y-95024274D03*
X45638274Y-97357726D03*
X46805000Y-97841000D03*
X45638274Y-95024274D03*
X48455000Y-96191000D03*
X47971726Y-97357726D03*
%TD*%
D31*
%TO.C,H2*%
X187755000Y-64241000D03*
%TD*%
D29*
%TO.C,Q7*%
X169105000Y-67541000D03*
D30*
X171645000Y-67541000D03*
X174185000Y-67541000D03*
%TD*%
D10*
%TO.C,HS2*%
X115571726Y-119849274D03*
X116055000Y-121016000D03*
X114405000Y-122666000D03*
X113238274Y-119849274D03*
X112755000Y-121016000D03*
X114405000Y-119366000D03*
D11*
X114405000Y-121016000D03*
D10*
X115571726Y-122182726D03*
X113238274Y-122182726D03*
%TD*%
D18*
%TO.C,U12*%
X141715000Y-93652630D03*
D19*
X139805000Y-93652630D03*
X137895000Y-93652630D03*
D49*
X138755000Y-114422630D03*
D21*
X134135000Y-117102630D03*
X136805000Y-117102630D03*
D22*
X134805000Y-115052630D03*
D21*
X135475000Y-113002630D03*
X138005000Y-113392630D03*
X131605000Y-113392630D03*
X130855000Y-115682630D03*
X135475000Y-117102630D03*
D50*
X138755000Y-115682630D03*
D21*
X130855000Y-114422630D03*
X132805000Y-117102630D03*
X131605000Y-116712630D03*
X136805000Y-113002630D03*
X138005000Y-116712630D03*
X132805000Y-113002630D03*
X134135000Y-113002630D03*
X148755000Y-115682630D03*
X145475000Y-113002630D03*
X142805000Y-117102630D03*
X148755000Y-114422630D03*
X144135000Y-117102630D03*
D50*
X140855000Y-114422630D03*
D49*
X140855000Y-115682630D03*
D22*
X144805000Y-115052630D03*
D21*
X146805000Y-117102630D03*
X146805000Y-113002630D03*
X141605000Y-113392630D03*
X145475000Y-117102630D03*
X144135000Y-113002630D03*
X142805000Y-113002630D03*
X141605000Y-116712630D03*
X148005000Y-116712630D03*
X148005000Y-113392630D03*
%TD*%
D18*
%TO.C,U13*%
X154905000Y-114166000D03*
D19*
X156815000Y-114166000D03*
X158725000Y-114166000D03*
D21*
X161145000Y-90716000D03*
D20*
X157865000Y-92136000D03*
D21*
X162485000Y-90716000D03*
D22*
X161815000Y-92766000D03*
D21*
X163815000Y-90716000D03*
X159815000Y-90716000D03*
X162485000Y-94816000D03*
X165015000Y-91106000D03*
X158615000Y-94426000D03*
X159815000Y-94816000D03*
X161145000Y-94816000D03*
X165765000Y-92136000D03*
X158615000Y-91106000D03*
X163815000Y-94816000D03*
D23*
X157865000Y-93396000D03*
D21*
X165765000Y-93396000D03*
X165015000Y-94426000D03*
X148615000Y-94426000D03*
X153815000Y-94816000D03*
X149815000Y-94816000D03*
X153815000Y-90716000D03*
X147865000Y-93396000D03*
X152485000Y-90716000D03*
X151145000Y-94816000D03*
X149815000Y-90716000D03*
X155015000Y-91106000D03*
D23*
X155765000Y-92136000D03*
D21*
X155015000Y-94426000D03*
X152485000Y-94816000D03*
D22*
X151815000Y-92766000D03*
D20*
X155765000Y-93396000D03*
D21*
X147865000Y-92136000D03*
X151145000Y-90716000D03*
X148615000Y-91106000D03*
%TD*%
D51*
%TO.C,J11*%
X157259281Y-53264800D03*
D36*
X157259281Y-17264800D03*
D51*
X39259281Y-53264800D03*
X39259281Y-17264800D03*
D12*
X38259281Y-46659800D03*
D13*
X38259281Y-44119800D03*
X38259281Y-41579800D03*
X38259281Y-39039800D03*
X38259281Y-36499800D03*
X38259281Y-33959800D03*
X38259281Y-31419800D03*
X38259281Y-28879800D03*
X38259281Y-26339800D03*
X38259281Y-23799800D03*
%TD*%
D52*
%TO.C,J1*%
X97905000Y-66641000D03*
D53*
X102985000Y-66641000D03*
X108065000Y-66641000D03*
X113145000Y-66641000D03*
X118225000Y-66641000D03*
X123305000Y-66641000D03*
X128385000Y-66641000D03*
X133465000Y-66641000D03*
%TD*%
D29*
%TO.C,Q1*%
X63705000Y-118411000D03*
D30*
X61165000Y-115871000D03*
X58625000Y-118411000D03*
%TD*%
D31*
%TO.C,H3*%
X187655000Y-164391000D03*
%TD*%
D12*
%TO.C,CP5*%
X81127600Y-143226400D03*
D13*
X81127600Y-146726400D03*
%TD*%
D31*
%TO.C,H5*%
X22256235Y-17272000D03*
%TD*%
%TO.C,H1*%
X22355000Y-64191000D03*
%TD*%
D18*
%TO.C,U3*%
X25430000Y-81741000D03*
D19*
X25430000Y-83651000D03*
X25430000Y-85561000D03*
D54*
X47460000Y-84701000D03*
D21*
X45170000Y-91851000D03*
X44780000Y-87981000D03*
X44780000Y-89321000D03*
X45170000Y-85451000D03*
X47460000Y-92601000D03*
X48490000Y-85451000D03*
X48880000Y-90651000D03*
D55*
X46830000Y-88651000D03*
D21*
X44780000Y-86651000D03*
X48880000Y-89321000D03*
X48490000Y-91851000D03*
X46200000Y-92601000D03*
D56*
X46200000Y-84701000D03*
D21*
X48880000Y-87981000D03*
X48880000Y-86651000D03*
X44780000Y-90651000D03*
X45170000Y-75451000D03*
X44780000Y-76651000D03*
X44780000Y-80651000D03*
X48880000Y-77981000D03*
X46200000Y-74701000D03*
D54*
X46200000Y-82601000D03*
D21*
X48490000Y-75451000D03*
X47460000Y-74701000D03*
X44780000Y-79321000D03*
D55*
X46830000Y-78651000D03*
D21*
X44780000Y-77981000D03*
X48880000Y-80651000D03*
X48880000Y-79321000D03*
X45170000Y-81851000D03*
X48490000Y-81851000D03*
X48880000Y-76651000D03*
D56*
X47460000Y-82601000D03*
%TD*%
D12*
%TO.C,CP8*%
X23181235Y-109316000D03*
D13*
X23181235Y-111816000D03*
%TD*%
D35*
%TO.C,F2*%
X122605000Y-120202630D03*
D57*
X122605000Y-111802630D03*
D36*
X122605000Y-99102630D03*
X122605000Y-90702630D03*
%TD*%
D47*
%TO.C,BT2*%
X147193000Y-21844000D03*
D58*
X147193000Y-31374000D03*
%TD*%
D59*
%TO.C,J12*%
X96977200Y-20777200D03*
D60*
X98977200Y-20777200D03*
X100977200Y-20777200D03*
X102977200Y-20777200D03*
%TD*%
D28*
%TO.C,J6*%
X81835000Y-20685000D03*
D26*
X81835000Y-18685000D03*
X79835000Y-20685000D03*
X79835000Y-18685000D03*
X77835000Y-20685000D03*
X77835000Y-18685000D03*
X75835000Y-20685000D03*
X75835000Y-18685000D03*
X73835000Y-20685000D03*
X73835000Y-18685000D03*
X71835000Y-20685000D03*
X71835000Y-18685000D03*
%TD*%
D61*
%TO.C,BZ1*%
X49784000Y-46393000D03*
X49784000Y-19393000D03*
D62*
X57862600Y-49861800D03*
X57862600Y-54961800D03*
%TD*%
M02*
