%TF.GenerationSoftware,KiCad,Pcbnew,(5.99.0-13134-g7fd669b6a8-dirty)*%
%TF.CreationDate,2021-11-08T01:58:14+00:00*%
%TF.ProjectId,solarpump,736f6c61-7270-4756-9d70-2e6b69636164,1.0*%
%TF.SameCoordinates,Original*%
%TF.FileFunction,Paste,Top*%
%TF.FilePolarity,Positive*%
%FSLAX46Y46*%
G04 Gerber Fmt 4.6, Leading zero omitted, Abs format (unit mm)*
G04 Created by KiCad (PCBNEW (5.99.0-13134-g7fd669b6a8-dirty)) date 2021-11-08 01:58:14*
%MOMM*%
%LPD*%
G01*
G04 APERTURE LIST*
G04 Aperture macros list*
%AMRoundRect*
0 Rectangle with rounded corners*
0 $1 Rounding radius*
0 $2 $3 $4 $5 $6 $7 $8 $9 X,Y pos of 4 corners*
0 Add a 4 corners polygon primitive as box body*
4,1,4,$2,$3,$4,$5,$6,$7,$8,$9,$2,$3,0*
0 Add four circle primitives for the rounded corners*
1,1,$1+$1,$2,$3*
1,1,$1+$1,$4,$5*
1,1,$1+$1,$6,$7*
1,1,$1+$1,$8,$9*
0 Add four rect primitives between the rounded corners*
20,1,$1+$1,$2,$3,$4,$5,0*
20,1,$1+$1,$4,$5,$6,$7,0*
20,1,$1+$1,$6,$7,$8,$9,0*
20,1,$1+$1,$8,$9,$2,$3,0*%
G04 Aperture macros list end*
%ADD10R,5.250000X4.550000*%
%ADD11R,1.100000X4.600000*%
%ADD12RoundRect,0.250000X-0.450000X0.350000X-0.450000X-0.350000X0.450000X-0.350000X0.450000X0.350000X0*%
%ADD13RoundRect,0.150000X0.825000X0.150000X-0.825000X0.150000X-0.825000X-0.150000X0.825000X-0.150000X0*%
%ADD14RoundRect,0.250000X0.337500X0.475000X-0.337500X0.475000X-0.337500X-0.475000X0.337500X-0.475000X0*%
%ADD15RoundRect,0.250000X-0.337500X-0.475000X0.337500X-0.475000X0.337500X0.475000X-0.337500X0.475000X0*%
%ADD16RoundRect,0.150000X0.150000X-0.587500X0.150000X0.587500X-0.150000X0.587500X-0.150000X-0.587500X0*%
%ADD17RoundRect,0.250000X0.450000X-0.350000X0.450000X0.350000X-0.450000X0.350000X-0.450000X-0.350000X0*%
%ADD18R,2.800000X1.500000*%
%ADD19R,1.500000X2.800000*%
%ADD20RoundRect,0.250000X0.350000X0.450000X-0.350000X0.450000X-0.350000X-0.450000X0.350000X-0.450000X0*%
%ADD21RoundRect,0.150000X0.587500X0.150000X-0.587500X0.150000X-0.587500X-0.150000X0.587500X-0.150000X0*%
%ADD22RoundRect,0.250000X-0.350000X-0.450000X0.350000X-0.450000X0.350000X0.450000X-0.350000X0.450000X0*%
%ADD23RoundRect,0.250000X0.475000X-0.337500X0.475000X0.337500X-0.475000X0.337500X-0.475000X-0.337500X0*%
%ADD24RoundRect,0.250000X0.450000X-0.325000X0.450000X0.325000X-0.450000X0.325000X-0.450000X-0.325000X0*%
%ADD25R,2.700000X3.600000*%
%ADD26RoundRect,0.075000X-0.662500X-0.075000X0.662500X-0.075000X0.662500X0.075000X-0.662500X0.075000X0*%
%ADD27RoundRect,0.075000X-0.075000X-0.662500X0.075000X-0.662500X0.075000X0.662500X-0.075000X0.662500X0*%
%ADD28RoundRect,0.150000X-0.150000X0.587500X-0.150000X-0.587500X0.150000X-0.587500X0.150000X0.587500X0*%
%ADD29R,3.600000X2.700000*%
%ADD30RoundRect,0.250000X0.412500X1.100000X-0.412500X1.100000X-0.412500X-1.100000X0.412500X-1.100000X0*%
%ADD31RoundRect,0.250000X-0.475000X0.337500X-0.475000X-0.337500X0.475000X-0.337500X0.475000X0.337500X0*%
%ADD32RoundRect,0.250000X-1.100000X0.412500X-1.100000X-0.412500X1.100000X-0.412500X1.100000X0.412500X0*%
%ADD33RoundRect,0.150000X0.875000X0.150000X-0.875000X0.150000X-0.875000X-0.150000X0.875000X-0.150000X0*%
%ADD34RoundRect,0.250000X1.100000X-0.412500X1.100000X0.412500X-1.100000X0.412500X-1.100000X-0.412500X0*%
%ADD35RoundRect,0.150000X-0.825000X-0.150000X0.825000X-0.150000X0.825000X0.150000X-0.825000X0.150000X0*%
G04 APERTURE END LIST*
D10*
%TO.C,U10*%
X80375000Y-153600000D03*
X74825000Y-153600000D03*
X74825000Y-148750000D03*
X80375000Y-148750000D03*
D11*
X81000000Y-142025000D03*
X79300000Y-142025000D03*
X77600000Y-142025000D03*
X75900000Y-142025000D03*
X74200000Y-142025000D03*
%TD*%
D10*
%TO.C,U9*%
X101075000Y-153550000D03*
X95525000Y-153550000D03*
X95525000Y-148700000D03*
X101075000Y-148700000D03*
D11*
X101700000Y-141975000D03*
X100000000Y-141975000D03*
X98300000Y-141975000D03*
X96600000Y-141975000D03*
X94900000Y-141975000D03*
%TD*%
D12*
%TO.C,R17*%
X116550000Y-142700000D03*
X116550000Y-144700000D03*
%TD*%
D13*
%TO.C,U12*%
X194775000Y-67165000D03*
X194775000Y-65895000D03*
X194775000Y-64625000D03*
X194775000Y-63355000D03*
X189825000Y-63355000D03*
X189825000Y-64625000D03*
X189825000Y-65895000D03*
X189825000Y-67165000D03*
%TD*%
D14*
%TO.C,C12*%
X78637500Y-93200000D03*
X76562500Y-93200000D03*
%TD*%
%TO.C,C29*%
X157090155Y-126043070D03*
X155015155Y-126043070D03*
%TD*%
D15*
%TO.C,C22*%
X71562500Y-108900000D03*
X73637500Y-108900000D03*
%TD*%
D16*
%TO.C,Q4*%
X64250000Y-90562500D03*
X66150000Y-90562500D03*
X65200000Y-88687500D03*
%TD*%
D15*
%TO.C,C2*%
X146715155Y-142443070D03*
X148790155Y-142443070D03*
%TD*%
D17*
%TO.C,R9*%
X116600000Y-153700000D03*
X116600000Y-151700000D03*
%TD*%
D12*
%TO.C,R33*%
X104701235Y-25318945D03*
X104701235Y-27318945D03*
%TD*%
D18*
%TO.C,MCU1*%
X197350000Y-145350000D03*
X197350000Y-143350000D03*
X197350000Y-141350000D03*
X197350000Y-139350000D03*
X197350000Y-137350000D03*
X197350000Y-135350000D03*
X197350000Y-133350000D03*
X197350000Y-131350000D03*
X197350000Y-129350000D03*
X197350000Y-127350000D03*
D19*
X194700000Y-124700000D03*
X192700000Y-124700000D03*
X190700000Y-124700000D03*
X188700000Y-124700000D03*
X186700000Y-124700000D03*
X184700000Y-124700000D03*
X182700000Y-124700000D03*
X180700000Y-124700000D03*
X178700000Y-124700000D03*
X176700000Y-124700000D03*
D18*
X174050000Y-127350000D03*
X174050000Y-129350000D03*
X174050000Y-131350000D03*
X174050000Y-133350000D03*
X174050000Y-135350000D03*
X174050000Y-137350000D03*
X174050000Y-139350000D03*
X174050000Y-141350000D03*
X174050000Y-143350000D03*
X174050000Y-145350000D03*
D19*
X176700000Y-148000000D03*
X178700000Y-148000000D03*
X180700000Y-148000000D03*
X182700000Y-148000000D03*
X184700000Y-148000000D03*
X186700000Y-148000000D03*
X188700000Y-148000000D03*
X190700000Y-148000000D03*
X192700000Y-148000000D03*
X194700000Y-148000000D03*
%TD*%
D20*
%TO.C,R8*%
X121100000Y-91000000D03*
X119100000Y-91000000D03*
%TD*%
D21*
%TO.C,Q6*%
X66636688Y-40750222D03*
X66636688Y-38850222D03*
X64761688Y-39800222D03*
%TD*%
D22*
%TO.C,R24*%
X135150000Y-132868070D03*
X137150000Y-132868070D03*
%TD*%
%TO.C,R20*%
X169850000Y-110850000D03*
X171850000Y-110850000D03*
%TD*%
D15*
%TO.C,C34*%
X191062500Y-105975000D03*
X193137500Y-105975000D03*
%TD*%
D23*
%TO.C,C30*%
X157117175Y-142074130D03*
X157117175Y-139999130D03*
%TD*%
D20*
%TO.C,R2*%
X133250000Y-139200000D03*
X131250000Y-139200000D03*
%TD*%
D22*
%TO.C,R18*%
X157150000Y-22150000D03*
X159150000Y-22150000D03*
%TD*%
D14*
%TO.C,C31*%
X137187500Y-129600000D03*
X135112500Y-129600000D03*
%TD*%
D23*
%TO.C,C7*%
X150700000Y-146237500D03*
X150700000Y-144162500D03*
%TD*%
D15*
%TO.C,C3*%
X146715155Y-140443070D03*
X148790155Y-140443070D03*
%TD*%
D20*
%TO.C,R22*%
X174650000Y-68443940D03*
X172650000Y-68443940D03*
%TD*%
D23*
%TO.C,C36*%
X186250000Y-67135000D03*
X186250000Y-65060000D03*
%TD*%
%TO.C,C25*%
X141752655Y-142580570D03*
X141752655Y-140505570D03*
%TD*%
D14*
%TO.C,C33*%
X197137500Y-105975000D03*
X195062500Y-105975000D03*
%TD*%
%TO.C,C32*%
X133287500Y-129600000D03*
X131212500Y-129600000D03*
%TD*%
D15*
%TO.C,C16*%
X173972500Y-80011630D03*
X176047500Y-80011630D03*
%TD*%
D22*
%TO.C,R19*%
X165850000Y-110850000D03*
X167850000Y-110850000D03*
%TD*%
D20*
%TO.C,R15*%
X143600000Y-124500000D03*
X141600000Y-124500000D03*
%TD*%
%TO.C,R25*%
X182300000Y-69400000D03*
X180300000Y-69400000D03*
%TD*%
D22*
%TO.C,R23*%
X131250000Y-132868070D03*
X133250000Y-132868070D03*
%TD*%
D24*
%TO.C,D3*%
X80800000Y-96775000D03*
X80800000Y-94725000D03*
%TD*%
D12*
%TO.C,R34*%
X107151235Y-25318945D03*
X107151235Y-27318945D03*
%TD*%
D15*
%TO.C,C24*%
X88662500Y-126400000D03*
X90737500Y-126400000D03*
%TD*%
D14*
%TO.C,C6*%
X151687500Y-123350000D03*
X149612500Y-123350000D03*
%TD*%
D22*
%TO.C,R11*%
X64175000Y-93550000D03*
X66175000Y-93550000D03*
%TD*%
D25*
%TO.C,L4*%
X81800000Y-131400000D03*
X73500000Y-131400000D03*
%TD*%
D17*
%TO.C,R16*%
X139600000Y-124450000D03*
X139600000Y-122450000D03*
%TD*%
D15*
%TO.C,C27*%
X145479675Y-120550000D03*
X147554675Y-120550000D03*
%TD*%
D17*
%TO.C,R10*%
X116550000Y-148900000D03*
X116550000Y-146900000D03*
%TD*%
D22*
%TO.C,R6*%
X76600000Y-97800000D03*
X78600000Y-97800000D03*
%TD*%
D23*
%TO.C,C1*%
X143817175Y-142580570D03*
X143817175Y-140505570D03*
%TD*%
D20*
%TO.C,R21*%
X136112175Y-69499130D03*
X134112175Y-69499130D03*
%TD*%
D15*
%TO.C,C11*%
X106562500Y-90300000D03*
X108637500Y-90300000D03*
%TD*%
D20*
%TO.C,R32*%
X170850000Y-68443940D03*
X168850000Y-68443940D03*
%TD*%
%TO.C,R7*%
X129950000Y-97100000D03*
X127950000Y-97100000D03*
%TD*%
D26*
%TO.C,U2*%
X143190155Y-128618070D03*
X143190155Y-129118070D03*
X143190155Y-129618070D03*
X143190155Y-130118070D03*
X143190155Y-130618070D03*
X143190155Y-131118070D03*
X143190155Y-131618070D03*
X143190155Y-132118070D03*
X143190155Y-132618070D03*
X143190155Y-133118070D03*
X143190155Y-133618070D03*
X143190155Y-134118070D03*
X143190155Y-134618070D03*
X143190155Y-135118070D03*
X143190155Y-135618070D03*
X143190155Y-136118070D03*
D27*
X145102655Y-138030570D03*
X145602655Y-138030570D03*
X146102655Y-138030570D03*
X146602655Y-138030570D03*
X147102655Y-138030570D03*
X147602655Y-138030570D03*
X148102655Y-138030570D03*
X148602655Y-138030570D03*
X149102655Y-138030570D03*
X149602655Y-138030570D03*
X150102655Y-138030570D03*
X150602655Y-138030570D03*
X151102655Y-138030570D03*
X151602655Y-138030570D03*
X152102655Y-138030570D03*
X152602655Y-138030570D03*
D26*
X154515155Y-136118070D03*
X154515155Y-135618070D03*
X154515155Y-135118070D03*
X154515155Y-134618070D03*
X154515155Y-134118070D03*
X154515155Y-133618070D03*
X154515155Y-133118070D03*
X154515155Y-132618070D03*
X154515155Y-132118070D03*
X154515155Y-131618070D03*
X154515155Y-131118070D03*
X154515155Y-130618070D03*
X154515155Y-130118070D03*
X154515155Y-129618070D03*
X154515155Y-129118070D03*
X154515155Y-128618070D03*
D27*
X152602655Y-126705570D03*
X152102655Y-126705570D03*
X151602655Y-126705570D03*
X151102655Y-126705570D03*
X150602655Y-126705570D03*
X150102655Y-126705570D03*
X149602655Y-126705570D03*
X149102655Y-126705570D03*
X148602655Y-126705570D03*
X148102655Y-126705570D03*
X147602655Y-126705570D03*
X147102655Y-126705570D03*
X146602655Y-126705570D03*
X146102655Y-126705570D03*
X145602655Y-126705570D03*
X145102655Y-126705570D03*
%TD*%
D28*
%TO.C,Q8*%
X174600000Y-70462500D03*
X172700000Y-70462500D03*
X173650000Y-72337500D03*
%TD*%
D29*
%TO.C,L2*%
X73950000Y-120500000D03*
X73950000Y-112200000D03*
%TD*%
D14*
%TO.C,C18*%
X180047500Y-80011630D03*
X177972500Y-80011630D03*
%TD*%
D30*
%TO.C,C35*%
X94112500Y-85900000D03*
X90987500Y-85900000D03*
%TD*%
D23*
%TO.C,C9*%
X63375000Y-76437500D03*
X63375000Y-74362500D03*
%TD*%
D16*
%TO.C,Q5*%
X119550000Y-144637500D03*
X121450000Y-144637500D03*
X120500000Y-142762500D03*
%TD*%
D22*
%TO.C,R35*%
X157200000Y-28650000D03*
X159200000Y-28650000D03*
%TD*%
%TO.C,R28*%
X180875000Y-65525000D03*
X182875000Y-65525000D03*
%TD*%
D28*
%TO.C,Q7*%
X136167175Y-71561630D03*
X134267175Y-71561630D03*
X135217175Y-73436630D03*
%TD*%
D17*
%TO.C,R31*%
X138212175Y-71399130D03*
X138212175Y-69399130D03*
%TD*%
D31*
%TO.C,C10*%
X63375000Y-70362500D03*
X63375000Y-72437500D03*
%TD*%
D17*
%TO.C,R29*%
X132412175Y-73499130D03*
X132412175Y-71499130D03*
%TD*%
D22*
%TO.C,R12*%
X115200000Y-88950000D03*
X117200000Y-88950000D03*
%TD*%
D20*
%TO.C,R1*%
X137150000Y-139200000D03*
X135150000Y-139200000D03*
%TD*%
D14*
%TO.C,C15*%
X137187500Y-136150000D03*
X135112500Y-136150000D03*
%TD*%
D32*
%TO.C,C37*%
X200375000Y-102387500D03*
X200375000Y-105512500D03*
%TD*%
D20*
%TO.C,R27*%
X206300000Y-61850000D03*
X204300000Y-61850000D03*
%TD*%
D14*
%TO.C,C4*%
X153090155Y-142243070D03*
X151015155Y-142243070D03*
%TD*%
D22*
%TO.C,R36*%
X157150000Y-25400000D03*
X159150000Y-25400000D03*
%TD*%
D17*
%TO.C,R14*%
X69449188Y-40800222D03*
X69449188Y-38800222D03*
%TD*%
D22*
%TO.C,R5*%
X78600000Y-95500000D03*
X76600000Y-95500000D03*
%TD*%
D20*
%TO.C,R37*%
X69899188Y-21300222D03*
X67899188Y-21300222D03*
%TD*%
D17*
%TO.C,R30*%
X170750000Y-72400000D03*
X170750000Y-70400000D03*
%TD*%
D31*
%TO.C,C13*%
X77050000Y-88862500D03*
X77050000Y-90937500D03*
%TD*%
D14*
%TO.C,C44*%
X86787500Y-126400000D03*
X84712500Y-126400000D03*
%TD*%
D20*
%TO.C,R3*%
X104500000Y-90350000D03*
X102500000Y-90350000D03*
%TD*%
D22*
%TO.C,R13*%
X119100000Y-88950000D03*
X121100000Y-88950000D03*
%TD*%
D23*
%TO.C,C5*%
X155017175Y-142074130D03*
X155017175Y-139999130D03*
%TD*%
D15*
%TO.C,C23*%
X106012500Y-126500000D03*
X108087500Y-126500000D03*
%TD*%
D32*
%TO.C,C43*%
X203900000Y-102337500D03*
X203900000Y-105462500D03*
%TD*%
D33*
%TO.C,U4*%
X90249188Y-38023945D03*
X90249188Y-36753945D03*
X90249188Y-35483945D03*
X90249188Y-34213945D03*
X90249188Y-32943945D03*
X90249188Y-31673945D03*
X90249188Y-30403945D03*
X90249188Y-29133945D03*
X90249188Y-27863945D03*
X90249188Y-26593945D03*
X90249188Y-25323945D03*
X90249188Y-24053945D03*
X90249188Y-22783945D03*
X90249188Y-21513945D03*
X80949188Y-21513945D03*
X80949188Y-22783945D03*
X80949188Y-24053945D03*
X80949188Y-25323945D03*
X80949188Y-26593945D03*
X80949188Y-27863945D03*
X80949188Y-29133945D03*
X80949188Y-30403945D03*
X80949188Y-31673945D03*
X80949188Y-32943945D03*
X80949188Y-34213945D03*
X80949188Y-35483945D03*
X80949188Y-36753945D03*
X80949188Y-38023945D03*
%TD*%
D14*
%TO.C,C8*%
X133287500Y-136150000D03*
X131212500Y-136150000D03*
%TD*%
D34*
%TO.C,C42*%
X203600000Y-90712500D03*
X203600000Y-87587500D03*
%TD*%
D15*
%TO.C,C26*%
X145512500Y-123350000D03*
X147587500Y-123350000D03*
%TD*%
D35*
%TO.C,U1*%
X103225000Y-93395000D03*
X103225000Y-94665000D03*
X103225000Y-95935000D03*
X103225000Y-97205000D03*
X108175000Y-97205000D03*
X108175000Y-95935000D03*
X108175000Y-94665000D03*
X108175000Y-93395000D03*
%TD*%
D14*
%TO.C,C28*%
X157090155Y-123943070D03*
X155015155Y-123943070D03*
%TD*%
D15*
%TO.C,C17*%
X137297175Y-104911630D03*
X139372175Y-104911630D03*
%TD*%
D25*
%TO.C,L3*%
X102000000Y-131350000D03*
X93700000Y-131350000D03*
%TD*%
D14*
%TO.C,C14*%
X143422175Y-104911630D03*
X141347175Y-104911630D03*
%TD*%
M02*
