M48
; DRILL file {KiCad (5.99.0-13134-g7fd669b6a8-dirty)} date Mon 08 Nov 2021 01:58:21 GMT
; FORMAT={-:-/ absolute / inch / decimal}
; #@! TF.CreationDate,2021-11-08T01:58:21+00:00
; #@! TF.GenerationSoftware,Kicad,Pcbnew,(5.99.0-13134-g7fd669b6a8-dirty)
; #@! TF.FileFunction,Plated,1,2,PTH
FMAT,2
INCH
; #@! TA.AperFunction,Plated,PTH,ViaDrill
T1C0.0157
; #@! TA.AperFunction,Plated,PTH,ComponentDrill
T2C0.0157
; #@! TA.AperFunction,Plated,PTH,ComponentDrill
T3C0.0197
; #@! TA.AperFunction,Plated,PTH,ComponentDrill
T4C0.0276
; #@! TA.AperFunction,Plated,PTH,ComponentDrill
T5C0.0300
; #@! TA.AperFunction,Plated,PTH,ComponentDrill
T6C0.0315
; #@! TA.AperFunction,Plated,PTH,ComponentDrill
T7C0.0354
; #@! TA.AperFunction,Plated,PTH,ComponentDrill
T8C0.0394
; #@! TA.AperFunction,Plated,PTH,ComponentDrill
T9C0.0402
; #@! TA.AperFunction,Plated,PTH,ComponentDrill
T10C0.0433
; #@! TA.AperFunction,Plated,PTH,ComponentDrill
T11C0.0472
; #@! TA.AperFunction,Plated,PTH,ComponentDrill
T12C0.0512
; #@! TA.AperFunction,Plated,PTH,ViaDrill
T13C0.0591
; #@! TA.AperFunction,Plated,PTH,ComponentDrill
T14C0.0591
; #@! TA.AperFunction,Plated,PTH,ComponentDrill
T15C0.0630
; #@! TA.AperFunction,Plated,PTH,ViaDrill
T16C0.0787
; #@! TA.AperFunction,Plated,PTH,ComponentDrill
T17C0.0787
; #@! TA.AperFunction,Plated,PTH,ComponentDrill
T18C0.0866
; #@! TA.AperFunction,Plated,PTH,ComponentDrill
T19C0.1535
%
G90
G05
T1
X2.5846Y-6.1969
X2.6083Y-3.6066
X2.6846Y-6.1969
X2.7846Y-6.1969
X2.8846Y-6.1969
X2.9763Y-1.565
X2.9846Y-6.1969
X3.0749Y-0.8964
X3.0846Y-6.1969
X3.1004Y-0.9968
X3.1004Y-1.0716
X3.1004Y-1.4653
X3.1004Y-1.5283
X3.1846Y-6.1969
X3.187Y-3.872
X3.2717Y-4.5217
X3.2846Y-6.1969
X3.3228Y-4.9232
X3.3846Y-6.1969
X3.4846Y-6.1969
X3.5728Y-4.9232
X3.5846Y-6.1969
X3.6417Y-1.6162
X3.6846Y-6.1969
X3.689Y-1.0598
X3.689Y-1.6464
X3.7382Y-1.6779
X3.7795Y-4.4449
X3.7846Y-6.1969
X3.8543Y-4.6358
X3.88Y-1.0637
X3.8846Y-6.1969
X3.9803Y-3.5768
X3.9846Y-6.1969
X4.0Y-3.8445
X4.0787Y-4.1693
X4.0846Y-6.1969
X4.1319Y-3.8701
X4.1358Y-3.7402
X4.1846Y-6.1969
X4.185Y-4.5138
X4.2846Y-6.1969
X4.2874Y-3.626
X4.3846Y-6.1969
X4.4252Y-3.6398
X4.4252Y-3.748
X4.4607Y-1.5854
X4.4846Y-6.1969
X4.5138Y-1.5559
X4.5532Y-1.5263
X4.5846Y-3.8406
X4.5866Y-3.5925
X4.6871Y-1.5854
X4.6896Y-3.3905
X4.7421Y-3.6555
X4.7618Y-5.7283
X4.8209Y-3.4606
X4.8327Y-3.3406
X4.8406Y-4.8701
X4.8445Y-1.2783
X4.9232Y-3.6535
X4.9665Y-4.3957
X4.9902Y-3.9272
X5.0039Y-4.6339
X5.0236Y-5.4488
X5.0787Y-5.872
X5.1299Y-5.9154
X5.1398Y-4.4488
X5.1654Y-5.189
X5.1713Y-4.2736
X5.1988Y-6.0039
X5.1988Y-6.0925
X5.2205Y-4.4016
X5.2461Y-1.9882
X5.2579Y-5.0256
X5.2579Y-5.2953
X5.2677Y-3.3563
X5.2815Y-4.6339
X5.3051Y-4.7067
X5.3169Y-5.6594
X5.35Y-5.8216
X5.3504Y-5.9272
X5.3543Y-4.9429
X5.3622Y-4.6693
X5.378Y-2.6787
X5.3976Y-4.8543
X5.407Y-2.9119
X5.4114Y-4.6339
X5.4232Y-6.0039
X5.4291Y-1.9882
X5.4291Y-4.3287
X5.4414Y-2.8582
X5.4514Y-5.2517
X5.4652Y-5.3157
X5.4797Y-5.7212
X5.5006Y-5.2074
X5.5183Y-5.3157
X5.5295Y-2.9961
X5.5295Y-3.2874
X5.5295Y-3.5276
X5.5315Y-5.0571
X5.5321Y-5.122
X5.5321Y-5.1661
X5.5321Y-5.8216
X5.5394Y-4.3287
X5.5617Y-5.2416
X5.5748Y-4.6339
X5.5866Y-5.0217
X5.6187Y-5.6582
X5.626Y-1.9882
X5.7028Y-4.8012
X5.7224Y-4.6339
X5.7323Y-4.0039
X5.7441Y-5.0433
X5.8228Y-1.9882
X5.8307Y-6.0039
X5.8563Y-4.9291
X5.8799Y-3.5236
X5.8799Y-5.7579
X5.9081Y-5.8216
X5.9232Y-4.9291
X5.9824Y-5.0588
X6.0138Y-5.878
X6.0197Y-1.9882
X6.0218Y-5.3403
X6.0262Y-4.8216
X6.063Y-4.1614
X6.0669Y-5.8209
X6.103Y-5.0243
X6.1424Y-5.6274
X6.1457Y-5.2717
X6.2165Y-1.9882
X6.225Y-5.0086
X6.2264Y-2.9764
X6.2618Y-5.2992
X6.2638Y-5.2441
X6.2711Y-5.1831
X6.2717Y-5.0086
X6.2717Y-5.1181
X6.2791Y-5.8216
X6.4114Y-5.1831
X6.4134Y-1.9882
X6.4488Y-5.3012
X6.4547Y-5.9173
X6.4606Y-3.5827
X6.4816Y-4.4118
X6.5315Y-3.1654
X6.5433Y-3.4114
X6.6102Y-1.9882
X6.6142Y-2.8681
X6.6181Y-3.1496
X6.6181Y-5.8406
X6.622Y-3.5925
X6.624Y-2.624
X6.6339Y-4.8327
X6.6476Y-4.4173
X6.6476Y-5.3091
X6.6575Y-2.7717
X6.685Y-6.1654
X6.7047Y-4.8228
X6.7224Y-5.8406
X6.7264Y-5.937
X6.7303Y-5.3287
X6.7579Y-5.4075
X6.7618Y-2.7301
X6.7953Y-5.8189
X6.8071Y-1.9882
X6.8091Y-4.3661
X6.8287Y-6.0157
X6.8785Y-4.8708
X6.9016Y-2.8722
X6.9016Y-4.3642
X6.9303Y-6.0807
X6.935Y-2.8051
X6.9724Y-5.1476
X7.0911Y-5.4456
X7.1142Y-4.8287
X7.1299Y-2.8484
X7.1791Y-2.7992
X7.1929Y-4.8307
X7.2343Y-2.7756
X7.2776Y-2.8484
X7.4055Y-2.3268
X7.4278Y-5.7054
X7.435Y-3.5295
X7.4888Y-5.1621
X7.4888Y-5.4456
X7.5354Y-2.5236
X7.6457Y-2.7953
X7.7382Y-3.5709
X7.755Y-2.4394
X7.7644Y-4.8708
X7.7668Y-2.4979
X7.7717Y-4.7382
X7.8746Y-5.2815
X7.8746Y-5.3602
X7.8746Y-5.435
X7.8819Y-3.0295
X7.8898Y-5.1299
X7.8982Y-5.6188
X7.9151Y-5.4857
X7.973Y-5.8157
X7.977Y-5.5361
X8.0335Y-2.3524
X8.2224Y-5.9508
X8.2303Y-6.1535
X8.2913Y-2.374
X8.3666Y-2.9345
X8.3898Y-5.7224
X8.3917Y-3.3051
X8.4478Y-2.7077
X8.4764Y-2.0335
X8.4783Y-2.5
X8.5079Y-5.1437
X8.5827Y-3.9587
X8.6161Y-2.627
X8.6614Y-5.7264
X8.9823Y-2.8406
T2
X3.1949Y-3.372
X3.1978Y-4.3494
X3.2139Y-3.3261
X3.2139Y-3.418
X3.2169Y-4.3035
X3.2169Y-4.3953
X3.2598Y-3.3071
X3.2598Y-3.437
X3.2628Y-4.2844
X3.2628Y-4.4144
X3.3058Y-3.3261
X3.3058Y-3.418
X3.3087Y-4.3035
X3.3087Y-4.3953
X3.3248Y-3.372
X3.3278Y-4.3494
X4.1663Y-4.3494
X4.1854Y-4.3035
X4.1854Y-4.3953
X4.2313Y-4.2844
X4.2313Y-4.4144
X4.2772Y-4.3035
X4.2772Y-4.3953
X4.2963Y-4.3494
X5.0768Y-2.5984
X5.0958Y-2.5525
X5.0958Y-2.6444
X5.1417Y-2.5335
X5.1417Y-2.6634
X5.1877Y-2.5525
X5.1877Y-2.6444
X5.2067Y-2.5984
X5.9911Y-4.3494
X6.0102Y-4.3035
X6.0102Y-4.3953
X6.0561Y-4.2844
X6.0561Y-4.4144
X6.102Y-4.3035
X6.102Y-4.3953
X6.1211Y-4.3494
X6.876Y-2.0866
X6.895Y-2.0407
X6.895Y-2.1325
X6.9409Y-2.0217
X6.9409Y-2.1516
X6.9869Y-2.0407
X6.9869Y-2.1325
X7.0059Y-2.0866
X8.5197Y-2.0866
X8.5197Y-2.6565
X8.5387Y-2.0407
X8.5387Y-2.1325
X8.5387Y-2.6106
X8.5387Y-2.7024
X8.5846Y-2.0217
X8.5846Y-2.1516
X8.5846Y-2.5915
X8.5846Y-2.7215
X8.6306Y-2.0407
X8.6306Y-2.1325
X8.6306Y-2.6106
X8.6306Y-2.7024
X8.6496Y-2.0866
X8.6496Y-2.6565
T3
X3.373Y-2.6224
X3.373Y-2.6748
X3.373Y-2.7276
X3.373Y-2.7799
X3.373Y-3.0161
X3.373Y-3.0685
X3.373Y-3.1213
X3.373Y-3.1736
X3.3884Y-2.5752
X3.3884Y-2.8272
X3.3884Y-2.9689
X3.3884Y-3.2209
X3.4289Y-2.5457
X3.4289Y-2.8567
X3.4289Y-2.9394
X3.4289Y-3.2504
X3.4785Y-2.5457
X3.4785Y-2.8567
X3.4785Y-2.9394
X3.4785Y-3.2504
X3.5191Y-2.5752
X3.5191Y-2.8272
X3.5191Y-2.9689
X3.5191Y-3.2209
X3.5344Y-2.6224
X3.5344Y-2.6748
X3.5344Y-2.7276
X3.5344Y-2.7799
X3.5344Y-3.0161
X3.5344Y-3.0685
X3.5344Y-3.1213
X3.5344Y-3.1736
X5.175Y-3.1381
X5.175Y-3.1877
X5.2045Y-3.0975
X5.2045Y-3.2282
X5.2518Y-3.0822
X5.2518Y-3.2436
X5.3041Y-3.0822
X5.3041Y-3.2436
X5.3569Y-3.0822
X5.3569Y-3.2436
X5.4092Y-3.0822
X5.4092Y-3.2436
X5.4565Y-3.0975
X5.4565Y-3.2282
X5.486Y-3.1381
X5.486Y-3.1877
X5.5687Y-3.1381
X5.5687Y-3.1877
X5.5982Y-3.0975
X5.5982Y-3.2282
X5.6455Y-3.0822
X5.6455Y-3.2436
X5.6978Y-3.0822
X5.6978Y-3.2436
X5.7506Y-3.0822
X5.7506Y-3.2436
X5.8029Y-3.0822
X5.8029Y-3.2436
X5.8502Y-3.0975
X5.8502Y-3.2282
X5.8797Y-3.1381
X5.8797Y-3.1877
X6.6161Y-4.0898
X6.6161Y-4.1394
X6.6457Y-4.0493
X6.6457Y-4.18
X6.6929Y-4.0339
X6.6929Y-4.1953
X6.7453Y-4.0339
X6.7453Y-4.1953
X6.798Y-4.0339
X6.798Y-4.1953
X6.8504Y-4.0339
X6.8504Y-4.1953
X6.8976Y-4.0493
X6.8976Y-4.18
X6.9272Y-4.0898
X6.9272Y-4.1394
X7.0098Y-4.0898
X7.0098Y-4.1394
X7.0394Y-4.0493
X7.0394Y-4.18
X7.0866Y-4.0339
X7.0866Y-4.1953
X7.139Y-4.0339
X7.139Y-4.1953
X7.1917Y-4.0339
X7.1917Y-4.1953
X7.2441Y-4.0339
X7.2441Y-4.1953
X7.2858Y-3.2124
X7.2858Y-3.262
X7.2913Y-4.0493
X7.2913Y-4.18
X7.3154Y-3.1719
X7.3154Y-3.3026
X7.3209Y-4.0898
X7.3209Y-4.1394
X7.3626Y-3.1565
X7.3626Y-3.3179
X7.415Y-3.1565
X7.415Y-3.3179
X7.4677Y-3.1565
X7.4677Y-3.3179
X7.5201Y-3.1565
X7.5201Y-3.3179
X7.5673Y-3.1719
X7.5673Y-3.3026
X7.5969Y-3.2124
X7.5969Y-3.262
X7.6795Y-3.2124
X7.6795Y-3.262
X7.7091Y-3.1719
X7.7091Y-3.3026
X7.7563Y-3.1565
X7.7563Y-3.3179
X7.8087Y-3.1565
X7.8087Y-3.3179
X7.8614Y-3.1565
X7.8614Y-3.3179
X7.9138Y-3.1565
X7.9138Y-3.3179
X7.961Y-3.1719
X7.961Y-3.3026
X7.9906Y-3.2124
X7.9906Y-3.262
T4
X6.4848Y-5.4121
X6.4848Y-5.542
X6.4848Y-5.67
X6.6226Y-5.4121
X6.6226Y-5.542
X6.6226Y-5.67
T5
X2.3485Y-1.0717
X2.3485Y-1.2724
T6
X2.3201Y-4.4343
X2.3201Y-4.5343
X2.3201Y-4.6343
X2.3201Y-4.7343
X2.3917Y-5.2106
X2.4528Y-5.5236
X2.4528Y-5.7205
X2.4902Y-5.2106
X2.5217Y-4.0276
X2.5217Y-4.2244
X2.6112Y-2.8228
X2.6112Y-2.898
X2.6112Y-2.9732
X2.6201Y-4.4343
X2.6201Y-4.5343
X2.6201Y-4.6343
X2.6201Y-4.7343
X2.876Y-1.4862
X2.876Y-1.6831
X3.3543Y-4.6102
X3.3543Y-4.8071
X3.439Y-5.5177
X3.439Y-5.6161
X3.6417Y-3.6654
X3.8185Y-0.8636
X3.8185Y-1.4636
X3.8386Y-3.6654
X3.9185Y-0.8636
X3.9185Y-1.4636
X4.0185Y-0.8636
X4.0185Y-1.4636
X4.1185Y-0.8636
X4.1185Y-1.4636
X4.2185Y-0.8636
X4.2185Y-1.4636
X4.2343Y-5.5217
X4.2343Y-5.6201
X4.3185Y-0.8636
X4.3185Y-1.4636
X4.4185Y-0.8636
X4.4185Y-1.4636
X4.5185Y-0.8636
X4.5185Y-1.4636
X4.5531Y-4.9409
X4.5531Y-5.1378
X4.6007Y-1.0913
X4.6007Y-1.1701
X4.6185Y-0.8636
X4.6185Y-1.4636
X4.6794Y-1.0913
X4.6794Y-1.1701
X4.7185Y-0.8636
X4.7185Y-1.4636
X4.7581Y-1.0913
X4.7581Y-1.1701
X4.8185Y-0.8636
X4.8185Y-1.4636
X4.8369Y-1.0913
X4.8369Y-1.1701
X4.9156Y-1.0913
X4.9156Y-1.1701
X4.9185Y-0.8636
X4.9185Y-1.4636
X4.9944Y-1.0913
X4.9944Y-1.1701
X5.0185Y-0.8636
X5.0185Y-1.4636
X5.1185Y-0.8636
X5.1185Y-1.4636
X5.2185Y-0.8636
X5.2185Y-1.4636
X5.3185Y-0.8636
X5.3185Y-1.4636
X5.4185Y-0.8636
X5.4185Y-1.4636
X5.4522Y-4.0054
X5.5185Y-0.8636
X5.5185Y-1.4636
X5.5273Y-4.0054
X5.6025Y-4.0054
X5.6185Y-0.8636
X5.6185Y-1.4636
X5.7185Y-0.8636
X5.7185Y-1.4636
X6.3346Y-5.4369
X6.3346Y-5.5369
X6.3346Y-5.6369
X6.3346Y-5.7369
X6.3977Y-1.5322
X6.3977Y-1.7291
X6.5985Y-1.5322
X6.5985Y-1.7291
X6.7126Y-4.935
X6.7126Y-5.0138
X6.7126Y-5.0925
X6.7993Y-1.5322
X6.7993Y-1.7291
X6.878Y-5.0138
X6.878Y-5.0925
X6.878Y-5.1713
X6.878Y-5.25
X6.878Y-5.3287
X6.878Y-5.4075
X6.878Y-5.4862
X6.878Y-5.565
X6.878Y-5.6437
X6.878Y-5.7224
X6.8933Y-3.2721
X6.9567Y-4.935
X6.9567Y-5.8012
X6.9685Y-3.2721
X7.0354Y-4.935
X7.0354Y-5.8012
X7.0437Y-3.2721
X7.1142Y-4.935
X7.1142Y-5.8012
X7.1929Y-4.935
X7.1929Y-5.8012
X7.2717Y-4.935
X7.2717Y-5.8012
X7.3504Y-4.935
X7.3504Y-5.8012
X7.4291Y-4.935
X7.4291Y-5.8012
X7.5079Y-4.935
X7.5079Y-5.8012
X7.563Y-4.0797
X7.5866Y-4.935
X7.5866Y-5.8012
X7.6382Y-4.0797
X7.6654Y-4.935
X7.6654Y-5.8012
X7.7134Y-4.0797
X7.7441Y-5.0138
X7.7441Y-5.0925
X7.7441Y-5.1713
X7.7441Y-5.25
X7.7441Y-5.3287
X7.7441Y-5.4075
X7.7441Y-5.4862
X7.7441Y-5.565
X7.7441Y-5.6437
X7.7441Y-5.7224
X8.0098Y-4.5413
X8.0715Y-5.296
X8.0715Y-5.3747
X8.0715Y-5.4535
X8.0715Y-5.5322
X8.0715Y-5.6109
X8.0715Y-5.6897
X8.1502Y-5.296
X8.1502Y-5.3747
X8.1502Y-5.4535
X8.1502Y-5.5322
X8.1502Y-5.6109
X8.1502Y-5.6897
X8.2067Y-4.5413
X8.3878Y-4.8287
X8.3878Y-4.9075
X8.3878Y-4.9862
X8.3878Y-5.065
T7
X8.6516Y-5.061
X8.6516Y-5.1594
X8.6516Y-5.2382
X8.6516Y-5.3366
T8
X5.0354Y-4.8563
X5.1378Y-4.8563
X6.3917Y-1.0654
X6.3917Y-1.1638
X6.3917Y-1.2623
X6.9626Y-1.0654
X6.9626Y-1.2623
T9
X4.4075Y-5.8209
X4.4075Y-5.9209
X4.4075Y-6.0209
X4.8012Y-5.8189
X4.8012Y-5.9189
X4.8012Y-6.0189
T10
X2.2835Y-3.3677
X2.2835Y-3.7677
X3.7724Y-4.2469
X3.8724Y-4.1469
X3.9724Y-4.2469
X4.3433Y-4.2469
X4.4433Y-4.1469
X4.5433Y-4.2469
X4.626Y-5.3425
X4.8665Y-4.2438
X4.9665Y-4.1438
X5.026Y-5.3425
X5.0665Y-4.2438
X5.6747Y-2.7692
X5.7747Y-2.7692
X5.8747Y-2.7692
X6.1918Y-2.768
X6.2918Y-2.768
X6.3918Y-2.768
X7.4449Y-2.2441
X7.5449Y-2.2441
X7.6449Y-2.2441
X8.122Y-2.2441
X8.222Y-2.2441
X8.322Y-2.2441
T11
X2.8406Y-2.2362
X2.8406Y-2.4331
T12
X2.5636Y-1.0144
X2.7136Y-1.1644
X5.3189Y-2.2087
X5.5189Y-2.2087
X5.7189Y-2.2087
X5.9189Y-2.2087
X6.1189Y-2.2087
X6.3189Y-2.2087
X6.5189Y-2.2087
X6.7189Y-2.2087
T13
X5.1004Y-2.8799
T14
X4.3366Y-2.4843
X4.3366Y-3.2126
X8.1732Y-3.5866
X8.9016Y-3.5866
T15
X2.3827Y-4.9547
X2.5827Y-4.9547
X3.4646Y-5.1142
X3.4646Y-5.3142
X4.2146Y-5.1161
X4.2146Y-5.3161
X4.6378Y-3.748
X4.8378Y-3.748
X5.0669Y-3.489
X5.0669Y-3.689
X7.1673Y-2.2232
X7.1673Y-2.4232
X8.0945Y-2.6161
X8.2945Y-2.6161
T16
X8.7874Y-3.0787
X8.7894Y-2.8543
T18
X3.2598Y-3.372
X3.2628Y-4.3494
X4.2313Y-4.3494
X5.1417Y-2.5984
X6.0561Y-4.3494
X6.9409Y-2.0866
X8.5846Y-2.0866
X8.5846Y-2.6565
T19
X3.7677Y-2.2362
X4.0984Y-2.2362
X4.5984Y-2.2362
X4.9291Y-2.2362
X6.2913Y-3.156
X6.2913Y-3.4867
X6.2913Y-3.9867
X6.2913Y-4.3174
T2
G00X2.8563Y-3.4902
M15
G01X2.8563Y-3.502
M16
G05
G00X2.8563Y-3.5902
M15
G01X2.8563Y-3.602
M16
G05
G00X2.8563Y-3.6902
M15
G01X2.8563Y-3.702
M16
G05
G00X2.8563Y-3.7902
M15
G01X2.8563Y-3.802
M16
G05
T12
G00X8.6555Y-4.9402
M15
G01X8.6949Y-4.9402
M16
G05
G00X8.6949Y-5.4575
M15
G01X8.6555Y-5.4575
M16
G05
G00X8.8398Y-5.1791
M15
G01X8.8398Y-5.2185
M16
G05
T14
G00X6.6614Y-0.9434
M15
G01X6.7126Y-0.9434
M16
G05
G00X6.6614Y-1.3843
M15
G01X6.7126Y-1.3843
M16
G05
T17
G00X3.4537Y-2.6224
M15
G01X3.4537Y-2.7799
M16
G05
G00X3.4537Y-3.0161
M15
G01X3.4537Y-3.1736
M16
G05
G00X5.2518Y-3.1629
M15
G01X5.4092Y-3.1629
M16
G05
G00X5.6455Y-3.1629
M15
G01X5.8029Y-3.1629
M16
G05
G00X6.8504Y-4.1146
M15
G01X6.6929Y-4.1146
M16
G05
G00X7.2441Y-4.1146
M15
G01X7.0866Y-4.1146
M16
G05
G00X7.3626Y-3.2372
M15
G01X7.5201Y-3.2372
M16
G05
G00X7.7563Y-3.2372
M15
G01X7.9138Y-3.2372
M16
G05
T0
M30
