%TF.GenerationSoftware,KiCad,Pcbnew,(5.99.0-13134-g7fd669b6a8-dirty)*%
%TF.CreationDate,2021-11-08T01:58:15+00:00*%
%TF.ProjectId,solarpump,736f6c61-7270-4756-9d70-2e6b69636164,1.0*%
%TF.SameCoordinates,Original*%
%TF.FileFunction,Soldermask,Top*%
%TF.FilePolarity,Negative*%
%FSLAX46Y46*%
G04 Gerber Fmt 4.6, Leading zero omitted, Abs format (unit mm)*
G04 Created by KiCad (PCBNEW (5.99.0-13134-g7fd669b6a8-dirty)) date 2021-11-08 01:58:15*
%MOMM*%
%LPD*%
G01*
G04 APERTURE LIST*
G04 Aperture macros list*
%AMRoundRect*
0 Rectangle with rounded corners*
0 $1 Rounding radius*
0 $2 $3 $4 $5 $6 $7 $8 $9 X,Y pos of 4 corners*
0 Add a 4 corners polygon primitive as box body*
4,1,4,$2,$3,$4,$5,$6,$7,$8,$9,$2,$3,0*
0 Add four circle primitives for the rounded corners*
1,1,$1+$1,$2,$3*
1,1,$1+$1,$4,$5*
1,1,$1+$1,$6,$7*
1,1,$1+$1,$8,$9*
0 Add four rect primitives between the rounded corners*
20,1,$1+$1,$2,$3,$4,$5,0*
20,1,$1+$1,$4,$5,$6,$7,0*
20,1,$1+$1,$6,$7,$8,$9,0*
20,1,$1+$1,$8,$9,$2,$3,0*%
%AMHorizOval*
0 Thick line with rounded ends*
0 $1 width*
0 $2 $3 position (X,Y) of the first rounded end (center of the circle)*
0 $4 $5 position (X,Y) of the second rounded end (center of the circle)*
0 Add line between two ends*
20,1,$1,$2,$3,$4,$5,0*
0 Add two circle primitives to create the rounded ends*
1,1,$1,$2,$3*
1,1,$1,$4,$5*%
G04 Aperture macros list end*
%ADD10C,4.400000*%
%ADD11C,0.700000*%
%ADD12R,1.500000X1.500000*%
%ADD13C,1.500000*%
%ADD14C,0.800000*%
%ADD15HorizOval,0.800000X0.000000X0.000000X0.000000X0.000000X0*%
%ADD16O,9.000000X6.000000*%
%ADD17HorizOval,0.800000X0.000000X0.000000X0.000000X0.000000X0*%
%ADD18HorizOval,0.800000X0.000000X0.000000X0.000000X0.000000X0*%
%ADD19HorizOval,0.800000X0.000000X0.000000X0.000000X0.000000X0*%
%ADD20HorizOval,0.800000X0.000000X0.000000X0.000000X0.000000X0*%
%ADD21O,6.000000X9.000000*%
%ADD22HorizOval,0.800000X0.000000X0.000000X0.000000X0.000000X0*%
%ADD23R,1.100000X4.600000*%
%ADD24R,10.800000X9.400000*%
%ADD25R,1.905000X2.000000*%
%ADD26O,1.905000X2.000000*%
%ADD27RoundRect,0.250000X-0.450000X0.350000X-0.450000X-0.350000X0.450000X-0.350000X0.450000X0.350000X0*%
%ADD28C,1.600000*%
%ADD29R,1.300000X1.300000*%
%ADD30C,1.300000*%
%ADD31O,1.900000X2.900000*%
%ADD32O,2.900000X1.900000*%
%ADD33RoundRect,0.150000X0.825000X0.150000X-0.825000X0.150000X-0.825000X-0.150000X0.825000X-0.150000X0*%
%ADD34RoundRect,0.250000X0.337500X0.475000X-0.337500X0.475000X-0.337500X-0.475000X0.337500X-0.475000X0*%
%ADD35RoundRect,0.250000X0.600000X0.600000X-0.600000X0.600000X-0.600000X-0.600000X0.600000X-0.600000X0*%
%ADD36C,1.700000*%
%ADD37RoundRect,0.250000X-0.337500X-0.475000X0.337500X-0.475000X0.337500X0.475000X-0.337500X0.475000X0*%
%ADD38R,1.600000X1.600000*%
%ADD39O,1.600000X1.600000*%
%ADD40RoundRect,0.150000X0.150000X-0.587500X0.150000X0.587500X-0.150000X0.587500X-0.150000X-0.587500X0*%
%ADD41R,3.200000X3.200000*%
%ADD42O,3.200000X3.200000*%
%ADD43RoundRect,0.250000X0.450000X-0.350000X0.450000X0.350000X-0.450000X0.350000X-0.450000X-0.350000X0*%
%ADD44C,3.000000*%
%ADD45C,1.350000*%
%ADD46R,2.800000X1.500000*%
%ADD47O,1.350000X1.350000*%
%ADD48R,1.500000X2.800000*%
%ADD49O,1.000000X1.400000*%
%ADD50RoundRect,0.250000X0.350000X0.450000X-0.350000X0.450000X-0.350000X-0.450000X0.350000X-0.450000X0*%
%ADD51R,1.350000X1.350000*%
%ADD52RoundRect,0.150000X0.587500X0.150000X-0.587500X0.150000X-0.587500X-0.150000X0.587500X-0.150000X0*%
%ADD53RoundRect,0.250000X-0.350000X-0.450000X0.350000X-0.450000X0.350000X0.450000X-0.350000X0.450000X0*%
%ADD54RoundRect,0.250000X0.475000X-0.337500X0.475000X0.337500X-0.475000X0.337500X-0.475000X-0.337500X0*%
%ADD55C,4.300000*%
%ADD56R,2.200000X2.200000*%
%ADD57O,2.200000X2.200000*%
%ADD58R,2.030000X1.730000*%
%ADD59O,2.030000X1.730000*%
%ADD60RoundRect,2.400000X-0.600000X0.600000X-0.600000X-0.600000X0.600000X-0.600000X0.600000X0.600000X0*%
%ADD61RoundRect,2.400000X0.600000X0.600000X-0.600000X0.600000X-0.600000X-0.600000X0.600000X-0.600000X0*%
%ADD62C,6.000000*%
%ADD63R,1.000000X1.500000*%
%ADD64RoundRect,0.250000X0.450000X-0.325000X0.450000X0.325000X-0.450000X0.325000X-0.450000X-0.325000X0*%
%ADD65R,2.000000X2.000000*%
%ADD66C,2.000000*%
%ADD67R,3.200000X2.000000*%
%ADD68R,2.700000X3.600000*%
%ADD69RoundRect,0.075000X-0.662500X-0.075000X0.662500X-0.075000X0.662500X0.075000X-0.662500X0.075000X0*%
%ADD70RoundRect,0.075000X-0.075000X-0.662500X0.075000X-0.662500X0.075000X0.662500X-0.075000X0.662500X0*%
%ADD71RoundRect,0.150000X-0.150000X0.587500X-0.150000X-0.587500X0.150000X-0.587500X0.150000X0.587500X0*%
%ADD72R,3.600000X2.700000*%
%ADD73RoundRect,0.250000X0.412500X1.100000X-0.412500X1.100000X-0.412500X-1.100000X0.412500X-1.100000X0*%
%ADD74C,1.400000*%
%ADD75C,2.500000*%
%ADD76R,1.500000X1.000000*%
%ADD77R,1.100000X1.600000*%
%ADD78R,2.400000X2.400000*%
%ADD79C,2.400000*%
%ADD80RoundRect,0.250000X-0.475000X0.337500X-0.475000X-0.337500X0.475000X-0.337500X0.475000X0.337500X0*%
%ADD81RoundRect,0.250000X-1.100000X0.412500X-1.100000X-0.412500X1.100000X-0.412500X1.100000X0.412500X0*%
%ADD82R,2.600000X2.600000*%
%ADD83C,2.600000*%
%ADD84RoundRect,0.150000X0.875000X0.150000X-0.875000X0.150000X-0.875000X-0.150000X0.875000X-0.150000X0*%
%ADD85RoundRect,0.250000X1.100000X-0.412500X1.100000X0.412500X-1.100000X0.412500X-1.100000X-0.412500X0*%
%ADD86R,1.000000X1.000000*%
%ADD87RoundRect,0.150000X-0.825000X-0.150000X0.825000X-0.150000X0.825000X0.150000X-0.825000X0.150000X0*%
%ADD88R,1.600000X1.100000*%
%ADD89RoundRect,2.400000X0.600000X-0.600000X0.600000X0.600000X-0.600000X0.600000X-0.600000X-0.600000X0*%
%ADD90C,1.750000*%
%ADD91C,1.524000*%
G04 APERTURE END LIST*
D10*
%TO.C,HS8*%
X218050000Y-67475000D03*
D11*
X219700000Y-67475000D03*
X219216726Y-68641726D03*
X218050000Y-69125000D03*
X216883274Y-68641726D03*
X216400000Y-67475000D03*
X216883274Y-66308274D03*
X218050000Y-65825000D03*
X219216726Y-66308274D03*
%TD*%
D12*
%TO.C,U6*%
X138484675Y-101736630D03*
D13*
X140394675Y-101736630D03*
X142304675Y-101736630D03*
D14*
X148594675Y-78676630D03*
X149344675Y-79706630D03*
D15*
X141444675Y-79706630D03*
D14*
X148594675Y-81996630D03*
X146064675Y-78286630D03*
X149344675Y-80966630D03*
X144724675Y-78286630D03*
X143394675Y-82386630D03*
X144724675Y-82386630D03*
X142194675Y-78676630D03*
X146064675Y-82386630D03*
X147394675Y-82386630D03*
X142194675Y-81996630D03*
X143394675Y-78286630D03*
X147394675Y-78286630D03*
D16*
X145394675Y-80336630D03*
D17*
X141444675Y-80966630D03*
D14*
X136064675Y-82386630D03*
X133394675Y-82386630D03*
D16*
X135394675Y-80336630D03*
D14*
X131444675Y-80966630D03*
D17*
X139344675Y-79706630D03*
D14*
X134724675Y-82386630D03*
D15*
X139344675Y-80966630D03*
D14*
X132194675Y-78676630D03*
X138594675Y-78676630D03*
X134724675Y-78286630D03*
X136064675Y-78286630D03*
X137394675Y-82386630D03*
X131444675Y-79706630D03*
X138594675Y-81996630D03*
X137394675Y-78286630D03*
X133394675Y-78286630D03*
X132194675Y-81996630D03*
%TD*%
D12*
%TO.C,U7*%
X178910000Y-83111630D03*
D13*
X177000000Y-83111630D03*
X175090000Y-83111630D03*
D14*
X168800000Y-106171630D03*
X168050000Y-105141630D03*
D18*
X175950000Y-105141630D03*
D14*
X168800000Y-102851630D03*
X171330000Y-106561630D03*
X168050000Y-103881630D03*
X172670000Y-106561630D03*
X174000000Y-102461630D03*
X172670000Y-102461630D03*
X175200000Y-106171630D03*
X171330000Y-102461630D03*
X170000000Y-102461630D03*
X175200000Y-102851630D03*
X174000000Y-106561630D03*
X170000000Y-106561630D03*
D16*
X172000000Y-104511630D03*
D19*
X175950000Y-103881630D03*
D14*
X181330000Y-102461630D03*
X184000000Y-102461630D03*
D16*
X182000000Y-104511630D03*
D14*
X185950000Y-103881630D03*
D19*
X178050000Y-105141630D03*
D14*
X182670000Y-102461630D03*
D18*
X178050000Y-103881630D03*
D14*
X185200000Y-106171630D03*
X178800000Y-106171630D03*
X182670000Y-106561630D03*
X181330000Y-106561630D03*
X180000000Y-102461630D03*
X185950000Y-105141630D03*
X178800000Y-102851630D03*
X180000000Y-106561630D03*
X184000000Y-106561630D03*
X185200000Y-102851630D03*
%TD*%
D12*
%TO.C,U11*%
X192100000Y-103625000D03*
D13*
X194010000Y-103625000D03*
X195920000Y-103625000D03*
D14*
X202210000Y-80565000D03*
X202960000Y-81595000D03*
D15*
X195060000Y-81595000D03*
D14*
X202210000Y-83885000D03*
X199680000Y-80175000D03*
X202960000Y-82855000D03*
X198340000Y-80175000D03*
X197010000Y-84275000D03*
X198340000Y-84275000D03*
X195810000Y-80565000D03*
X199680000Y-84275000D03*
X201010000Y-84275000D03*
X195810000Y-83885000D03*
X197010000Y-80175000D03*
X201010000Y-80175000D03*
D16*
X199010000Y-82225000D03*
D17*
X195060000Y-82855000D03*
D14*
X189680000Y-84275000D03*
X187010000Y-84275000D03*
D16*
X189010000Y-82225000D03*
D14*
X185060000Y-82855000D03*
D17*
X192960000Y-81595000D03*
D14*
X188340000Y-84275000D03*
D15*
X192960000Y-82855000D03*
D14*
X185810000Y-80565000D03*
X192210000Y-80565000D03*
X188340000Y-80175000D03*
X189680000Y-80175000D03*
X191010000Y-84275000D03*
X185060000Y-81595000D03*
X192210000Y-83885000D03*
X191010000Y-80175000D03*
X187010000Y-80175000D03*
X185810000Y-83885000D03*
%TD*%
D12*
%TO.C,U3*%
X66325000Y-71700000D03*
D13*
X66325000Y-73610000D03*
X66325000Y-75520000D03*
D14*
X89385000Y-81810000D03*
X88355000Y-82560000D03*
D20*
X88355000Y-74660000D03*
D14*
X86065000Y-81810000D03*
X89775000Y-79280000D03*
X87095000Y-82560000D03*
X89775000Y-77940000D03*
X85675000Y-76610000D03*
X85675000Y-77940000D03*
X89385000Y-75410000D03*
X85675000Y-79280000D03*
X85675000Y-80610000D03*
X86065000Y-75410000D03*
X89775000Y-76610000D03*
X89775000Y-80610000D03*
D21*
X87725000Y-78610000D03*
D22*
X87095000Y-74660000D03*
D14*
X85675000Y-69280000D03*
X85675000Y-66610000D03*
D21*
X87725000Y-68610000D03*
D14*
X87095000Y-64660000D03*
D22*
X88355000Y-72560000D03*
D14*
X85675000Y-67940000D03*
D20*
X87095000Y-72560000D03*
D14*
X89385000Y-65410000D03*
X89385000Y-71810000D03*
X89775000Y-67940000D03*
X89775000Y-69280000D03*
X85675000Y-70610000D03*
X88355000Y-64660000D03*
X86065000Y-71810000D03*
X89775000Y-70610000D03*
X89775000Y-66610000D03*
X86065000Y-65410000D03*
%TD*%
D10*
%TO.C,HS7*%
X82800000Y-85650000D03*
D11*
X84450000Y-85650000D03*
X83966726Y-86816726D03*
X82800000Y-87300000D03*
X81633274Y-86816726D03*
X81150000Y-85650000D03*
X81633274Y-84483274D03*
X82800000Y-84000000D03*
X83966726Y-84483274D03*
%TD*%
D10*
%TO.C,HS6*%
X130600000Y-66000000D03*
D11*
X132250000Y-66000000D03*
X131766726Y-67166726D03*
X130600000Y-67650000D03*
X129433274Y-67166726D03*
X128950000Y-66000000D03*
X129433274Y-64833274D03*
X130600000Y-64350000D03*
X131766726Y-64833274D03*
%TD*%
D10*
%TO.C,HS5*%
X218050000Y-53000000D03*
D11*
X219700000Y-53000000D03*
X219216726Y-54166726D03*
X218050000Y-54650000D03*
X216883274Y-54166726D03*
X216400000Y-53000000D03*
X216883274Y-51833274D03*
X218050000Y-51350000D03*
X219216726Y-51833274D03*
%TD*%
D10*
%TO.C,HS4*%
X176300000Y-53000000D03*
D11*
X177950000Y-53000000D03*
X177466726Y-54166726D03*
X176300000Y-54650000D03*
X175133274Y-54166726D03*
X174650000Y-53000000D03*
X175133274Y-51833274D03*
X176300000Y-51350000D03*
X177466726Y-51833274D03*
%TD*%
D10*
%TO.C,HS3*%
X153825000Y-110475000D03*
D11*
X155475000Y-110475000D03*
X154991726Y-111641726D03*
X153825000Y-112125000D03*
X152658274Y-111641726D03*
X152175000Y-110475000D03*
X152658274Y-109308274D03*
X153825000Y-108825000D03*
X154991726Y-109308274D03*
%TD*%
D10*
%TO.C,HS2*%
X107475000Y-110475000D03*
D11*
X109125000Y-110475000D03*
X108641726Y-111641726D03*
X107475000Y-112125000D03*
X106308274Y-111641726D03*
X105825000Y-110475000D03*
X106308274Y-109308274D03*
X107475000Y-108825000D03*
X108641726Y-109308274D03*
%TD*%
D10*
%TO.C,HS1*%
X82875000Y-110475000D03*
D11*
X84525000Y-110475000D03*
X84041726Y-111641726D03*
X82875000Y-112125000D03*
X81708274Y-111641726D03*
X81225000Y-110475000D03*
X81708274Y-109308274D03*
X82875000Y-108825000D03*
X84041726Y-109308274D03*
%TD*%
D23*
%TO.C,U10*%
X81000000Y-142025000D03*
X79300000Y-142025000D03*
X77600000Y-142025000D03*
D24*
X77600000Y-151175000D03*
D23*
X75900000Y-142025000D03*
X74200000Y-142025000D03*
%TD*%
%TO.C,U9*%
X101700000Y-141975000D03*
X100000000Y-141975000D03*
X98300000Y-141975000D03*
D24*
X98300000Y-151125000D03*
D23*
X96600000Y-141975000D03*
X94900000Y-141975000D03*
%TD*%
D25*
%TO.C,Q1*%
X100900000Y-107870000D03*
D26*
X98360000Y-105330000D03*
X95820000Y-107870000D03*
%TD*%
D25*
%TO.C,Q2*%
X128690000Y-107792500D03*
D26*
X126150000Y-105252500D03*
X123610000Y-107792500D03*
%TD*%
D25*
%TO.C,Q12*%
X189100000Y-57000000D03*
D26*
X191640000Y-57000000D03*
X194180000Y-57000000D03*
%TD*%
D25*
%TO.C,Q10*%
X162352175Y-70306630D03*
D26*
X159812175Y-70306630D03*
X157272175Y-70306630D03*
%TD*%
D25*
%TO.C,Q9*%
X149217175Y-70336630D03*
D26*
X146677175Y-70336630D03*
X144137175Y-70336630D03*
%TD*%
D25*
%TO.C,Q3*%
X115400000Y-107870000D03*
D26*
X112860000Y-105330000D03*
X110320000Y-107870000D03*
%TD*%
D25*
%TO.C,Q11*%
X206300000Y-57000000D03*
D26*
X208840000Y-57000000D03*
X211380000Y-57000000D03*
%TD*%
D27*
%TO.C,R17*%
X116550000Y-142700000D03*
X116550000Y-144700000D03*
%TD*%
D28*
%TO.C,CP7*%
X208450000Y-115350000D03*
X203450000Y-115350000D03*
%TD*%
%TO.C,C41*%
X73049188Y-42750222D03*
X73049188Y-37750222D03*
%TD*%
D29*
%TO.C,J1*%
X219750000Y-128550000D03*
D30*
X219750000Y-131050000D03*
X219750000Y-133050000D03*
X219750000Y-135550000D03*
D31*
X224530000Y-132050000D03*
D32*
X220350000Y-125480000D03*
X220350000Y-138620000D03*
%TD*%
D33*
%TO.C,U12*%
X194775000Y-67165000D03*
X194775000Y-65895000D03*
X194775000Y-64625000D03*
X194775000Y-63355000D03*
X189825000Y-63355000D03*
X189825000Y-64625000D03*
X189825000Y-65895000D03*
X189825000Y-67165000D03*
%TD*%
D34*
%TO.C,C12*%
X78637500Y-93200000D03*
X76562500Y-93200000D03*
%TD*%
D35*
%TO.C,TH1*%
X168215155Y-144018070D03*
D36*
X164715155Y-144018070D03*
%TD*%
D34*
%TO.C,C29*%
X157090155Y-126043070D03*
X155015155Y-126043070D03*
%TD*%
D37*
%TO.C,C22*%
X71562500Y-108900000D03*
X73637500Y-108900000D03*
%TD*%
D38*
%TO.C,U8*%
X66550000Y-120250000D03*
D39*
X66550000Y-117710000D03*
X66550000Y-115170000D03*
X66550000Y-112630000D03*
X58930000Y-112630000D03*
X58930000Y-115170000D03*
X58930000Y-117710000D03*
X58930000Y-120250000D03*
%TD*%
D40*
%TO.C,Q4*%
X64250000Y-90562500D03*
X66150000Y-90562500D03*
X65200000Y-88687500D03*
%TD*%
D41*
%TO.C,D10*%
X182050000Y-61550000D03*
D42*
X182050000Y-56470000D03*
%TD*%
D37*
%TO.C,C2*%
X146715155Y-142443070D03*
X148790155Y-142443070D03*
%TD*%
D43*
%TO.C,R9*%
X116600000Y-153700000D03*
X116600000Y-151700000D03*
%TD*%
D35*
%TO.C,TH3*%
X168215155Y-137468070D03*
D36*
X164715155Y-137468070D03*
%TD*%
D27*
%TO.C,R33*%
X104701235Y-25318945D03*
X104701235Y-27318945D03*
%TD*%
D44*
%TO.C,L1*%
X110150000Y-81600000D03*
X110150000Y-63100000D03*
%TD*%
D45*
%TO.C,MCU1*%
X196700000Y-145350000D03*
D46*
X197350000Y-145350000D03*
D47*
X196700000Y-143350000D03*
D46*
X197350000Y-143350000D03*
D47*
X196700000Y-141350000D03*
D46*
X197350000Y-141350000D03*
D47*
X196700000Y-139350000D03*
D46*
X197350000Y-139350000D03*
D47*
X196700000Y-137350000D03*
D46*
X197350000Y-137350000D03*
X197350000Y-135350000D03*
D47*
X196700000Y-135350000D03*
D46*
X197350000Y-133350000D03*
D47*
X196700000Y-133350000D03*
D46*
X197350000Y-131350000D03*
D47*
X196700000Y-131350000D03*
D46*
X197350000Y-129350000D03*
D47*
X196700000Y-129350000D03*
X196700000Y-127350000D03*
D46*
X197350000Y-127350000D03*
D48*
X194700000Y-124700000D03*
D47*
X194700000Y-125350000D03*
D48*
X192700000Y-124700000D03*
D47*
X192700000Y-125350000D03*
X190700000Y-125350000D03*
D48*
X190700000Y-124700000D03*
D47*
X188700000Y-125350000D03*
D48*
X188700000Y-124700000D03*
X186700000Y-124700000D03*
D47*
X186700000Y-125350000D03*
D48*
X184700000Y-124700000D03*
D47*
X184700000Y-125350000D03*
D48*
X182700000Y-124700000D03*
D47*
X182700000Y-125350000D03*
X180700000Y-125350000D03*
D48*
X180700000Y-124700000D03*
D47*
X178700000Y-125350000D03*
D48*
X178700000Y-124700000D03*
X176700000Y-124700000D03*
D47*
X176700000Y-125350000D03*
X174700000Y-127350000D03*
D46*
X174050000Y-127350000D03*
D47*
X174700000Y-129350000D03*
D46*
X174050000Y-129350000D03*
D47*
X174700000Y-131350000D03*
D46*
X174050000Y-131350000D03*
D47*
X174700000Y-133350000D03*
D46*
X174050000Y-133350000D03*
X174050000Y-135350000D03*
D47*
X174700000Y-135350000D03*
X174700000Y-137350000D03*
D46*
X174050000Y-137350000D03*
X174050000Y-139350000D03*
D47*
X174700000Y-139350000D03*
X174700000Y-141350000D03*
D46*
X174050000Y-141350000D03*
D47*
X174700000Y-143350000D03*
D46*
X174050000Y-143350000D03*
D47*
X174700000Y-145350000D03*
D46*
X174050000Y-145350000D03*
D48*
X176700000Y-148000000D03*
D47*
X176700000Y-147350000D03*
X178700000Y-147350000D03*
D48*
X178700000Y-148000000D03*
D47*
X180700000Y-147350000D03*
D48*
X180700000Y-148000000D03*
X182700000Y-148000000D03*
D47*
X182700000Y-147350000D03*
D48*
X184700000Y-148000000D03*
D47*
X184700000Y-147350000D03*
X186700000Y-147350000D03*
D48*
X186700000Y-148000000D03*
X188700000Y-148000000D03*
D47*
X188700000Y-147350000D03*
X190700000Y-147350000D03*
D48*
X190700000Y-148000000D03*
D47*
X192700000Y-147350000D03*
D48*
X192700000Y-148000000D03*
D47*
X194700000Y-147350000D03*
D48*
X194700000Y-148000000D03*
%TD*%
D49*
%TO.C,U5*%
X72550000Y-88800000D03*
X72550000Y-91340000D03*
X72550000Y-93880000D03*
X72550000Y-96420000D03*
%TD*%
D28*
%TO.C,CP6*%
X85200000Y-122100000D03*
X85200000Y-117100000D03*
%TD*%
D50*
%TO.C,R8*%
X121100000Y-91000000D03*
X119100000Y-91000000D03*
%TD*%
D51*
%TO.C,J3*%
X205015155Y-134518070D03*
D47*
X207015155Y-134518070D03*
X205015155Y-136518070D03*
X207015155Y-136518070D03*
X205015155Y-138518070D03*
X207015155Y-138518070D03*
X205015155Y-140518070D03*
X207015155Y-140518070D03*
X205015155Y-142518070D03*
X207015155Y-142518070D03*
X205015155Y-144518070D03*
X207015155Y-144518070D03*
%TD*%
D52*
%TO.C,Q6*%
X66636688Y-40750222D03*
X66636688Y-38850222D03*
X64761688Y-39800222D03*
%TD*%
D35*
%TO.C,TH2*%
X168215155Y-140768070D03*
D36*
X164715155Y-140768070D03*
%TD*%
D53*
%TO.C,R24*%
X135150000Y-132868070D03*
X137150000Y-132868070D03*
%TD*%
%TO.C,R20*%
X169850000Y-110850000D03*
X171850000Y-110850000D03*
%TD*%
D37*
%TO.C,C34*%
X191062500Y-105975000D03*
X193137500Y-105975000D03*
%TD*%
D54*
%TO.C,C30*%
X157117175Y-142074130D03*
X157117175Y-139999130D03*
%TD*%
D55*
%TO.C,H7*%
X179834033Y-42868945D03*
%TD*%
D50*
%TO.C,R2*%
X133250000Y-139200000D03*
X131250000Y-139200000D03*
%TD*%
D53*
%TO.C,R18*%
X157150000Y-22150000D03*
X159150000Y-22150000D03*
%TD*%
D34*
%TO.C,C31*%
X137187500Y-129600000D03*
X135112500Y-129600000D03*
%TD*%
D54*
%TO.C,C7*%
X150700000Y-146237500D03*
X150700000Y-144162500D03*
%TD*%
D37*
%TO.C,C3*%
X146715155Y-140443070D03*
X148790155Y-140443070D03*
%TD*%
D50*
%TO.C,R22*%
X174650000Y-68443940D03*
X172650000Y-68443940D03*
%TD*%
D54*
%TO.C,C36*%
X186250000Y-67135000D03*
X186250000Y-65060000D03*
%TD*%
D56*
%TO.C,D6*%
X117500000Y-135700000D03*
D57*
X127660000Y-135700000D03*
%TD*%
D58*
%TO.C,J9*%
X111950000Y-147850000D03*
D59*
X111950000Y-150390000D03*
X111950000Y-152930000D03*
%TD*%
D54*
%TO.C,C25*%
X141752655Y-142580570D03*
X141752655Y-140505570D03*
%TD*%
D34*
%TO.C,C33*%
X197137500Y-105975000D03*
X195062500Y-105975000D03*
%TD*%
%TO.C,C32*%
X133287500Y-129600000D03*
X131212500Y-129600000D03*
%TD*%
D37*
%TO.C,C16*%
X173972500Y-80011630D03*
X176047500Y-80011630D03*
%TD*%
D55*
%TO.C,H6*%
X179834033Y-17368945D03*
%TD*%
D53*
%TO.C,R19*%
X165850000Y-110850000D03*
X167850000Y-110850000D03*
%TD*%
D50*
%TO.C,R15*%
X143600000Y-124500000D03*
X141600000Y-124500000D03*
%TD*%
D60*
%TO.C,F1*%
X125200000Y-56800000D03*
D61*
X116800000Y-56800000D03*
D62*
X95700000Y-56800000D03*
X104100000Y-56800000D03*
%TD*%
D50*
%TO.C,R25*%
X182300000Y-69400000D03*
X180300000Y-69400000D03*
%TD*%
D53*
%TO.C,R23*%
X131250000Y-132868070D03*
X133250000Y-132868070D03*
%TD*%
D63*
%TO.C,JP2*%
X151300000Y-120750000D03*
X150000000Y-120750000D03*
%TD*%
D64*
%TO.C,D3*%
X80800000Y-96775000D03*
X80800000Y-94725000D03*
%TD*%
D27*
%TO.C,R34*%
X107151235Y-25318945D03*
X107151235Y-27318945D03*
%TD*%
D65*
%TO.C,SW2*%
X162349188Y-27061282D03*
D66*
X162349188Y-32061282D03*
X162349188Y-29561282D03*
D67*
X169849188Y-35161282D03*
X169849188Y-23961282D03*
D66*
X176849188Y-32061282D03*
X176849188Y-27061282D03*
%TD*%
D37*
%TO.C,C24*%
X88662500Y-126400000D03*
X90737500Y-126400000D03*
%TD*%
D28*
%TO.C,CP3*%
X62300000Y-140300000D03*
X62300000Y-145300000D03*
%TD*%
D55*
%TO.C,H4*%
X59650000Y-153950000D03*
%TD*%
D34*
%TO.C,C6*%
X151687500Y-123350000D03*
X149612500Y-123350000D03*
%TD*%
D38*
%TO.C,M2*%
X96989188Y-37175222D03*
D39*
X99529188Y-37175222D03*
X102069188Y-37175222D03*
X104609188Y-37175222D03*
X107149188Y-37175222D03*
X109689188Y-37175222D03*
X112229188Y-37175222D03*
X114769188Y-37175222D03*
X117309188Y-37175222D03*
X119849188Y-37175222D03*
X122389188Y-37175222D03*
X124929188Y-37175222D03*
X127469188Y-37175222D03*
X130009188Y-37175222D03*
X132549188Y-37175222D03*
X135089188Y-37175222D03*
X137629188Y-37175222D03*
X140169188Y-37175222D03*
X142709188Y-37175222D03*
X145249188Y-37175222D03*
X145249188Y-21935222D03*
X142709188Y-21935222D03*
X140169188Y-21935222D03*
X137629188Y-21935222D03*
X135089188Y-21935222D03*
X132549188Y-21935222D03*
X130009188Y-21935222D03*
X127469188Y-21935222D03*
X124929188Y-21935222D03*
X122389188Y-21935222D03*
X119849188Y-21935222D03*
X117309188Y-21935222D03*
X114769188Y-21935222D03*
X112229188Y-21935222D03*
X109689188Y-21935222D03*
X107149188Y-21935222D03*
X104609188Y-21935222D03*
X102069188Y-21935222D03*
X99529188Y-21935222D03*
X96989188Y-21935222D03*
%TD*%
D53*
%TO.C,R11*%
X64175000Y-93550000D03*
X66175000Y-93550000D03*
%TD*%
D68*
%TO.C,L4*%
X81800000Y-131400000D03*
X73500000Y-131400000D03*
%TD*%
D43*
%TO.C,R16*%
X139600000Y-124450000D03*
X139600000Y-122450000D03*
%TD*%
D41*
%TO.C,D8*%
X107050000Y-129950000D03*
D42*
X107050000Y-135030000D03*
%TD*%
D37*
%TO.C,C27*%
X145479675Y-120550000D03*
X147554675Y-120550000D03*
%TD*%
D43*
%TO.C,R10*%
X116550000Y-148900000D03*
X116550000Y-146900000D03*
%TD*%
D53*
%TO.C,R6*%
X76600000Y-97800000D03*
X78600000Y-97800000D03*
%TD*%
D54*
%TO.C,C1*%
X143817175Y-142580570D03*
X143817175Y-140505570D03*
%TD*%
D50*
%TO.C,R21*%
X136112175Y-69499130D03*
X134112175Y-69499130D03*
%TD*%
D37*
%TO.C,C11*%
X106562500Y-90300000D03*
X108637500Y-90300000D03*
%TD*%
D50*
%TO.C,R32*%
X170850000Y-68443940D03*
X168850000Y-68443940D03*
%TD*%
D38*
%TO.C,RN1*%
X160900000Y-145718070D03*
D39*
X160900000Y-143178070D03*
X160900000Y-140638070D03*
X160900000Y-138098070D03*
%TD*%
D38*
%TO.C,C21*%
X63250000Y-132350000D03*
D28*
X60750000Y-132350000D03*
%TD*%
D44*
%TO.C,L5*%
X226100000Y-91100000D03*
X207600000Y-91100000D03*
%TD*%
D28*
%TO.C,C39*%
X162501235Y-38918945D03*
X162501235Y-43918945D03*
%TD*%
D50*
%TO.C,R7*%
X129950000Y-97100000D03*
X127950000Y-97100000D03*
%TD*%
D28*
%TO.C,CP4*%
X64050000Y-102300000D03*
X64050000Y-107300000D03*
%TD*%
D69*
%TO.C,U2*%
X143190155Y-128618070D03*
X143190155Y-129118070D03*
X143190155Y-129618070D03*
X143190155Y-130118070D03*
X143190155Y-130618070D03*
X143190155Y-131118070D03*
X143190155Y-131618070D03*
X143190155Y-132118070D03*
X143190155Y-132618070D03*
X143190155Y-133118070D03*
X143190155Y-133618070D03*
X143190155Y-134118070D03*
X143190155Y-134618070D03*
X143190155Y-135118070D03*
X143190155Y-135618070D03*
X143190155Y-136118070D03*
D70*
X145102655Y-138030570D03*
X145602655Y-138030570D03*
X146102655Y-138030570D03*
X146602655Y-138030570D03*
X147102655Y-138030570D03*
X147602655Y-138030570D03*
X148102655Y-138030570D03*
X148602655Y-138030570D03*
X149102655Y-138030570D03*
X149602655Y-138030570D03*
X150102655Y-138030570D03*
X150602655Y-138030570D03*
X151102655Y-138030570D03*
X151602655Y-138030570D03*
X152102655Y-138030570D03*
X152602655Y-138030570D03*
D69*
X154515155Y-136118070D03*
X154515155Y-135618070D03*
X154515155Y-135118070D03*
X154515155Y-134618070D03*
X154515155Y-134118070D03*
X154515155Y-133618070D03*
X154515155Y-133118070D03*
X154515155Y-132618070D03*
X154515155Y-132118070D03*
X154515155Y-131618070D03*
X154515155Y-131118070D03*
X154515155Y-130618070D03*
X154515155Y-130118070D03*
X154515155Y-129618070D03*
X154515155Y-129118070D03*
X154515155Y-128618070D03*
D70*
X152602655Y-126705570D03*
X152102655Y-126705570D03*
X151602655Y-126705570D03*
X151102655Y-126705570D03*
X150602655Y-126705570D03*
X150102655Y-126705570D03*
X149602655Y-126705570D03*
X149102655Y-126705570D03*
X148602655Y-126705570D03*
X148102655Y-126705570D03*
X147602655Y-126705570D03*
X147102655Y-126705570D03*
X146602655Y-126705570D03*
X146102655Y-126705570D03*
X145602655Y-126705570D03*
X145102655Y-126705570D03*
%TD*%
D71*
%TO.C,Q8*%
X174600000Y-70462500D03*
X172700000Y-70462500D03*
X173650000Y-72337500D03*
%TD*%
D51*
%TO.C,J10*%
X213050000Y-128650000D03*
D47*
X213050000Y-126650000D03*
X213050000Y-124650000D03*
X213050000Y-122650000D03*
%TD*%
D51*
%TO.C,J7*%
X170500000Y-129350000D03*
D47*
X170500000Y-127350000D03*
X170500000Y-125350000D03*
%TD*%
D72*
%TO.C,L2*%
X73950000Y-120500000D03*
X73950000Y-112200000D03*
%TD*%
D34*
%TO.C,C18*%
X180047500Y-80011630D03*
X177972500Y-80011630D03*
%TD*%
D73*
%TO.C,C35*%
X94112500Y-85900000D03*
X90987500Y-85900000D03*
%TD*%
D54*
%TO.C,C9*%
X63375000Y-76437500D03*
X63375000Y-74362500D03*
%TD*%
D40*
%TO.C,Q5*%
X119550000Y-144637500D03*
X121450000Y-144637500D03*
X120500000Y-142762500D03*
%TD*%
D74*
%TO.C,SW1*%
X72734188Y-25765222D03*
X65114188Y-33385222D03*
D75*
X65114188Y-25765222D03*
X68924188Y-29575222D03*
%TD*%
D76*
%TO.C,JP1*%
X139417175Y-141986630D03*
X139417175Y-140686630D03*
%TD*%
D77*
%TO.C,JP3*%
X128000000Y-99750000D03*
X129900000Y-99750000D03*
%TD*%
D78*
%TO.C,CP2*%
X72150000Y-56800000D03*
D79*
X72150000Y-61800000D03*
%TD*%
D53*
%TO.C,R35*%
X157200000Y-28650000D03*
X159200000Y-28650000D03*
%TD*%
D28*
%TO.C,CP1*%
X97500000Y-93100000D03*
X92500000Y-93100000D03*
%TD*%
D53*
%TO.C,R28*%
X180875000Y-65525000D03*
X182875000Y-65525000D03*
%TD*%
D28*
%TO.C,C40*%
X172701235Y-38918945D03*
X172701235Y-43918945D03*
%TD*%
D58*
%TO.C,J4*%
X121950000Y-147800000D03*
D59*
X121950000Y-150340000D03*
X121950000Y-152880000D03*
%TD*%
D55*
%TO.C,H8*%
X59451235Y-42868945D03*
%TD*%
D71*
%TO.C,Q7*%
X136167175Y-71561630D03*
X134267175Y-71561630D03*
X135217175Y-73436630D03*
%TD*%
D41*
%TO.C,D9*%
X88000000Y-129900000D03*
D42*
X88000000Y-134980000D03*
%TD*%
D43*
%TO.C,R31*%
X138212175Y-71399130D03*
X138212175Y-69399130D03*
%TD*%
D38*
%TO.C,C20*%
X107550000Y-140250000D03*
D28*
X107550000Y-142750000D03*
%TD*%
D80*
%TO.C,C10*%
X63375000Y-70362500D03*
X63375000Y-72437500D03*
%TD*%
D77*
%TO.C,JP5*%
X212550000Y-70650000D03*
X210650000Y-70650000D03*
%TD*%
D43*
%TO.C,R29*%
X132412175Y-73499130D03*
X132412175Y-71499130D03*
%TD*%
D53*
%TO.C,R12*%
X115200000Y-88950000D03*
X117200000Y-88950000D03*
%TD*%
D50*
%TO.C,R1*%
X137150000Y-139200000D03*
X135150000Y-139200000D03*
%TD*%
D34*
%TO.C,C15*%
X137187500Y-136150000D03*
X135112500Y-136150000D03*
%TD*%
D81*
%TO.C,C37*%
X200375000Y-102387500D03*
X200375000Y-105512500D03*
%TD*%
D50*
%TO.C,R27*%
X206300000Y-61850000D03*
X204300000Y-61850000D03*
%TD*%
D55*
%TO.C,H2*%
X224950000Y-53700000D03*
%TD*%
D34*
%TO.C,C4*%
X153090155Y-142243070D03*
X151015155Y-142243070D03*
%TD*%
D41*
%TO.C,D2*%
X205600000Y-66450000D03*
D42*
X210680000Y-66450000D03*
%TD*%
D53*
%TO.C,R36*%
X157150000Y-25400000D03*
X159150000Y-25400000D03*
%TD*%
D43*
%TO.C,R14*%
X69449188Y-40800222D03*
X69449188Y-38800222D03*
%TD*%
D53*
%TO.C,R5*%
X78600000Y-95500000D03*
X76600000Y-95500000D03*
%TD*%
D50*
%TO.C,R37*%
X69899188Y-21300222D03*
X67899188Y-21300222D03*
%TD*%
D43*
%TO.C,R30*%
X170750000Y-72400000D03*
X170750000Y-70400000D03*
%TD*%
D80*
%TO.C,C13*%
X77050000Y-88862500D03*
X77050000Y-90937500D03*
%TD*%
D41*
%TO.C,D5*%
X117800000Y-95200000D03*
D42*
X122880000Y-95200000D03*
%TD*%
D82*
%TO.C,J2*%
X135100000Y-56100000D03*
D83*
X140180000Y-56100000D03*
X145260000Y-56100000D03*
X150340000Y-56100000D03*
X155420000Y-56100000D03*
X160500000Y-56100000D03*
X165580000Y-56100000D03*
X170660000Y-56100000D03*
%TD*%
D34*
%TO.C,C44*%
X86787500Y-126400000D03*
X84712500Y-126400000D03*
%TD*%
D41*
%TO.C,D4*%
X128700000Y-93700000D03*
D42*
X128700000Y-88620000D03*
%TD*%
D50*
%TO.C,R3*%
X104500000Y-90350000D03*
X102500000Y-90350000D03*
%TD*%
D53*
%TO.C,R13*%
X119100000Y-88950000D03*
X121100000Y-88950000D03*
%TD*%
D54*
%TO.C,C5*%
X155017175Y-142074130D03*
X155017175Y-139999130D03*
%TD*%
D77*
%TO.C,JP6*%
X188100000Y-60850000D03*
X186200000Y-60850000D03*
%TD*%
D55*
%TO.C,H3*%
X224850000Y-153850000D03*
%TD*%
D41*
%TO.C,D7*%
X65600000Y-125850000D03*
D42*
X60520000Y-125850000D03*
%TD*%
D37*
%TO.C,C23*%
X106012500Y-126500000D03*
X108087500Y-126500000D03*
%TD*%
D81*
%TO.C,C43*%
X203900000Y-102337500D03*
X203900000Y-105462500D03*
%TD*%
D84*
%TO.C,U4*%
X90249188Y-38023945D03*
X90249188Y-36753945D03*
X90249188Y-35483945D03*
X90249188Y-34213945D03*
X90249188Y-32943945D03*
X90249188Y-31673945D03*
X90249188Y-30403945D03*
X90249188Y-29133945D03*
X90249188Y-27863945D03*
X90249188Y-26593945D03*
X90249188Y-25323945D03*
X90249188Y-24053945D03*
X90249188Y-22783945D03*
X90249188Y-21513945D03*
X80949188Y-21513945D03*
X80949188Y-22783945D03*
X80949188Y-24053945D03*
X80949188Y-25323945D03*
X80949188Y-26593945D03*
X80949188Y-27863945D03*
X80949188Y-29133945D03*
X80949188Y-30403945D03*
X80949188Y-31673945D03*
X80949188Y-32943945D03*
X80949188Y-34213945D03*
X80949188Y-35483945D03*
X80949188Y-36753945D03*
X80949188Y-38023945D03*
%TD*%
D34*
%TO.C,C8*%
X133287500Y-136150000D03*
X131212500Y-136150000D03*
%TD*%
D85*
%TO.C,C42*%
X203600000Y-90712500D03*
X203600000Y-87587500D03*
%TD*%
D86*
%TO.C,TP1*%
X144152655Y-144943070D03*
%TD*%
D28*
%TO.C,CP5*%
X115650000Y-125500000D03*
X115650000Y-130500000D03*
%TD*%
%TO.C,C38*%
X167601235Y-38918945D03*
X167601235Y-43918945D03*
%TD*%
D37*
%TO.C,C26*%
X145512500Y-123350000D03*
X147587500Y-123350000D03*
%TD*%
D87*
%TO.C,U1*%
X103225000Y-93395000D03*
X103225000Y-94665000D03*
X103225000Y-95935000D03*
X103225000Y-97205000D03*
X108175000Y-97205000D03*
X108175000Y-95935000D03*
X108175000Y-94665000D03*
X108175000Y-93395000D03*
%TD*%
D55*
%TO.C,H5*%
X59451235Y-17368945D03*
%TD*%
D34*
%TO.C,C28*%
X157090155Y-123943070D03*
X155015155Y-123943070D03*
%TD*%
D37*
%TO.C,C17*%
X137297175Y-104911630D03*
X139372175Y-104911630D03*
%TD*%
D56*
%TO.C,D1*%
X58000000Y-95700000D03*
D57*
X58000000Y-85540000D03*
%TD*%
D68*
%TO.C,L3*%
X102000000Y-131350000D03*
X93700000Y-131350000D03*
%TD*%
D86*
%TO.C,TP2*%
X146752655Y-144943070D03*
%TD*%
D88*
%TO.C,JP4*%
X124000000Y-88850000D03*
X124000000Y-90750000D03*
%TD*%
D55*
%TO.C,H1*%
X59550000Y-53650000D03*
%TD*%
D38*
%TO.C,C19*%
X87350000Y-140150000D03*
D28*
X87350000Y-142650000D03*
%TD*%
D34*
%TO.C,C14*%
X143422175Y-104911630D03*
X141347175Y-104911630D03*
%TD*%
D61*
%TO.C,F2*%
X159800000Y-109661630D03*
D89*
X159800000Y-101261630D03*
D62*
X159800000Y-88561630D03*
X159800000Y-80161630D03*
%TD*%
D51*
%TO.C,J6*%
X126856516Y-29719434D03*
D47*
X126856516Y-27719434D03*
X124856516Y-29719434D03*
X124856516Y-27719434D03*
X122856516Y-29719434D03*
X122856516Y-27719434D03*
X120856516Y-29719434D03*
X120856516Y-27719434D03*
X118856516Y-29719434D03*
X118856516Y-27719434D03*
X116856516Y-29719434D03*
X116856516Y-27719434D03*
%TD*%
D90*
%TO.C,BZ1*%
X85651235Y-16320222D03*
X85651235Y-43320222D03*
D91*
X59651235Y-27220222D03*
X59651235Y-32320222D03*
%TD*%
M02*
