%TF.GenerationSoftware,KiCad,Pcbnew,(6.0.0-rc1-489-g57af990066)*%
%TF.CreationDate,2021-12-17T01:52:51+00:00*%
%TF.ProjectId,solarpump,736f6c61-7270-4756-9d70-2e6b69636164,1.0*%
%TF.SameCoordinates,Original*%
%TF.FileFunction,Legend,Bot*%
%TF.FilePolarity,Positive*%
%FSLAX46Y46*%
G04 Gerber Fmt 4.6, Leading zero omitted, Abs format (unit mm)*
G04 Created by KiCad (PCBNEW (6.0.0-rc1-489-g57af990066)) date 2021-12-17 01:52:51*
%MOMM*%
%LPD*%
G01*
G04 APERTURE LIST*
%ADD10C,0.150000*%
%ADD11C,0.130000*%
%ADD12C,0.120000*%
G04 APERTURE END LIST*
D10*
%TO.C,BT2*%
X143521571Y-20708285D02*
X143569190Y-20851142D01*
X143616809Y-20898761D01*
X143712047Y-20946380D01*
X143854904Y-20946380D01*
X143950142Y-20898761D01*
X143997761Y-20851142D01*
X144045380Y-20755904D01*
X144045380Y-20374952D01*
X143045380Y-20374952D01*
X143045380Y-20708285D01*
X143093000Y-20803523D01*
X143140619Y-20851142D01*
X143235857Y-20898761D01*
X143331095Y-20898761D01*
X143426333Y-20851142D01*
X143473952Y-20803523D01*
X143521571Y-20708285D01*
X143521571Y-20374952D01*
X143045380Y-21232095D02*
X143045380Y-21803523D01*
X144045380Y-21517809D02*
X143045380Y-21517809D01*
X143140619Y-22089238D02*
X143093000Y-22136857D01*
X143045380Y-22232095D01*
X143045380Y-22470190D01*
X143093000Y-22565428D01*
X143140619Y-22613047D01*
X143235857Y-22660666D01*
X143331095Y-22660666D01*
X143473952Y-22613047D01*
X144045380Y-22041619D01*
X144045380Y-22660666D01*
%TO.C,J12*%
X135947690Y-22779580D02*
X135947690Y-23493866D01*
X135995309Y-23636723D01*
X136090547Y-23731961D01*
X136233405Y-23779580D01*
X136328643Y-23779580D01*
X134947690Y-23779580D02*
X135519119Y-23779580D01*
X135233405Y-23779580D02*
X135233405Y-22779580D01*
X135328643Y-22922438D01*
X135423881Y-23017676D01*
X135519119Y-23065295D01*
X134566738Y-22874819D02*
X134519119Y-22827200D01*
X134423881Y-22779580D01*
X134185786Y-22779580D01*
X134090547Y-22827200D01*
X134042928Y-22874819D01*
X133995309Y-22970057D01*
X133995309Y-23065295D01*
X134042928Y-23208152D01*
X134614357Y-23779580D01*
X133995309Y-23779580D01*
%TO.C,J6*%
X83347380Y-19351666D02*
X84061666Y-19351666D01*
X84204523Y-19304047D01*
X84299761Y-19208809D01*
X84347380Y-19065952D01*
X84347380Y-18970714D01*
X83347380Y-20256428D02*
X83347380Y-20065952D01*
X83395000Y-19970714D01*
X83442619Y-19923095D01*
X83585476Y-19827857D01*
X83775952Y-19780238D01*
X84156904Y-19780238D01*
X84252142Y-19827857D01*
X84299761Y-19875476D01*
X84347380Y-19970714D01*
X84347380Y-20161190D01*
X84299761Y-20256428D01*
X84252142Y-20304047D01*
X84156904Y-20351666D01*
X83918809Y-20351666D01*
X83823571Y-20304047D01*
X83775952Y-20256428D01*
X83728333Y-20161190D01*
X83728333Y-19970714D01*
X83775952Y-19875476D01*
X83823571Y-19827857D01*
X83918809Y-19780238D01*
%TO.C,BZ1*%
X50355428Y-33773952D02*
X50307809Y-33631095D01*
X50260190Y-33583476D01*
X50164952Y-33535857D01*
X50022095Y-33535857D01*
X49926857Y-33583476D01*
X49879238Y-33631095D01*
X49831619Y-33726333D01*
X49831619Y-34107285D01*
X50831619Y-34107285D01*
X50831619Y-33773952D01*
X50784000Y-33678714D01*
X50736380Y-33631095D01*
X50641142Y-33583476D01*
X50545904Y-33583476D01*
X50450666Y-33631095D01*
X50403047Y-33678714D01*
X50355428Y-33773952D01*
X50355428Y-34107285D01*
X50831619Y-33202523D02*
X50831619Y-32535857D01*
X49831619Y-33202523D01*
X49831619Y-32535857D01*
X49831619Y-31631095D02*
X49831619Y-32202523D01*
X49831619Y-31916809D02*
X50831619Y-31916809D01*
X50688761Y-32012047D01*
X50593523Y-32107285D01*
X50545904Y-32202523D01*
D11*
X56862600Y-51233228D02*
X56834028Y-51204657D01*
X56748314Y-51147514D01*
X56691171Y-51118942D01*
X56605457Y-51090371D01*
X56462600Y-51061800D01*
X56348314Y-51061800D01*
X56205457Y-51090371D01*
X56119742Y-51118942D01*
X56062600Y-51147514D01*
X55976885Y-51204657D01*
X55948314Y-51233228D01*
X56234028Y-51404657D02*
X56634028Y-51518942D01*
X56348314Y-51633228D01*
X56634028Y-51747514D01*
X56234028Y-51861800D01*
X56634028Y-52090371D02*
X56234028Y-52090371D01*
X56034028Y-52090371D02*
X56062600Y-52061800D01*
X56091171Y-52090371D01*
X56062600Y-52118942D01*
X56034028Y-52090371D01*
X56091171Y-52090371D01*
X56634028Y-52376085D02*
X56234028Y-52376085D01*
X56348314Y-52376085D02*
X56291171Y-52404657D01*
X56262600Y-52433228D01*
X56234028Y-52490371D01*
X56234028Y-52547514D01*
X56605457Y-52976085D02*
X56634028Y-52918942D01*
X56634028Y-52804657D01*
X56605457Y-52747514D01*
X56548314Y-52718942D01*
X56319742Y-52718942D01*
X56262600Y-52747514D01*
X56234028Y-52804657D01*
X56234028Y-52918942D01*
X56262600Y-52976085D01*
X56319742Y-53004657D01*
X56376885Y-53004657D01*
X56434028Y-52718942D01*
X56605457Y-53233228D02*
X56634028Y-53290371D01*
X56634028Y-53404657D01*
X56605457Y-53461800D01*
X56548314Y-53490371D01*
X56519742Y-53490371D01*
X56462600Y-53461800D01*
X56434028Y-53404657D01*
X56434028Y-53318942D01*
X56405457Y-53261800D01*
X56348314Y-53233228D01*
X56319742Y-53233228D01*
X56262600Y-53261800D01*
X56234028Y-53318942D01*
X56234028Y-53404657D01*
X56262600Y-53461800D01*
X56862600Y-53690371D02*
X56834028Y-53718942D01*
X56748314Y-53776085D01*
X56691171Y-53804657D01*
X56605457Y-53833228D01*
X56462600Y-53861800D01*
X56348314Y-53861800D01*
X56205457Y-53833228D01*
X56119742Y-53804657D01*
X56062600Y-53776085D01*
X55976885Y-53718942D01*
X55948314Y-53690371D01*
D10*
X56434028Y-54580847D02*
X56434028Y-55342752D01*
X56434028Y-49580847D02*
X56434028Y-50342752D01*
X56814980Y-49961800D02*
X56053076Y-49961800D01*
D11*
X50069714Y-42035857D02*
X50069714Y-41921571D01*
X50012571Y-41807285D01*
X49898285Y-41750142D01*
X49784000Y-41750142D01*
X49669714Y-41807285D01*
X49612571Y-41921571D01*
X49612571Y-42035857D01*
X49669714Y-42150142D01*
X49784000Y-42207285D01*
X49898285Y-42207285D01*
X50012571Y-42150142D01*
X50069714Y-42035857D01*
X50069714Y-41750142D02*
X49612571Y-42207285D01*
X49612571Y-41150142D02*
X49612571Y-41493000D01*
X49612571Y-41321571D02*
X50212571Y-41321571D01*
X50126857Y-41378714D01*
X50069714Y-41435857D01*
X50041142Y-41493000D01*
X49612571Y-40893000D02*
X50012571Y-40893000D01*
X49955428Y-40893000D02*
X49984000Y-40864428D01*
X50012571Y-40807285D01*
X50012571Y-40721571D01*
X49984000Y-40664428D01*
X49926857Y-40635857D01*
X49612571Y-40635857D01*
X49926857Y-40635857D02*
X49984000Y-40607285D01*
X50012571Y-40550142D01*
X50012571Y-40464428D01*
X49984000Y-40407285D01*
X49926857Y-40378714D01*
X49612571Y-40378714D01*
X49612571Y-40093000D02*
X50012571Y-40093000D01*
X49955428Y-40093000D02*
X49984000Y-40064428D01*
X50012571Y-40007285D01*
X50012571Y-39921571D01*
X49984000Y-39864428D01*
X49926857Y-39835857D01*
X49612571Y-39835857D01*
X49926857Y-39835857D02*
X49984000Y-39807285D01*
X50012571Y-39750142D01*
X50012571Y-39664428D01*
X49984000Y-39607285D01*
X49926857Y-39578714D01*
X49612571Y-39578714D01*
D12*
%TO.C,BT2*%
X148493000Y-19174000D02*
X145893000Y-19174000D01*
X149843000Y-20524000D02*
X148493000Y-19174000D01*
X149843000Y-24174000D02*
X149843000Y-20524000D01*
X145893000Y-19174000D02*
X144543000Y-20524000D01*
X144543000Y-20524000D02*
X144543000Y-24174000D01*
X144543000Y-24174000D02*
G75*
G03*
X149843000Y-24174000I2650000J-7202488D01*
G01*
%TO.C,J12*%
X96117200Y-20637200D02*
X96117200Y-21852200D01*
X104117200Y-22237200D02*
X104117200Y-20637200D01*
X94917200Y-14417200D02*
X105037200Y-14417200D01*
X104277200Y-16677200D02*
X103277200Y-16677200D01*
X96677200Y-16677200D02*
X96677200Y-14417200D01*
X103277200Y-18277200D02*
X104277200Y-18277200D01*
X104277200Y-18277200D02*
X104277200Y-16677200D01*
X105037200Y-14417200D02*
X105037200Y-22237200D01*
X105037200Y-22237200D02*
X104117200Y-22237200D01*
X95677200Y-16677200D02*
X96677200Y-16677200D01*
X96677200Y-16677200D02*
X96677200Y-18277200D01*
X95837200Y-22237200D02*
X94917200Y-22237200D01*
X96117200Y-20637200D02*
X95837200Y-20637200D01*
X94917200Y-20637200D02*
X95837200Y-20637200D01*
X94917200Y-22237200D02*
X94917200Y-14417200D01*
X104117200Y-20637200D02*
X103837200Y-20637200D01*
X102477200Y-18777200D02*
X102477200Y-14417200D01*
X97477200Y-18777200D02*
X102477200Y-18777200D01*
X105037200Y-20637200D02*
X104117200Y-20637200D01*
X96677200Y-18277200D02*
X95677200Y-18277200D01*
X103277200Y-16677200D02*
X103277200Y-18277200D01*
X95837200Y-20637200D02*
X95837200Y-22237200D01*
X97477200Y-14417200D02*
X97477200Y-18777200D01*
X96177200Y-16677200D02*
X96177200Y-14417200D01*
X95677200Y-18277200D02*
X95677200Y-16677200D01*
%TO.C,J6*%
X82895000Y-17625000D02*
X70775000Y-17625000D01*
X81835000Y-21745000D02*
X82895000Y-21745000D01*
X82895000Y-21745000D02*
X82895000Y-20685000D01*
X70775000Y-21745000D02*
X70775000Y-17625000D01*
X80835000Y-21745000D02*
X70775000Y-21745000D01*
X80835000Y-21745000D02*
X80835000Y-19685000D01*
X80835000Y-19685000D02*
X82895000Y-19685000D01*
X82895000Y-19685000D02*
X82895000Y-17625000D01*
%TO.C,BZ1*%
X53284000Y-15893000D02*
X58284000Y-20893000D01*
X46284000Y-15893000D02*
X41284000Y-20893000D01*
X58284000Y-30893000D02*
X59284000Y-30893000D01*
X46284000Y-49893000D02*
X41284000Y-44893000D01*
X53284000Y-49893000D02*
X46284000Y-49893000D01*
X53284000Y-49893000D02*
X58284000Y-44893000D01*
X53284000Y-15893000D02*
X46284000Y-15893000D01*
X58284000Y-30393000D02*
X59284000Y-30393000D01*
X58284000Y-44893000D02*
X41284000Y-44893000D01*
X41284000Y-44893000D02*
X41284000Y-20893000D01*
X41284000Y-20893000D02*
X58284000Y-20893000D01*
X58284000Y-20893000D02*
X58284000Y-44893000D01*
X51784000Y-19393000D02*
G75*
G03*
X51784000Y-19393000I-2000000J0D01*
G01*
X51784000Y-46393000D02*
G75*
G03*
X51784000Y-46393000I-2000000J0D01*
G01*
%TD*%
M02*
