M48
; DRILL file {KiCad (6.0.0-rc1-393-g0ad0627bb0)} date Thursday, 16 December 2021 at 01:21:59
; FORMAT={3:3/ absolute / metric / suppress leading zeros}
; #@! TF.CreationDate,2021-12-16T01:21:59+00:00
; #@! TF.GenerationSoftware,Kicad,Pcbnew,(6.0.0-rc1-393-g0ad0627bb0)
; #@! TF.FileFunction,MixedPlating,1,2
FMAT,2
METRIC,TZ
; #@! TA.AperFunction,Plated,PTH,ViaDrill
T1C0.400
; #@! TA.AperFunction,Plated,PTH,ComponentDrill
T2C0.750
; #@! TA.AperFunction,Plated,PTH,ComponentDrill
T3C0.762
; #@! TA.AperFunction,Plated,PTH,ComponentDrill
T4C0.800
; #@! TA.AperFunction,Plated,PTH,ComponentDrill
T5C0.900
; #@! TA.AperFunction,Plated,PTH,ComponentDrill
T6C1.020
; #@! TA.AperFunction,Plated,PTH,ComponentDrill
T7C1.100
; #@! TA.AperFunction,Plated,PTH,ComponentDrill
T8C1.300
; #@! TA.AperFunction,NonPlated,NPTH,ComponentDrill
T9C1.400
; #@! TA.AperFunction,NonPlated,NPTH,ComponentDrill
T10C1.750
; #@! TA.AperFunction,NonPlated,NPTH,ComponentDrill
T11C3.500
; #@! TA.AperFunction,NonPlated,NPTH,ComponentDrill
T12C4.300
%
G90
G05
T1
X19863Y-23419
X19863Y-45919
X28854Y-41275
X47650Y-37719
X49759Y-17145
X49759Y-26568
X49759Y-31953
X49759Y-40945
X54356Y-52578
X56388Y-38354
X60096Y-18186
X60179Y-28126
X60829Y-42576
X60833Y-44323
X63627Y-45847
X64897Y-30607
X67755Y-49987
X67996Y-23520
X68783Y-22149
X68961Y-33909
X71882Y-54127
X72136Y-49911
X74168Y-49911
X74422Y-32004
X74422Y-33147
X75565Y-27305
X75754Y-49276
X78842Y-23647
X80391Y-22672
X81712Y-24765
X83795Y-25527
X84252Y-21920
X85496Y-25730
X90043Y-20701
X91059Y-48232
X91854Y-31953
X95554Y-47232
X95554Y-49432
X99454Y-46332
X103254Y-49432
X110854Y-31953
X116103Y-15291
X116103Y-19914
X116103Y-31953
X134239Y-15621
X136398Y-17272
X137668Y-23165
X138913Y-21844
X139548Y-31953
X139548Y-39726
X139548Y-45872
X139548Y-53696
X155956Y-21082
X155956Y-23749
X155956Y-26162
X157353Y-46482
X157531Y-39853
X158369Y-41173
X159258Y-32766
X159766Y-38530
X170180Y-31331
X170256Y-45720
X178840Y-34519
X181280Y-40996
T2
X96977Y-20777
X98977Y-20777
X100977Y-20777
X102977Y-20777
T3
X57863Y-49862
X57863Y-54962
T4
X71835Y-18685
X71835Y-20685
X73835Y-18685
X73835Y-20685
X75835Y-18685
X75835Y-20685
X77835Y-18685
X77835Y-20685
X79074Y-27292
X79074Y-42532
X79835Y-18685
X79835Y-20685
X81614Y-27292
X81614Y-42532
X81835Y-18685
X81835Y-20685
X84154Y-27292
X84154Y-42532
X86694Y-27292
X86694Y-42532
X89234Y-27292
X89234Y-42532
X91774Y-27292
X91774Y-42532
X94314Y-27292
X94314Y-42532
X96854Y-27292
X96854Y-42532
X99394Y-27292
X99394Y-42532
X101934Y-27292
X101934Y-42532
X104474Y-27292
X104474Y-42532
X107014Y-27292
X107014Y-42532
X109554Y-27292
X109554Y-42532
X112094Y-27292
X112094Y-42532
X114634Y-27292
X114634Y-42532
X117174Y-27292
X117174Y-42532
X119714Y-27292
X119714Y-42532
X122254Y-27292
X122254Y-42532
X124794Y-27292
X124794Y-42532
X127334Y-27292
X127334Y-42532
T5
X38259Y-23800
X38259Y-26340
X38259Y-28880
X38259Y-31420
X38259Y-33960
X38259Y-36500
X38259Y-39040
X38259Y-41580
X38259Y-44120
X38259Y-46660
T6
X147193Y-21844
X147193Y-31374
T7
X108190Y-47092
X112790Y-47092
X117258Y-47092
X121858Y-47092
X126467Y-47092
X131067Y-47092
T8
X23343Y-25121
X27153Y-28931
T9
X23343Y-32741
X30963Y-25121
T10
X49784Y-19393
X49784Y-46393
T11
X39259Y-17265
X39259Y-53265
X157259Y-17265
X157259Y-53265
T12
X22256Y-17272
X22256Y-52578
X178054Y-17272
X178054Y-52578
T0
M30
