%TF.GenerationSoftware,KiCad,Pcbnew,(6.0.0-rc1-393-g0ad0627bb0)*%
%TF.CreationDate,2021-12-16T01:21:56+00:00*%
%TF.ProjectId,solarpump_disp,736f6c61-7270-4756-9d70-5f646973702e,1.0*%
%TF.SameCoordinates,Original*%
%TF.FileFunction,Legend,Top*%
%TF.FilePolarity,Positive*%
%FSLAX46Y46*%
G04 Gerber Fmt 4.6, Leading zero omitted, Abs format (unit mm)*
G04 Created by KiCad (PCBNEW (6.0.0-rc1-393-g0ad0627bb0)) date 2021-12-16 01:21:56*
%MOMM*%
%LPD*%
G01*
G04 APERTURE LIST*
%ADD10C,0.120000*%
%ADD11C,0.150000*%
%ADD12C,0.160000*%
%ADD13C,0.060000*%
%ADD14C,0.250000*%
%ADD15C,0.100000*%
G04 APERTURE END LIST*
D10*
X170078400Y-13944600D02*
X169697400Y-13919200D01*
X169697400Y-13919200D02*
X170459400Y-13919200D01*
X170459400Y-13919200D02*
X170078400Y-13944600D01*
G36*
X170078400Y-13944600D02*
G01*
X169697400Y-13919200D01*
X170459400Y-13919200D01*
X170078400Y-13944600D01*
G37*
X170078400Y-13944600D02*
X169697400Y-13919200D01*
X170459400Y-13919200D01*
X170078400Y-13944600D01*
X170078400Y-14884400D02*
X170078400Y-13665200D01*
X165125400Y-14706600D02*
X164414200Y-14706600D01*
X164414200Y-14706600D02*
X164769800Y-14071600D01*
X164769800Y-14071600D02*
X165125400Y-14706600D01*
G36*
X165125400Y-14706600D02*
G01*
X164414200Y-14706600D01*
X164769800Y-14071600D01*
X165125400Y-14706600D01*
G37*
X165125400Y-14706600D02*
X164414200Y-14706600D01*
X164769800Y-14071600D01*
X165125400Y-14706600D01*
X170434000Y-14630400D02*
X169722800Y-14630400D01*
X169722800Y-14630400D02*
X170078400Y-13995400D01*
X170078400Y-13995400D02*
X170434000Y-14630400D01*
G36*
X170434000Y-14630400D02*
G01*
X169722800Y-14630400D01*
X170078400Y-13995400D01*
X170434000Y-14630400D01*
G37*
X170434000Y-14630400D02*
X169722800Y-14630400D01*
X170078400Y-13995400D01*
X170434000Y-14630400D01*
X78465288Y-44434366D02*
G75*
G03*
X78465288Y-44434366I-500000J0D01*
G01*
X74577765Y-44007055D02*
G75*
G03*
X74577765Y-44007055I-500000J0D01*
G01*
X164769800Y-14020800D02*
X164388800Y-13995400D01*
X164388800Y-13995400D02*
X165150800Y-13995400D01*
X165150800Y-13995400D02*
X164769800Y-14020800D01*
G36*
X164769800Y-14020800D02*
G01*
X164388800Y-13995400D01*
X165150800Y-13995400D01*
X164769800Y-14020800D01*
G37*
X164769800Y-14020800D02*
X164388800Y-13995400D01*
X165150800Y-13995400D01*
X164769800Y-14020800D01*
X164769800Y-14960600D02*
X164769800Y-13741400D01*
D11*
X26229185Y-45759361D02*
X26357757Y-45806980D01*
X26572042Y-45806980D01*
X26657757Y-45759361D01*
X26700614Y-45711742D01*
X26743471Y-45616504D01*
X26743471Y-45521266D01*
X26700614Y-45426028D01*
X26657757Y-45378409D01*
X26572042Y-45330790D01*
X26400614Y-45283171D01*
X26314900Y-45235552D01*
X26272042Y-45187933D01*
X26229185Y-45092695D01*
X26229185Y-44997457D01*
X26272042Y-44902219D01*
X26314900Y-44854600D01*
X26400614Y-44806980D01*
X26614900Y-44806980D01*
X26743471Y-44854600D01*
X27257757Y-45806980D02*
X27172042Y-45759361D01*
X27129185Y-45711742D01*
X27086328Y-45616504D01*
X27086328Y-45330790D01*
X27129185Y-45235552D01*
X27172042Y-45187933D01*
X27257757Y-45140314D01*
X27386328Y-45140314D01*
X27472042Y-45187933D01*
X27514900Y-45235552D01*
X27557757Y-45330790D01*
X27557757Y-45616504D01*
X27514900Y-45711742D01*
X27472042Y-45759361D01*
X27386328Y-45806980D01*
X27257757Y-45806980D01*
X28072042Y-45806980D02*
X27986328Y-45759361D01*
X27943471Y-45664123D01*
X27943471Y-44806980D01*
X28800614Y-45806980D02*
X28800614Y-45283171D01*
X28757757Y-45187933D01*
X28672042Y-45140314D01*
X28500614Y-45140314D01*
X28414900Y-45187933D01*
X28800614Y-45759361D02*
X28714900Y-45806980D01*
X28500614Y-45806980D01*
X28414900Y-45759361D01*
X28372042Y-45664123D01*
X28372042Y-45568885D01*
X28414900Y-45473647D01*
X28500614Y-45426028D01*
X28714900Y-45426028D01*
X28800614Y-45378409D01*
X29229185Y-45806980D02*
X29229185Y-45140314D01*
X29229185Y-45330790D02*
X29272042Y-45235552D01*
X29314900Y-45187933D01*
X29400614Y-45140314D01*
X29486328Y-45140314D01*
X29786328Y-45806980D02*
X29786328Y-44806980D01*
X30129185Y-44806980D01*
X30214900Y-44854600D01*
X30257757Y-44902219D01*
X30300614Y-44997457D01*
X30300614Y-45140314D01*
X30257757Y-45235552D01*
X30214900Y-45283171D01*
X30129185Y-45330790D01*
X29786328Y-45330790D01*
X31072042Y-45140314D02*
X31072042Y-45806980D01*
X30686328Y-45140314D02*
X30686328Y-45664123D01*
X30729185Y-45759361D01*
X30814900Y-45806980D01*
X30943471Y-45806980D01*
X31029185Y-45759361D01*
X31072042Y-45711742D01*
X31500614Y-45806980D02*
X31500614Y-45140314D01*
X31500614Y-45235552D02*
X31543471Y-45187933D01*
X31629185Y-45140314D01*
X31757757Y-45140314D01*
X31843471Y-45187933D01*
X31886328Y-45283171D01*
X31886328Y-45806980D01*
X31886328Y-45283171D02*
X31929185Y-45187933D01*
X32014900Y-45140314D01*
X32143471Y-45140314D01*
X32229185Y-45187933D01*
X32272042Y-45283171D01*
X32272042Y-45806980D01*
X32700614Y-45140314D02*
X32700614Y-46140314D01*
X32700614Y-45187933D02*
X32786328Y-45140314D01*
X32957757Y-45140314D01*
X33043471Y-45187933D01*
X33086328Y-45235552D01*
X33129185Y-45330790D01*
X33129185Y-45616504D01*
X33086328Y-45711742D01*
X33043471Y-45759361D01*
X32957757Y-45806980D01*
X32786328Y-45806980D01*
X32700614Y-45759361D01*
X34072042Y-44806980D02*
X34372042Y-45806980D01*
X34672042Y-44806980D01*
X34886328Y-44806980D02*
X35443471Y-44806980D01*
X35143471Y-45187933D01*
X35272042Y-45187933D01*
X35357757Y-45235552D01*
X35400614Y-45283171D01*
X35443471Y-45378409D01*
X35443471Y-45616504D01*
X35400614Y-45711742D01*
X35357757Y-45759361D01*
X35272042Y-45806980D01*
X35014900Y-45806980D01*
X34929185Y-45759361D01*
X34886328Y-45711742D01*
X19929185Y-47416980D02*
X19629185Y-46940790D01*
X19414899Y-47416980D02*
X19414899Y-46416980D01*
X19757757Y-46416980D01*
X19843471Y-46464600D01*
X19886328Y-46512219D01*
X19929185Y-46607457D01*
X19929185Y-46750314D01*
X19886328Y-46845552D01*
X19843471Y-46893171D01*
X19757757Y-46940790D01*
X19414899Y-46940790D01*
X20700614Y-46750314D02*
X20700614Y-47416980D01*
X20314899Y-46750314D02*
X20314899Y-47274123D01*
X20357757Y-47369361D01*
X20443471Y-47416980D01*
X20572042Y-47416980D01*
X20657757Y-47369361D01*
X20700614Y-47321742D01*
X21000614Y-46750314D02*
X21343471Y-46750314D01*
X21129185Y-46416980D02*
X21129185Y-47274123D01*
X21172042Y-47369361D01*
X21257757Y-47416980D01*
X21343471Y-47416980D01*
X21643471Y-47416980D02*
X21643471Y-46416980D01*
X22029185Y-47416980D02*
X22029185Y-46893171D01*
X21986328Y-46797933D01*
X21900614Y-46750314D01*
X21772042Y-46750314D01*
X21686328Y-46797933D01*
X21643471Y-46845552D01*
X23143471Y-47416980D02*
X23143471Y-46416980D01*
X23486328Y-46750314D02*
X23700614Y-47416980D01*
X23914899Y-46750314D01*
X24257757Y-47416980D02*
X24257757Y-46750314D01*
X24257757Y-46416980D02*
X24214900Y-46464600D01*
X24257757Y-46512219D01*
X24300614Y-46464600D01*
X24257757Y-46416980D01*
X24257757Y-46512219D01*
X24686328Y-47416980D02*
X24686328Y-46750314D01*
X24686328Y-46845552D02*
X24729185Y-46797933D01*
X24814899Y-46750314D01*
X24943471Y-46750314D01*
X25029185Y-46797933D01*
X25072042Y-46893171D01*
X25072042Y-47416980D01*
X25072042Y-46893171D02*
X25114899Y-46797933D01*
X25200614Y-46750314D01*
X25329185Y-46750314D01*
X25414899Y-46797933D01*
X25457757Y-46893171D01*
X25457757Y-47416980D01*
X26229185Y-47369361D02*
X26143471Y-47416980D01*
X25972042Y-47416980D01*
X25886328Y-47369361D01*
X25843471Y-47274123D01*
X25843471Y-46893171D01*
X25886328Y-46797933D01*
X25972042Y-46750314D01*
X26143471Y-46750314D01*
X26229185Y-46797933D01*
X26272042Y-46893171D01*
X26272042Y-46988409D01*
X25843471Y-47083647D01*
X26572042Y-46750314D02*
X26786328Y-47416980D01*
X27000614Y-46750314D02*
X26786328Y-47416980D01*
X26700614Y-47655076D01*
X26657757Y-47702695D01*
X26572042Y-47750314D01*
X27343471Y-47036028D02*
X28029185Y-47036028D01*
X28972042Y-47321742D02*
X28929185Y-47369361D01*
X28800614Y-47416980D01*
X28714899Y-47416980D01*
X28586328Y-47369361D01*
X28500614Y-47274123D01*
X28457757Y-47178885D01*
X28414899Y-46988409D01*
X28414899Y-46845552D01*
X28457757Y-46655076D01*
X28500614Y-46559838D01*
X28586328Y-46464600D01*
X28714899Y-46416980D01*
X28800614Y-46416980D01*
X28929185Y-46464600D01*
X28972042Y-46512219D01*
X29486328Y-47416980D02*
X29400614Y-47369361D01*
X29357757Y-47321742D01*
X29314899Y-47226504D01*
X29314899Y-46940790D01*
X29357757Y-46845552D01*
X29400614Y-46797933D01*
X29486328Y-46750314D01*
X29614899Y-46750314D01*
X29700614Y-46797933D01*
X29743471Y-46845552D01*
X29786328Y-46940790D01*
X29786328Y-47226504D01*
X29743471Y-47321742D01*
X29700614Y-47369361D01*
X29614899Y-47416980D01*
X29486328Y-47416980D01*
X30300614Y-47416980D02*
X30214899Y-47369361D01*
X30172042Y-47321742D01*
X30129185Y-47226504D01*
X30129185Y-46940790D01*
X30172042Y-46845552D01*
X30214899Y-46797933D01*
X30300614Y-46750314D01*
X30429185Y-46750314D01*
X30514899Y-46797933D01*
X30557757Y-46845552D01*
X30600614Y-46940790D01*
X30600614Y-47226504D01*
X30557757Y-47321742D01*
X30514899Y-47369361D01*
X30429185Y-47416980D01*
X30300614Y-47416980D01*
X30986328Y-47416980D02*
X30986328Y-46416980D01*
X31072042Y-47036028D02*
X31329185Y-47416980D01*
X31329185Y-46750314D02*
X30986328Y-47131266D01*
X32357757Y-46512219D02*
X32400614Y-46464600D01*
X32486328Y-46416980D01*
X32700614Y-46416980D01*
X32786328Y-46464600D01*
X32829185Y-46512219D01*
X32872042Y-46607457D01*
X32872042Y-46702695D01*
X32829185Y-46845552D01*
X32314900Y-47416980D01*
X32872042Y-47416980D01*
X33429185Y-46416980D02*
X33514899Y-46416980D01*
X33600614Y-46464600D01*
X33643471Y-46512219D01*
X33686328Y-46607457D01*
X33729185Y-46797933D01*
X33729185Y-47036028D01*
X33686328Y-47226504D01*
X33643471Y-47321742D01*
X33600614Y-47369361D01*
X33514899Y-47416980D01*
X33429185Y-47416980D01*
X33343471Y-47369361D01*
X33300614Y-47321742D01*
X33257757Y-47226504D01*
X33214899Y-47036028D01*
X33214899Y-46797933D01*
X33257757Y-46607457D01*
X33300614Y-46512219D01*
X33343471Y-46464600D01*
X33429185Y-46416980D01*
X34072042Y-46512219D02*
X34114900Y-46464600D01*
X34200614Y-46416980D01*
X34414900Y-46416980D01*
X34500614Y-46464600D01*
X34543471Y-46512219D01*
X34586328Y-46607457D01*
X34586328Y-46702695D01*
X34543471Y-46845552D01*
X34029185Y-47416980D01*
X34586328Y-47416980D01*
X35443471Y-47416980D02*
X34929185Y-47416980D01*
X35186328Y-47416980D02*
X35186328Y-46416980D01*
X35100614Y-46559838D01*
X35014899Y-46655076D01*
X34929185Y-46702695D01*
X27386328Y-48503171D02*
X27514900Y-48550790D01*
X27557757Y-48598409D01*
X27600614Y-48693647D01*
X27600614Y-48836504D01*
X27557757Y-48931742D01*
X27514900Y-48979361D01*
X27429185Y-49026980D01*
X27086328Y-49026980D01*
X27086328Y-48026980D01*
X27386328Y-48026980D01*
X27472042Y-48074600D01*
X27514900Y-48122219D01*
X27557757Y-48217457D01*
X27557757Y-48312695D01*
X27514900Y-48407933D01*
X27472042Y-48455552D01*
X27386328Y-48503171D01*
X27086328Y-48503171D01*
X28114900Y-49026980D02*
X28029185Y-48979361D01*
X27986328Y-48931742D01*
X27943471Y-48836504D01*
X27943471Y-48550790D01*
X27986328Y-48455552D01*
X28029185Y-48407933D01*
X28114900Y-48360314D01*
X28243471Y-48360314D01*
X28329185Y-48407933D01*
X28372042Y-48455552D01*
X28414900Y-48550790D01*
X28414900Y-48836504D01*
X28372042Y-48931742D01*
X28329185Y-48979361D01*
X28243471Y-49026980D01*
X28114900Y-49026980D01*
X29186328Y-49026980D02*
X29186328Y-48503171D01*
X29143471Y-48407933D01*
X29057757Y-48360314D01*
X28886328Y-48360314D01*
X28800614Y-48407933D01*
X29186328Y-48979361D02*
X29100614Y-49026980D01*
X28886328Y-49026980D01*
X28800614Y-48979361D01*
X28757757Y-48884123D01*
X28757757Y-48788885D01*
X28800614Y-48693647D01*
X28886328Y-48646028D01*
X29100614Y-48646028D01*
X29186328Y-48598409D01*
X29614900Y-49026980D02*
X29614900Y-48360314D01*
X29614900Y-48550790D02*
X29657757Y-48455552D01*
X29700614Y-48407933D01*
X29786328Y-48360314D01*
X29872042Y-48360314D01*
X30557757Y-49026980D02*
X30557757Y-48026980D01*
X30557757Y-48979361D02*
X30472042Y-49026980D01*
X30300614Y-49026980D01*
X30214900Y-48979361D01*
X30172042Y-48931742D01*
X30129185Y-48836504D01*
X30129185Y-48550790D01*
X30172042Y-48455552D01*
X30214900Y-48407933D01*
X30300614Y-48360314D01*
X30472042Y-48360314D01*
X30557757Y-48407933D01*
X30986328Y-48931742D02*
X31029185Y-48979361D01*
X30986328Y-49026980D01*
X30943471Y-48979361D01*
X30986328Y-48931742D01*
X30986328Y-49026980D01*
X30986328Y-48407933D02*
X31029185Y-48455552D01*
X30986328Y-48503171D01*
X30943471Y-48455552D01*
X30986328Y-48407933D01*
X30986328Y-48503171D01*
X32100614Y-49026980D02*
X32100614Y-48026980D01*
X32314900Y-48026980D01*
X32443471Y-48074600D01*
X32529185Y-48169838D01*
X32572042Y-48265076D01*
X32614900Y-48455552D01*
X32614900Y-48598409D01*
X32572042Y-48788885D01*
X32529185Y-48884123D01*
X32443471Y-48979361D01*
X32314900Y-49026980D01*
X32100614Y-49026980D01*
X34157757Y-49026980D02*
X33643471Y-49026980D01*
X33900614Y-49026980D02*
X33900614Y-48026980D01*
X33814900Y-48169838D01*
X33729185Y-48265076D01*
X33643471Y-48312695D01*
X34543471Y-48931742D02*
X34586328Y-48979361D01*
X34543471Y-49026980D01*
X34500614Y-48979361D01*
X34543471Y-48931742D01*
X34543471Y-49026980D01*
X35143471Y-48026980D02*
X35229185Y-48026980D01*
X35314900Y-48074600D01*
X35357757Y-48122219D01*
X35400614Y-48217457D01*
X35443471Y-48407933D01*
X35443471Y-48646028D01*
X35400614Y-48836504D01*
X35357757Y-48931742D01*
X35314900Y-48979361D01*
X35229185Y-49026980D01*
X35143471Y-49026980D01*
X35057757Y-48979361D01*
X35014900Y-48931742D01*
X34972042Y-48836504D01*
X34929185Y-48646028D01*
X34929185Y-48407933D01*
X34972042Y-48217457D01*
X35014900Y-48122219D01*
X35057757Y-48074600D01*
X35143471Y-48026980D01*
D12*
X106327885Y-21549457D02*
X106242171Y-21506600D01*
X106156457Y-21420885D01*
X106027885Y-21292314D01*
X105942171Y-21249457D01*
X105856457Y-21249457D01*
X105899314Y-21463742D02*
X105813600Y-21420885D01*
X105727885Y-21335171D01*
X105685028Y-21163742D01*
X105685028Y-20863742D01*
X105727885Y-20692314D01*
X105813600Y-20606600D01*
X105899314Y-20563742D01*
X106070742Y-20563742D01*
X106156457Y-20606600D01*
X106242171Y-20692314D01*
X106285028Y-20863742D01*
X106285028Y-21163742D01*
X106242171Y-21335171D01*
X106156457Y-21420885D01*
X106070742Y-21463742D01*
X105899314Y-21463742D01*
X106585028Y-20563742D02*
X106799314Y-21463742D01*
X106970742Y-20820885D01*
X107142171Y-21463742D01*
X107356457Y-20563742D01*
X107699314Y-21463742D02*
X107699314Y-20563742D01*
X108127885Y-21463742D02*
X108127885Y-20563742D01*
X109070742Y-21378028D02*
X109027885Y-21420885D01*
X108899314Y-21463742D01*
X108813600Y-21463742D01*
X108685028Y-21420885D01*
X108599314Y-21335171D01*
X108556457Y-21249457D01*
X108513600Y-21078028D01*
X108513600Y-20949457D01*
X108556457Y-20778028D01*
X108599314Y-20692314D01*
X108685028Y-20606600D01*
X108813600Y-20563742D01*
X108899314Y-20563742D01*
X109027885Y-20606600D01*
X109070742Y-20649457D01*
X110142171Y-21463742D02*
X110142171Y-20563742D01*
X110527885Y-20649457D02*
X110570742Y-20606600D01*
X110656457Y-20563742D01*
X110870742Y-20563742D01*
X110956457Y-20606600D01*
X110999314Y-20649457D01*
X111042171Y-20735171D01*
X111042171Y-20820885D01*
X110999314Y-20949457D01*
X110485028Y-21463742D01*
X111042171Y-21463742D01*
X111942171Y-21378028D02*
X111899314Y-21420885D01*
X111770742Y-21463742D01*
X111685028Y-21463742D01*
X111556457Y-21420885D01*
X111470742Y-21335171D01*
X111427885Y-21249457D01*
X111385028Y-21078028D01*
X111385028Y-20949457D01*
X111427885Y-20778028D01*
X111470742Y-20692314D01*
X111556457Y-20606600D01*
X111685028Y-20563742D01*
X111770742Y-20563742D01*
X111899314Y-20606600D01*
X111942171Y-20649457D01*
D11*
X65226380Y-39766102D02*
X65940666Y-39766102D01*
X66083523Y-39813721D01*
X66178761Y-39908959D01*
X66226380Y-40051816D01*
X66226380Y-40147055D01*
X66226380Y-38813721D02*
X66226380Y-39289912D01*
X65226380Y-39289912D01*
X66131142Y-37908959D02*
X66178761Y-37956578D01*
X66226380Y-38099435D01*
X66226380Y-38194674D01*
X66178761Y-38337531D01*
X66083523Y-38432769D01*
X65988285Y-38480388D01*
X65797809Y-38528007D01*
X65654952Y-38528007D01*
X65464476Y-38480388D01*
X65369238Y-38432769D01*
X65274000Y-38337531D01*
X65226380Y-38194674D01*
X65226380Y-38099435D01*
X65274000Y-37956578D01*
X65321619Y-37908959D01*
X65226380Y-37194674D02*
X65940666Y-37194674D01*
X66083523Y-37242293D01*
X66178761Y-37337531D01*
X66226380Y-37480388D01*
X66226380Y-37575626D01*
X66226380Y-36242293D02*
X66226380Y-36718483D01*
X65226380Y-36718483D01*
X66131142Y-35337531D02*
X66178761Y-35385150D01*
X66226380Y-35528007D01*
X66226380Y-35623245D01*
X66178761Y-35766102D01*
X66083523Y-35861340D01*
X65988285Y-35908959D01*
X65797809Y-35956578D01*
X65654952Y-35956578D01*
X65464476Y-35908959D01*
X65369238Y-35861340D01*
X65274000Y-35766102D01*
X65226380Y-35623245D01*
X65226380Y-35528007D01*
X65274000Y-35385150D01*
X65321619Y-35337531D01*
X65226380Y-34623245D02*
X65940666Y-34623245D01*
X66083523Y-34670864D01*
X66178761Y-34766102D01*
X66226380Y-34908959D01*
X66226380Y-35004197D01*
X66226380Y-33670864D02*
X66226380Y-34147055D01*
X65226380Y-34147055D01*
X66131142Y-32766102D02*
X66178761Y-32813721D01*
X66226380Y-32956578D01*
X66226380Y-33051816D01*
X66178761Y-33194674D01*
X66083523Y-33289912D01*
X65988285Y-33337531D01*
X65797809Y-33385150D01*
X65654952Y-33385150D01*
X65464476Y-33337531D01*
X65369238Y-33289912D01*
X65274000Y-33194674D01*
X65226380Y-33051816D01*
X65226380Y-32956578D01*
X65274000Y-32813721D01*
X65321619Y-32766102D01*
X65226380Y-32051816D02*
X65940666Y-32051816D01*
X66083523Y-32099435D01*
X66178761Y-32194674D01*
X66226380Y-32337531D01*
X66226380Y-32432769D01*
X66226380Y-31099435D02*
X66226380Y-31575626D01*
X65226380Y-31575626D01*
X66131142Y-30194674D02*
X66178761Y-30242293D01*
X66226380Y-30385150D01*
X66226380Y-30480388D01*
X66178761Y-30623245D01*
X66083523Y-30718483D01*
X65988285Y-30766102D01*
X65797809Y-30813721D01*
X65654952Y-30813721D01*
X65464476Y-30766102D01*
X65369238Y-30718483D01*
X65274000Y-30623245D01*
X65226380Y-30480388D01*
X65226380Y-30385150D01*
X65274000Y-30242293D01*
X65321619Y-30194674D01*
D12*
X101092685Y-35128942D02*
X101092685Y-34228942D01*
X101435542Y-34228942D01*
X101521257Y-34271800D01*
X101564114Y-34314657D01*
X101606971Y-34400371D01*
X101606971Y-34528942D01*
X101564114Y-34614657D01*
X101521257Y-34657514D01*
X101435542Y-34700371D01*
X101092685Y-34700371D01*
X101992685Y-35128942D02*
X101992685Y-34528942D01*
X101992685Y-34228942D02*
X101949828Y-34271800D01*
X101992685Y-34314657D01*
X102035542Y-34271800D01*
X101992685Y-34228942D01*
X101992685Y-34314657D01*
X102806971Y-35086085D02*
X102721257Y-35128942D01*
X102549828Y-35128942D01*
X102464114Y-35086085D01*
X102421257Y-35043228D01*
X102378400Y-34957514D01*
X102378400Y-34700371D01*
X102421257Y-34614657D01*
X102464114Y-34571800D01*
X102549828Y-34528942D01*
X102721257Y-34528942D01*
X102806971Y-34571800D01*
X103321257Y-35128942D02*
X103235542Y-35086085D01*
X103192685Y-35043228D01*
X103149828Y-34957514D01*
X103149828Y-34700371D01*
X103192685Y-34614657D01*
X103235542Y-34571800D01*
X103321257Y-34528942D01*
X103449828Y-34528942D01*
X103535542Y-34571800D01*
X103578400Y-34614657D01*
X103621257Y-34700371D01*
X103621257Y-34957514D01*
X103578400Y-35043228D01*
X103535542Y-35086085D01*
X103449828Y-35128942D01*
X103321257Y-35128942D01*
X104692685Y-35128942D02*
X104692685Y-34228942D01*
X104906971Y-34228942D01*
X105035542Y-34271800D01*
X105121257Y-34357514D01*
X105164114Y-34443228D01*
X105206971Y-34614657D01*
X105206971Y-34743228D01*
X105164114Y-34914657D01*
X105121257Y-35000371D01*
X105035542Y-35086085D01*
X104906971Y-35128942D01*
X104692685Y-35128942D01*
X105592685Y-35128942D02*
X105592685Y-34528942D01*
X105592685Y-34228942D02*
X105549828Y-34271800D01*
X105592685Y-34314657D01*
X105635542Y-34271800D01*
X105592685Y-34228942D01*
X105592685Y-34314657D01*
X105978400Y-35086085D02*
X106064114Y-35128942D01*
X106235542Y-35128942D01*
X106321257Y-35086085D01*
X106364114Y-35000371D01*
X106364114Y-34957514D01*
X106321257Y-34871800D01*
X106235542Y-34828942D01*
X106106971Y-34828942D01*
X106021257Y-34786085D01*
X105978400Y-34700371D01*
X105978400Y-34657514D01*
X106021257Y-34571800D01*
X106106971Y-34528942D01*
X106235542Y-34528942D01*
X106321257Y-34571800D01*
X106749828Y-34528942D02*
X106749828Y-35428942D01*
X106749828Y-34571800D02*
X106835542Y-34528942D01*
X107006971Y-34528942D01*
X107092685Y-34571800D01*
X107135542Y-34614657D01*
X107178400Y-34700371D01*
X107178400Y-34957514D01*
X107135542Y-35043228D01*
X107092685Y-35086085D01*
X107006971Y-35128942D01*
X106835542Y-35128942D01*
X106749828Y-35086085D01*
X107692685Y-35128942D02*
X107606971Y-35086085D01*
X107564114Y-35000371D01*
X107564114Y-34228942D01*
X108421257Y-35128942D02*
X108421257Y-34657514D01*
X108378400Y-34571800D01*
X108292685Y-34528942D01*
X108121257Y-34528942D01*
X108035542Y-34571800D01*
X108421257Y-35086085D02*
X108335542Y-35128942D01*
X108121257Y-35128942D01*
X108035542Y-35086085D01*
X107992685Y-35000371D01*
X107992685Y-34914657D01*
X108035542Y-34828942D01*
X108121257Y-34786085D01*
X108335542Y-34786085D01*
X108421257Y-34743228D01*
X108764114Y-34528942D02*
X108978400Y-35128942D01*
X109192685Y-34528942D02*
X108978400Y-35128942D01*
X108892685Y-35343228D01*
X108849828Y-35386085D01*
X108764114Y-35428942D01*
X110221257Y-35128942D02*
X110221257Y-34228942D01*
X110221257Y-34657514D02*
X110735542Y-34657514D01*
X110735542Y-35128942D02*
X110735542Y-34228942D01*
X111549828Y-35128942D02*
X111549828Y-34657514D01*
X111506971Y-34571800D01*
X111421257Y-34528942D01*
X111249828Y-34528942D01*
X111164114Y-34571800D01*
X111549828Y-35086085D02*
X111464114Y-35128942D01*
X111249828Y-35128942D01*
X111164114Y-35086085D01*
X111121257Y-35000371D01*
X111121257Y-34914657D01*
X111164114Y-34828942D01*
X111249828Y-34786085D01*
X111464114Y-34786085D01*
X111549828Y-34743228D01*
X111849828Y-34528942D02*
X112192685Y-34528942D01*
X111978400Y-34228942D02*
X111978400Y-35000371D01*
X112021257Y-35086085D01*
X112106971Y-35128942D01*
X112192685Y-35128942D01*
D11*
%TO.C,TP5*%
X130310095Y-26554380D02*
X130881523Y-26554380D01*
X130595809Y-27554380D02*
X130595809Y-26554380D01*
X131214857Y-27554380D02*
X131214857Y-26554380D01*
X131595809Y-26554380D01*
X131691047Y-26602000D01*
X131738666Y-26649619D01*
X131786285Y-26744857D01*
X131786285Y-26887714D01*
X131738666Y-26982952D01*
X131691047Y-27030571D01*
X131595809Y-27078190D01*
X131214857Y-27078190D01*
X132691047Y-26554380D02*
X132214857Y-26554380D01*
X132167238Y-27030571D01*
X132214857Y-26982952D01*
X132310095Y-26935333D01*
X132548190Y-26935333D01*
X132643428Y-26982952D01*
X132691047Y-27030571D01*
X132738666Y-27125809D01*
X132738666Y-27363904D01*
X132691047Y-27459142D01*
X132643428Y-27506761D01*
X132548190Y-27554380D01*
X132310095Y-27554380D01*
X132214857Y-27506761D01*
X132167238Y-27459142D01*
%TO.C,R23*%
X86408907Y-16448435D02*
X86075574Y-15972245D01*
X85837479Y-16448435D02*
X85837479Y-15448435D01*
X86218431Y-15448435D01*
X86313669Y-15496055D01*
X86361288Y-15543674D01*
X86408907Y-15638912D01*
X86408907Y-15781769D01*
X86361288Y-15877007D01*
X86313669Y-15924626D01*
X86218431Y-15972245D01*
X85837479Y-15972245D01*
X86789860Y-15543674D02*
X86837479Y-15496055D01*
X86932717Y-15448435D01*
X87170812Y-15448435D01*
X87266050Y-15496055D01*
X87313669Y-15543674D01*
X87361288Y-15638912D01*
X87361288Y-15734150D01*
X87313669Y-15877007D01*
X86742241Y-16448435D01*
X87361288Y-16448435D01*
X87694622Y-15448435D02*
X88313669Y-15448435D01*
X87980336Y-15829388D01*
X88123193Y-15829388D01*
X88218431Y-15877007D01*
X88266050Y-15924626D01*
X88313669Y-16019864D01*
X88313669Y-16257959D01*
X88266050Y-16353197D01*
X88218431Y-16400816D01*
X88123193Y-16448435D01*
X87837479Y-16448435D01*
X87742241Y-16400816D01*
X87694622Y-16353197D01*
%TO.C,C37*%
X152446142Y-42521142D02*
X152398523Y-42568761D01*
X152255666Y-42616380D01*
X152160428Y-42616380D01*
X152017571Y-42568761D01*
X151922333Y-42473523D01*
X151874714Y-42378285D01*
X151827095Y-42187809D01*
X151827095Y-42044952D01*
X151874714Y-41854476D01*
X151922333Y-41759238D01*
X152017571Y-41664000D01*
X152160428Y-41616380D01*
X152255666Y-41616380D01*
X152398523Y-41664000D01*
X152446142Y-41711619D01*
X152779476Y-41616380D02*
X153398523Y-41616380D01*
X153065190Y-41997333D01*
X153208047Y-41997333D01*
X153303285Y-42044952D01*
X153350904Y-42092571D01*
X153398523Y-42187809D01*
X153398523Y-42425904D01*
X153350904Y-42521142D01*
X153303285Y-42568761D01*
X153208047Y-42616380D01*
X152922333Y-42616380D01*
X152827095Y-42568761D01*
X152779476Y-42521142D01*
X153731857Y-41616380D02*
X154398523Y-41616380D01*
X153969952Y-42616380D01*
%TO.C,R49*%
X165219142Y-23057380D02*
X164885809Y-22581190D01*
X164647714Y-23057380D02*
X164647714Y-22057380D01*
X165028666Y-22057380D01*
X165123904Y-22105000D01*
X165171523Y-22152619D01*
X165219142Y-22247857D01*
X165219142Y-22390714D01*
X165171523Y-22485952D01*
X165123904Y-22533571D01*
X165028666Y-22581190D01*
X164647714Y-22581190D01*
X166076285Y-22390714D02*
X166076285Y-23057380D01*
X165838190Y-22009761D02*
X165600095Y-22724047D01*
X166219142Y-22724047D01*
X166647714Y-23057380D02*
X166838190Y-23057380D01*
X166933428Y-23009761D01*
X166981047Y-22962142D01*
X167076285Y-22819285D01*
X167123904Y-22628809D01*
X167123904Y-22247857D01*
X167076285Y-22152619D01*
X167028666Y-22105000D01*
X166933428Y-22057380D01*
X166742952Y-22057380D01*
X166647714Y-22105000D01*
X166600095Y-22152619D01*
X166552476Y-22247857D01*
X166552476Y-22485952D01*
X166600095Y-22581190D01*
X166647714Y-22628809D01*
X166742952Y-22676428D01*
X166933428Y-22676428D01*
X167028666Y-22628809D01*
X167076285Y-22581190D01*
X167123904Y-22485952D01*
%TO.C,Q6*%
X47373208Y-51074542D02*
X47277970Y-51026923D01*
X47182732Y-50931684D01*
X47039875Y-50788827D01*
X46944637Y-50741208D01*
X46849399Y-50741208D01*
X46897018Y-50979303D02*
X46801780Y-50931684D01*
X46706542Y-50836446D01*
X46658923Y-50645970D01*
X46658923Y-50312637D01*
X46706542Y-50122161D01*
X46801780Y-50026923D01*
X46897018Y-49979303D01*
X47087494Y-49979303D01*
X47182732Y-50026923D01*
X47277970Y-50122161D01*
X47325589Y-50312637D01*
X47325589Y-50645970D01*
X47277970Y-50836446D01*
X47182732Y-50931684D01*
X47087494Y-50979303D01*
X46897018Y-50979303D01*
X48182732Y-49979303D02*
X47992256Y-49979303D01*
X47897018Y-50026923D01*
X47849399Y-50074542D01*
X47754161Y-50217399D01*
X47706542Y-50407875D01*
X47706542Y-50788827D01*
X47754161Y-50884065D01*
X47801780Y-50931684D01*
X47897018Y-50979303D01*
X48087494Y-50979303D01*
X48182732Y-50931684D01*
X48230351Y-50884065D01*
X48277970Y-50788827D01*
X48277970Y-50550732D01*
X48230351Y-50455494D01*
X48182732Y-50407875D01*
X48087494Y-50360256D01*
X47897018Y-50360256D01*
X47801780Y-50407875D01*
X47754161Y-50455494D01*
X47706542Y-50550732D01*
%TO.C,C51*%
X149230142Y-17152857D02*
X149277761Y-17200476D01*
X149325380Y-17343333D01*
X149325380Y-17438571D01*
X149277761Y-17581428D01*
X149182523Y-17676666D01*
X149087285Y-17724285D01*
X148896809Y-17771904D01*
X148753952Y-17771904D01*
X148563476Y-17724285D01*
X148468238Y-17676666D01*
X148373000Y-17581428D01*
X148325380Y-17438571D01*
X148325380Y-17343333D01*
X148373000Y-17200476D01*
X148420619Y-17152857D01*
X148325380Y-16248095D02*
X148325380Y-16724285D01*
X148801571Y-16771904D01*
X148753952Y-16724285D01*
X148706333Y-16629047D01*
X148706333Y-16390952D01*
X148753952Y-16295714D01*
X148801571Y-16248095D01*
X148896809Y-16200476D01*
X149134904Y-16200476D01*
X149230142Y-16248095D01*
X149277761Y-16295714D01*
X149325380Y-16390952D01*
X149325380Y-16629047D01*
X149277761Y-16724285D01*
X149230142Y-16771904D01*
X149325380Y-15248095D02*
X149325380Y-15819523D01*
X149325380Y-15533809D02*
X148325380Y-15533809D01*
X148468238Y-15629047D01*
X148563476Y-15724285D01*
X148611095Y-15819523D01*
%TO.C,U14*%
X131222904Y-23582380D02*
X131222904Y-24391904D01*
X131270523Y-24487142D01*
X131318142Y-24534761D01*
X131413380Y-24582380D01*
X131603857Y-24582380D01*
X131699095Y-24534761D01*
X131746714Y-24487142D01*
X131794333Y-24391904D01*
X131794333Y-23582380D01*
X132794333Y-24582380D02*
X132222904Y-24582380D01*
X132508619Y-24582380D02*
X132508619Y-23582380D01*
X132413380Y-23725238D01*
X132318142Y-23820476D01*
X132222904Y-23868095D01*
X133651476Y-23915714D02*
X133651476Y-24582380D01*
X133413380Y-23534761D02*
X133175285Y-24249047D01*
X133794333Y-24249047D01*
%TO.C,R25*%
X27805142Y-17394180D02*
X27471809Y-16917990D01*
X27233714Y-17394180D02*
X27233714Y-16394180D01*
X27614666Y-16394180D01*
X27709904Y-16441800D01*
X27757523Y-16489419D01*
X27805142Y-16584657D01*
X27805142Y-16727514D01*
X27757523Y-16822752D01*
X27709904Y-16870371D01*
X27614666Y-16917990D01*
X27233714Y-16917990D01*
X28186095Y-16489419D02*
X28233714Y-16441800D01*
X28328952Y-16394180D01*
X28567047Y-16394180D01*
X28662285Y-16441800D01*
X28709904Y-16489419D01*
X28757523Y-16584657D01*
X28757523Y-16679895D01*
X28709904Y-16822752D01*
X28138476Y-17394180D01*
X28757523Y-17394180D01*
X29662285Y-16394180D02*
X29186095Y-16394180D01*
X29138476Y-16870371D01*
X29186095Y-16822752D01*
X29281333Y-16775133D01*
X29519428Y-16775133D01*
X29614666Y-16822752D01*
X29662285Y-16870371D01*
X29709904Y-16965609D01*
X29709904Y-17203704D01*
X29662285Y-17298942D01*
X29614666Y-17346561D01*
X29519428Y-17394180D01*
X29281333Y-17394180D01*
X29186095Y-17346561D01*
X29138476Y-17298942D01*
%TO.C,H7*%
X179628895Y-50668180D02*
X179628895Y-49668180D01*
X179628895Y-50144371D02*
X180200323Y-50144371D01*
X180200323Y-50668180D02*
X180200323Y-49668180D01*
X180581276Y-49668180D02*
X181247942Y-49668180D01*
X180819371Y-50668180D01*
%TO.C,R27*%
X152573142Y-30805380D02*
X152239809Y-30329190D01*
X152001714Y-30805380D02*
X152001714Y-29805380D01*
X152382666Y-29805380D01*
X152477904Y-29853000D01*
X152525523Y-29900619D01*
X152573142Y-29995857D01*
X152573142Y-30138714D01*
X152525523Y-30233952D01*
X152477904Y-30281571D01*
X152382666Y-30329190D01*
X152001714Y-30329190D01*
X152954095Y-29900619D02*
X153001714Y-29853000D01*
X153096952Y-29805380D01*
X153335047Y-29805380D01*
X153430285Y-29853000D01*
X153477904Y-29900619D01*
X153525523Y-29995857D01*
X153525523Y-30091095D01*
X153477904Y-30233952D01*
X152906476Y-30805380D01*
X153525523Y-30805380D01*
X153858857Y-29805380D02*
X154525523Y-29805380D01*
X154096952Y-30805380D01*
%TO.C,C35*%
X24477742Y-37542742D02*
X24430123Y-37590361D01*
X24287266Y-37637980D01*
X24192028Y-37637980D01*
X24049171Y-37590361D01*
X23953933Y-37495123D01*
X23906314Y-37399885D01*
X23858695Y-37209409D01*
X23858695Y-37066552D01*
X23906314Y-36876076D01*
X23953933Y-36780838D01*
X24049171Y-36685600D01*
X24192028Y-36637980D01*
X24287266Y-36637980D01*
X24430123Y-36685600D01*
X24477742Y-36733219D01*
X24811076Y-36637980D02*
X25430123Y-36637980D01*
X25096790Y-37018933D01*
X25239647Y-37018933D01*
X25334885Y-37066552D01*
X25382504Y-37114171D01*
X25430123Y-37209409D01*
X25430123Y-37447504D01*
X25382504Y-37542742D01*
X25334885Y-37590361D01*
X25239647Y-37637980D01*
X24953933Y-37637980D01*
X24858695Y-37590361D01*
X24811076Y-37542742D01*
X26334885Y-36637980D02*
X25858695Y-36637980D01*
X25811076Y-37114171D01*
X25858695Y-37066552D01*
X25953933Y-37018933D01*
X26192028Y-37018933D01*
X26287266Y-37066552D01*
X26334885Y-37114171D01*
X26382504Y-37209409D01*
X26382504Y-37447504D01*
X26334885Y-37542742D01*
X26287266Y-37590361D01*
X26192028Y-37637980D01*
X25953933Y-37637980D01*
X25858695Y-37590361D01*
X25811076Y-37542742D01*
%TO.C,JP4*%
X157942066Y-22845780D02*
X157942066Y-23560066D01*
X157894447Y-23702923D01*
X157799209Y-23798161D01*
X157656352Y-23845780D01*
X157561114Y-23845780D01*
X158418257Y-23845780D02*
X158418257Y-22845780D01*
X158799209Y-22845780D01*
X158894447Y-22893400D01*
X158942066Y-22941019D01*
X158989685Y-23036257D01*
X158989685Y-23179114D01*
X158942066Y-23274352D01*
X158894447Y-23321971D01*
X158799209Y-23369590D01*
X158418257Y-23369590D01*
X159846828Y-23179114D02*
X159846828Y-23845780D01*
X159608733Y-22798161D02*
X159370638Y-23512447D01*
X159989685Y-23512447D01*
%TO.C,TP3*%
X74797095Y-43237435D02*
X75368523Y-43237435D01*
X75082809Y-44237435D02*
X75082809Y-43237435D01*
X75701857Y-44237435D02*
X75701857Y-43237435D01*
X76082809Y-43237435D01*
X76178047Y-43285055D01*
X76225666Y-43332674D01*
X76273285Y-43427912D01*
X76273285Y-43570769D01*
X76225666Y-43666007D01*
X76178047Y-43713626D01*
X76082809Y-43761245D01*
X75701857Y-43761245D01*
X76606619Y-43237435D02*
X77225666Y-43237435D01*
X76892333Y-43618388D01*
X77035190Y-43618388D01*
X77130428Y-43666007D01*
X77178047Y-43713626D01*
X77225666Y-43808864D01*
X77225666Y-44046959D01*
X77178047Y-44142197D01*
X77130428Y-44189816D01*
X77035190Y-44237435D01*
X76749476Y-44237435D01*
X76654238Y-44189816D01*
X76606619Y-44142197D01*
%TO.C,H6*%
X179628895Y-15362180D02*
X179628895Y-14362180D01*
X179628895Y-14838371D02*
X180200323Y-14838371D01*
X180200323Y-15362180D02*
X180200323Y-14362180D01*
X181105085Y-14362180D02*
X180914609Y-14362180D01*
X180819371Y-14409800D01*
X180771752Y-14457419D01*
X180676514Y-14600276D01*
X180628895Y-14790752D01*
X180628895Y-15171704D01*
X180676514Y-15266942D01*
X180724133Y-15314561D01*
X180819371Y-15362180D01*
X181009847Y-15362180D01*
X181105085Y-15314561D01*
X181152704Y-15266942D01*
X181200323Y-15171704D01*
X181200323Y-14933609D01*
X181152704Y-14838371D01*
X181105085Y-14790752D01*
X181009847Y-14743133D01*
X180819371Y-14743133D01*
X180724133Y-14790752D01*
X180676514Y-14838371D01*
X180628895Y-14933609D01*
%TO.C,R24*%
X89800142Y-16423435D02*
X89466809Y-15947245D01*
X89228714Y-16423435D02*
X89228714Y-15423435D01*
X89609666Y-15423435D01*
X89704904Y-15471055D01*
X89752523Y-15518674D01*
X89800142Y-15613912D01*
X89800142Y-15756769D01*
X89752523Y-15852007D01*
X89704904Y-15899626D01*
X89609666Y-15947245D01*
X89228714Y-15947245D01*
X90181095Y-15518674D02*
X90228714Y-15471055D01*
X90323952Y-15423435D01*
X90562047Y-15423435D01*
X90657285Y-15471055D01*
X90704904Y-15518674D01*
X90752523Y-15613912D01*
X90752523Y-15709150D01*
X90704904Y-15852007D01*
X90133476Y-16423435D01*
X90752523Y-16423435D01*
X91609666Y-15756769D02*
X91609666Y-16423435D01*
X91371571Y-15375816D02*
X91133476Y-16090102D01*
X91752523Y-16090102D01*
%TO.C,SW2*%
X164255266Y-31734661D02*
X164398123Y-31782280D01*
X164636219Y-31782280D01*
X164731457Y-31734661D01*
X164779076Y-31687042D01*
X164826695Y-31591804D01*
X164826695Y-31496566D01*
X164779076Y-31401328D01*
X164731457Y-31353709D01*
X164636219Y-31306090D01*
X164445742Y-31258471D01*
X164350504Y-31210852D01*
X164302885Y-31163233D01*
X164255266Y-31067995D01*
X164255266Y-30972757D01*
X164302885Y-30877519D01*
X164350504Y-30829900D01*
X164445742Y-30782280D01*
X164683838Y-30782280D01*
X164826695Y-30829900D01*
X165160028Y-30782280D02*
X165398123Y-31782280D01*
X165588600Y-31067995D01*
X165779076Y-31782280D01*
X166017171Y-30782280D01*
X166350504Y-30877519D02*
X166398123Y-30829900D01*
X166493361Y-30782280D01*
X166731457Y-30782280D01*
X166826695Y-30829900D01*
X166874314Y-30877519D01*
X166921933Y-30972757D01*
X166921933Y-31067995D01*
X166874314Y-31210852D01*
X166302885Y-31782280D01*
X166921933Y-31782280D01*
%TO.C,M3*%
X75526523Y-34778380D02*
X75526523Y-33778380D01*
X75859856Y-34492666D01*
X76193189Y-33778380D01*
X76193189Y-34778380D01*
X76574142Y-33778380D02*
X77193189Y-33778380D01*
X76859856Y-34159333D01*
X77002713Y-34159333D01*
X77097951Y-34206952D01*
X77145570Y-34254571D01*
X77193189Y-34349809D01*
X77193189Y-34587904D01*
X77145570Y-34683142D01*
X77097951Y-34730761D01*
X77002713Y-34778380D01*
X76716999Y-34778380D01*
X76621761Y-34730761D01*
X76574142Y-34683142D01*
%TO.C,D14*%
X171023114Y-19476980D02*
X171023114Y-18476980D01*
X171261209Y-18476980D01*
X171404066Y-18524600D01*
X171499304Y-18619838D01*
X171546923Y-18715076D01*
X171594542Y-18905552D01*
X171594542Y-19048409D01*
X171546923Y-19238885D01*
X171499304Y-19334123D01*
X171404066Y-19429361D01*
X171261209Y-19476980D01*
X171023114Y-19476980D01*
X172546923Y-19476980D02*
X171975495Y-19476980D01*
X172261209Y-19476980D02*
X172261209Y-18476980D01*
X172165971Y-18619838D01*
X172070733Y-18715076D01*
X171975495Y-18762695D01*
X173404066Y-18810314D02*
X173404066Y-19476980D01*
X173165971Y-18429361D02*
X172927876Y-19143647D01*
X173546923Y-19143647D01*
%TO.C,JP3*%
X157830066Y-25538180D02*
X157830066Y-26252466D01*
X157782447Y-26395323D01*
X157687209Y-26490561D01*
X157544352Y-26538180D01*
X157449114Y-26538180D01*
X158306257Y-26538180D02*
X158306257Y-25538180D01*
X158687209Y-25538180D01*
X158782447Y-25585800D01*
X158830066Y-25633419D01*
X158877685Y-25728657D01*
X158877685Y-25871514D01*
X158830066Y-25966752D01*
X158782447Y-26014371D01*
X158687209Y-26061990D01*
X158306257Y-26061990D01*
X159211019Y-25538180D02*
X159830066Y-25538180D01*
X159496733Y-25919133D01*
X159639590Y-25919133D01*
X159734828Y-25966752D01*
X159782447Y-26014371D01*
X159830066Y-26109609D01*
X159830066Y-26347704D01*
X159782447Y-26442942D01*
X159734828Y-26490561D01*
X159639590Y-26538180D01*
X159353876Y-26538180D01*
X159258638Y-26490561D01*
X159211019Y-26442942D01*
%TO.C,JP5*%
X157942066Y-20432780D02*
X157942066Y-21147066D01*
X157894447Y-21289923D01*
X157799209Y-21385161D01*
X157656352Y-21432780D01*
X157561114Y-21432780D01*
X158418257Y-21432780D02*
X158418257Y-20432780D01*
X158799209Y-20432780D01*
X158894447Y-20480400D01*
X158942066Y-20528019D01*
X158989685Y-20623257D01*
X158989685Y-20766114D01*
X158942066Y-20861352D01*
X158894447Y-20908971D01*
X158799209Y-20956590D01*
X158418257Y-20956590D01*
X159894447Y-20432780D02*
X159418257Y-20432780D01*
X159370638Y-20908971D01*
X159418257Y-20861352D01*
X159513495Y-20813733D01*
X159751590Y-20813733D01*
X159846828Y-20861352D01*
X159894447Y-20908971D01*
X159942066Y-21004209D01*
X159942066Y-21242304D01*
X159894447Y-21337542D01*
X159846828Y-21385161D01*
X159751590Y-21432780D01*
X159513495Y-21432780D01*
X159418257Y-21385161D01*
X159370638Y-21337542D01*
%TO.C,R51*%
X24579342Y-39695380D02*
X24246009Y-39219190D01*
X24007914Y-39695380D02*
X24007914Y-38695380D01*
X24388866Y-38695380D01*
X24484104Y-38743000D01*
X24531723Y-38790619D01*
X24579342Y-38885857D01*
X24579342Y-39028714D01*
X24531723Y-39123952D01*
X24484104Y-39171571D01*
X24388866Y-39219190D01*
X24007914Y-39219190D01*
X25484104Y-38695380D02*
X25007914Y-38695380D01*
X24960295Y-39171571D01*
X25007914Y-39123952D01*
X25103152Y-39076333D01*
X25341247Y-39076333D01*
X25436485Y-39123952D01*
X25484104Y-39171571D01*
X25531723Y-39266809D01*
X25531723Y-39504904D01*
X25484104Y-39600142D01*
X25436485Y-39647761D01*
X25341247Y-39695380D01*
X25103152Y-39695380D01*
X25007914Y-39647761D01*
X24960295Y-39600142D01*
X26484104Y-39695380D02*
X25912676Y-39695380D01*
X26198390Y-39695380D02*
X26198390Y-38695380D01*
X26103152Y-38838238D01*
X26007914Y-38933476D01*
X25912676Y-38981095D01*
%TO.C,D16*%
X161345714Y-19400780D02*
X161345714Y-18400780D01*
X161583809Y-18400780D01*
X161726666Y-18448400D01*
X161821904Y-18543638D01*
X161869523Y-18638876D01*
X161917142Y-18829352D01*
X161917142Y-18972209D01*
X161869523Y-19162685D01*
X161821904Y-19257923D01*
X161726666Y-19353161D01*
X161583809Y-19400780D01*
X161345714Y-19400780D01*
X162869523Y-19400780D02*
X162298095Y-19400780D01*
X162583809Y-19400780D02*
X162583809Y-18400780D01*
X162488571Y-18543638D01*
X162393333Y-18638876D01*
X162298095Y-18686495D01*
X163726666Y-18400780D02*
X163536190Y-18400780D01*
X163440952Y-18448400D01*
X163393333Y-18496019D01*
X163298095Y-18638876D01*
X163250476Y-18829352D01*
X163250476Y-19210304D01*
X163298095Y-19305542D01*
X163345714Y-19353161D01*
X163440952Y-19400780D01*
X163631428Y-19400780D01*
X163726666Y-19353161D01*
X163774285Y-19305542D01*
X163821904Y-19210304D01*
X163821904Y-18972209D01*
X163774285Y-18876971D01*
X163726666Y-18829352D01*
X163631428Y-18781733D01*
X163440952Y-18781733D01*
X163345714Y-18829352D01*
X163298095Y-18876971D01*
X163250476Y-18972209D01*
%TO.C,SW4*%
X118224466Y-49858561D02*
X118367323Y-49906180D01*
X118605419Y-49906180D01*
X118700657Y-49858561D01*
X118748276Y-49810942D01*
X118795895Y-49715704D01*
X118795895Y-49620466D01*
X118748276Y-49525228D01*
X118700657Y-49477609D01*
X118605419Y-49429990D01*
X118414942Y-49382371D01*
X118319704Y-49334752D01*
X118272085Y-49287133D01*
X118224466Y-49191895D01*
X118224466Y-49096657D01*
X118272085Y-49001419D01*
X118319704Y-48953800D01*
X118414942Y-48906180D01*
X118653038Y-48906180D01*
X118795895Y-48953800D01*
X119129228Y-48906180D02*
X119367323Y-49906180D01*
X119557800Y-49191895D01*
X119748276Y-49906180D01*
X119986371Y-48906180D01*
X120795895Y-49239514D02*
X120795895Y-49906180D01*
X120557800Y-48858561D02*
X120319704Y-49572847D01*
X120938752Y-49572847D01*
%TO.C,SW5*%
X127495466Y-49858561D02*
X127638323Y-49906180D01*
X127876419Y-49906180D01*
X127971657Y-49858561D01*
X128019276Y-49810942D01*
X128066895Y-49715704D01*
X128066895Y-49620466D01*
X128019276Y-49525228D01*
X127971657Y-49477609D01*
X127876419Y-49429990D01*
X127685942Y-49382371D01*
X127590704Y-49334752D01*
X127543085Y-49287133D01*
X127495466Y-49191895D01*
X127495466Y-49096657D01*
X127543085Y-49001419D01*
X127590704Y-48953800D01*
X127685942Y-48906180D01*
X127924038Y-48906180D01*
X128066895Y-48953800D01*
X128400228Y-48906180D02*
X128638323Y-49906180D01*
X128828800Y-49191895D01*
X129019276Y-49906180D01*
X129257371Y-48906180D01*
X130114514Y-48906180D02*
X129638323Y-48906180D01*
X129590704Y-49382371D01*
X129638323Y-49334752D01*
X129733561Y-49287133D01*
X129971657Y-49287133D01*
X130066895Y-49334752D01*
X130114514Y-49382371D01*
X130162133Y-49477609D01*
X130162133Y-49715704D01*
X130114514Y-49810942D01*
X130066895Y-49858561D01*
X129971657Y-49906180D01*
X129733561Y-49906180D01*
X129638323Y-49858561D01*
X129590704Y-49810942D01*
%TO.C,SW1*%
X31051666Y-36929961D02*
X31194523Y-36977580D01*
X31432619Y-36977580D01*
X31527857Y-36929961D01*
X31575476Y-36882342D01*
X31623095Y-36787104D01*
X31623095Y-36691866D01*
X31575476Y-36596628D01*
X31527857Y-36549009D01*
X31432619Y-36501390D01*
X31242142Y-36453771D01*
X31146904Y-36406152D01*
X31099285Y-36358533D01*
X31051666Y-36263295D01*
X31051666Y-36168057D01*
X31099285Y-36072819D01*
X31146904Y-36025200D01*
X31242142Y-35977580D01*
X31480238Y-35977580D01*
X31623095Y-36025200D01*
X31956428Y-35977580D02*
X32194523Y-36977580D01*
X32385000Y-36263295D01*
X32575476Y-36977580D01*
X32813571Y-35977580D01*
X33718333Y-36977580D02*
X33146904Y-36977580D01*
X33432619Y-36977580D02*
X33432619Y-35977580D01*
X33337380Y-36120438D01*
X33242142Y-36215676D01*
X33146904Y-36263295D01*
%TO.C,R28*%
X152573142Y-36139380D02*
X152239809Y-35663190D01*
X152001714Y-36139380D02*
X152001714Y-35139380D01*
X152382666Y-35139380D01*
X152477904Y-35187000D01*
X152525523Y-35234619D01*
X152573142Y-35329857D01*
X152573142Y-35472714D01*
X152525523Y-35567952D01*
X152477904Y-35615571D01*
X152382666Y-35663190D01*
X152001714Y-35663190D01*
X152954095Y-35234619D02*
X153001714Y-35187000D01*
X153096952Y-35139380D01*
X153335047Y-35139380D01*
X153430285Y-35187000D01*
X153477904Y-35234619D01*
X153525523Y-35329857D01*
X153525523Y-35425095D01*
X153477904Y-35567952D01*
X152906476Y-36139380D01*
X153525523Y-36139380D01*
X154096952Y-35567952D02*
X154001714Y-35520333D01*
X153954095Y-35472714D01*
X153906476Y-35377476D01*
X153906476Y-35329857D01*
X153954095Y-35234619D01*
X154001714Y-35187000D01*
X154096952Y-35139380D01*
X154287428Y-35139380D01*
X154382666Y-35187000D01*
X154430285Y-35234619D01*
X154477904Y-35329857D01*
X154477904Y-35377476D01*
X154430285Y-35472714D01*
X154382666Y-35520333D01*
X154287428Y-35567952D01*
X154096952Y-35567952D01*
X154001714Y-35615571D01*
X153954095Y-35663190D01*
X153906476Y-35758428D01*
X153906476Y-35948904D01*
X153954095Y-36044142D01*
X154001714Y-36091761D01*
X154096952Y-36139380D01*
X154287428Y-36139380D01*
X154382666Y-36091761D01*
X154430285Y-36044142D01*
X154477904Y-35948904D01*
X154477904Y-35758428D01*
X154430285Y-35663190D01*
X154382666Y-35615571D01*
X154287428Y-35567952D01*
%TO.C,H8*%
X24053895Y-50972980D02*
X24053895Y-49972980D01*
X24053895Y-50449171D02*
X24625323Y-50449171D01*
X24625323Y-50972980D02*
X24625323Y-49972980D01*
X25244371Y-50401552D02*
X25149133Y-50353933D01*
X25101514Y-50306314D01*
X25053895Y-50211076D01*
X25053895Y-50163457D01*
X25101514Y-50068219D01*
X25149133Y-50020600D01*
X25244371Y-49972980D01*
X25434847Y-49972980D01*
X25530085Y-50020600D01*
X25577704Y-50068219D01*
X25625323Y-50163457D01*
X25625323Y-50211076D01*
X25577704Y-50306314D01*
X25530085Y-50353933D01*
X25434847Y-50401552D01*
X25244371Y-50401552D01*
X25149133Y-50449171D01*
X25101514Y-50496790D01*
X25053895Y-50592028D01*
X25053895Y-50782504D01*
X25101514Y-50877742D01*
X25149133Y-50925361D01*
X25244371Y-50972980D01*
X25434847Y-50972980D01*
X25530085Y-50925361D01*
X25577704Y-50877742D01*
X25625323Y-50782504D01*
X25625323Y-50592028D01*
X25577704Y-50496790D01*
X25530085Y-50449171D01*
X25434847Y-50401552D01*
%TO.C,SW3*%
X109182066Y-49807761D02*
X109324923Y-49855380D01*
X109563019Y-49855380D01*
X109658257Y-49807761D01*
X109705876Y-49760142D01*
X109753495Y-49664904D01*
X109753495Y-49569666D01*
X109705876Y-49474428D01*
X109658257Y-49426809D01*
X109563019Y-49379190D01*
X109372542Y-49331571D01*
X109277304Y-49283952D01*
X109229685Y-49236333D01*
X109182066Y-49141095D01*
X109182066Y-49045857D01*
X109229685Y-48950619D01*
X109277304Y-48903000D01*
X109372542Y-48855380D01*
X109610638Y-48855380D01*
X109753495Y-48903000D01*
X110086828Y-48855380D02*
X110324923Y-49855380D01*
X110515400Y-49141095D01*
X110705876Y-49855380D01*
X110943971Y-48855380D01*
X111229685Y-48855380D02*
X111848733Y-48855380D01*
X111515400Y-49236333D01*
X111658257Y-49236333D01*
X111753495Y-49283952D01*
X111801114Y-49331571D01*
X111848733Y-49426809D01*
X111848733Y-49664904D01*
X111801114Y-49760142D01*
X111753495Y-49807761D01*
X111658257Y-49855380D01*
X111372542Y-49855380D01*
X111277304Y-49807761D01*
X111229685Y-49760142D01*
%TO.C,C38*%
X152446142Y-45442142D02*
X152398523Y-45489761D01*
X152255666Y-45537380D01*
X152160428Y-45537380D01*
X152017571Y-45489761D01*
X151922333Y-45394523D01*
X151874714Y-45299285D01*
X151827095Y-45108809D01*
X151827095Y-44965952D01*
X151874714Y-44775476D01*
X151922333Y-44680238D01*
X152017571Y-44585000D01*
X152160428Y-44537380D01*
X152255666Y-44537380D01*
X152398523Y-44585000D01*
X152446142Y-44632619D01*
X152779476Y-44537380D02*
X153398523Y-44537380D01*
X153065190Y-44918333D01*
X153208047Y-44918333D01*
X153303285Y-44965952D01*
X153350904Y-45013571D01*
X153398523Y-45108809D01*
X153398523Y-45346904D01*
X153350904Y-45442142D01*
X153303285Y-45489761D01*
X153208047Y-45537380D01*
X152922333Y-45537380D01*
X152827095Y-45489761D01*
X152779476Y-45442142D01*
X153969952Y-44965952D02*
X153874714Y-44918333D01*
X153827095Y-44870714D01*
X153779476Y-44775476D01*
X153779476Y-44727857D01*
X153827095Y-44632619D01*
X153874714Y-44585000D01*
X153969952Y-44537380D01*
X154160428Y-44537380D01*
X154255666Y-44585000D01*
X154303285Y-44632619D01*
X154350904Y-44727857D01*
X154350904Y-44775476D01*
X154303285Y-44870714D01*
X154255666Y-44918333D01*
X154160428Y-44965952D01*
X153969952Y-44965952D01*
X153874714Y-45013571D01*
X153827095Y-45061190D01*
X153779476Y-45156428D01*
X153779476Y-45346904D01*
X153827095Y-45442142D01*
X153874714Y-45489761D01*
X153969952Y-45537380D01*
X154160428Y-45537380D01*
X154255666Y-45489761D01*
X154303285Y-45442142D01*
X154350904Y-45346904D01*
X154350904Y-45156428D01*
X154303285Y-45061190D01*
X154255666Y-45013571D01*
X154160428Y-44965952D01*
%TO.C,R29*%
X152573142Y-33599380D02*
X152239809Y-33123190D01*
X152001714Y-33599380D02*
X152001714Y-32599380D01*
X152382666Y-32599380D01*
X152477904Y-32647000D01*
X152525523Y-32694619D01*
X152573142Y-32789857D01*
X152573142Y-32932714D01*
X152525523Y-33027952D01*
X152477904Y-33075571D01*
X152382666Y-33123190D01*
X152001714Y-33123190D01*
X152954095Y-32694619D02*
X153001714Y-32647000D01*
X153096952Y-32599380D01*
X153335047Y-32599380D01*
X153430285Y-32647000D01*
X153477904Y-32694619D01*
X153525523Y-32789857D01*
X153525523Y-32885095D01*
X153477904Y-33027952D01*
X152906476Y-33599380D01*
X153525523Y-33599380D01*
X154001714Y-33599380D02*
X154192190Y-33599380D01*
X154287428Y-33551761D01*
X154335047Y-33504142D01*
X154430285Y-33361285D01*
X154477904Y-33170809D01*
X154477904Y-32789857D01*
X154430285Y-32694619D01*
X154382666Y-32647000D01*
X154287428Y-32599380D01*
X154096952Y-32599380D01*
X154001714Y-32647000D01*
X153954095Y-32694619D01*
X153906476Y-32789857D01*
X153906476Y-33027952D01*
X153954095Y-33123190D01*
X154001714Y-33170809D01*
X154096952Y-33218428D01*
X154287428Y-33218428D01*
X154382666Y-33170809D01*
X154430285Y-33123190D01*
X154477904Y-33027952D01*
%TO.C,R26*%
X51504142Y-50977380D02*
X51170809Y-50501190D01*
X50932714Y-50977380D02*
X50932714Y-49977380D01*
X51313666Y-49977380D01*
X51408904Y-50025000D01*
X51456523Y-50072619D01*
X51504142Y-50167857D01*
X51504142Y-50310714D01*
X51456523Y-50405952D01*
X51408904Y-50453571D01*
X51313666Y-50501190D01*
X50932714Y-50501190D01*
X51885095Y-50072619D02*
X51932714Y-50025000D01*
X52027952Y-49977380D01*
X52266047Y-49977380D01*
X52361285Y-50025000D01*
X52408904Y-50072619D01*
X52456523Y-50167857D01*
X52456523Y-50263095D01*
X52408904Y-50405952D01*
X51837476Y-50977380D01*
X52456523Y-50977380D01*
X53313666Y-49977380D02*
X53123190Y-49977380D01*
X53027952Y-50025000D01*
X52980333Y-50072619D01*
X52885095Y-50215476D01*
X52837476Y-50405952D01*
X52837476Y-50786904D01*
X52885095Y-50882142D01*
X52932714Y-50929761D01*
X53027952Y-50977380D01*
X53218428Y-50977380D01*
X53313666Y-50929761D01*
X53361285Y-50882142D01*
X53408904Y-50786904D01*
X53408904Y-50548809D01*
X53361285Y-50453571D01*
X53313666Y-50405952D01*
X53218428Y-50358333D01*
X53027952Y-50358333D01*
X52932714Y-50405952D01*
X52885095Y-50453571D01*
X52837476Y-50548809D01*
%TO.C,J11*%
X97449757Y-34217180D02*
X97449757Y-34931466D01*
X97402138Y-35074323D01*
X97306900Y-35169561D01*
X97164042Y-35217180D01*
X97068804Y-35217180D01*
X98449757Y-35217180D02*
X97878328Y-35217180D01*
X98164042Y-35217180D02*
X98164042Y-34217180D01*
X98068804Y-34360038D01*
X97973566Y-34455276D01*
X97878328Y-34502895D01*
X99402138Y-35217180D02*
X98830709Y-35217180D01*
X99116423Y-35217180D02*
X99116423Y-34217180D01*
X99021185Y-34360038D01*
X98925947Y-34455276D01*
X98830709Y-34502895D01*
%TO.C,D15*%
X166197114Y-19400780D02*
X166197114Y-18400780D01*
X166435209Y-18400780D01*
X166578066Y-18448400D01*
X166673304Y-18543638D01*
X166720923Y-18638876D01*
X166768542Y-18829352D01*
X166768542Y-18972209D01*
X166720923Y-19162685D01*
X166673304Y-19257923D01*
X166578066Y-19353161D01*
X166435209Y-19400780D01*
X166197114Y-19400780D01*
X167720923Y-19400780D02*
X167149495Y-19400780D01*
X167435209Y-19400780D02*
X167435209Y-18400780D01*
X167339971Y-18543638D01*
X167244733Y-18638876D01*
X167149495Y-18686495D01*
X168625685Y-18400780D02*
X168149495Y-18400780D01*
X168101876Y-18876971D01*
X168149495Y-18829352D01*
X168244733Y-18781733D01*
X168482828Y-18781733D01*
X168578066Y-18829352D01*
X168625685Y-18876971D01*
X168673304Y-18972209D01*
X168673304Y-19210304D01*
X168625685Y-19305542D01*
X168578066Y-19353161D01*
X168482828Y-19400780D01*
X168244733Y-19400780D01*
X168149495Y-19353161D01*
X168101876Y-19305542D01*
%TO.C,C24*%
X131183142Y-17121142D02*
X131135523Y-17168761D01*
X130992666Y-17216380D01*
X130897428Y-17216380D01*
X130754571Y-17168761D01*
X130659333Y-17073523D01*
X130611714Y-16978285D01*
X130564095Y-16787809D01*
X130564095Y-16644952D01*
X130611714Y-16454476D01*
X130659333Y-16359238D01*
X130754571Y-16264000D01*
X130897428Y-16216380D01*
X130992666Y-16216380D01*
X131135523Y-16264000D01*
X131183142Y-16311619D01*
X131564095Y-16311619D02*
X131611714Y-16264000D01*
X131706952Y-16216380D01*
X131945047Y-16216380D01*
X132040285Y-16264000D01*
X132087904Y-16311619D01*
X132135523Y-16406857D01*
X132135523Y-16502095D01*
X132087904Y-16644952D01*
X131516476Y-17216380D01*
X132135523Y-17216380D01*
X132992666Y-16549714D02*
X132992666Y-17216380D01*
X132754571Y-16168761D02*
X132516476Y-16883047D01*
X133135523Y-16883047D01*
%TO.C,R48*%
X172458142Y-21534380D02*
X172124809Y-21058190D01*
X171886714Y-21534380D02*
X171886714Y-20534380D01*
X172267666Y-20534380D01*
X172362904Y-20582000D01*
X172410523Y-20629619D01*
X172458142Y-20724857D01*
X172458142Y-20867714D01*
X172410523Y-20962952D01*
X172362904Y-21010571D01*
X172267666Y-21058190D01*
X171886714Y-21058190D01*
X173315285Y-20867714D02*
X173315285Y-21534380D01*
X173077190Y-20486761D02*
X172839095Y-21201047D01*
X173458142Y-21201047D01*
X173981952Y-20962952D02*
X173886714Y-20915333D01*
X173839095Y-20867714D01*
X173791476Y-20772476D01*
X173791476Y-20724857D01*
X173839095Y-20629619D01*
X173886714Y-20582000D01*
X173981952Y-20534380D01*
X174172428Y-20534380D01*
X174267666Y-20582000D01*
X174315285Y-20629619D01*
X174362904Y-20724857D01*
X174362904Y-20772476D01*
X174315285Y-20867714D01*
X174267666Y-20915333D01*
X174172428Y-20962952D01*
X173981952Y-20962952D01*
X173886714Y-21010571D01*
X173839095Y-21058190D01*
X173791476Y-21153428D01*
X173791476Y-21343904D01*
X173839095Y-21439142D01*
X173886714Y-21486761D01*
X173981952Y-21534380D01*
X174172428Y-21534380D01*
X174267666Y-21486761D01*
X174315285Y-21439142D01*
X174362904Y-21343904D01*
X174362904Y-21153428D01*
X174315285Y-21058190D01*
X174267666Y-21010571D01*
X174172428Y-20962952D01*
%TO.C,TP4*%
X74670095Y-37647435D02*
X75241523Y-37647435D01*
X74955809Y-38647435D02*
X74955809Y-37647435D01*
X75574857Y-38647435D02*
X75574857Y-37647435D01*
X75955809Y-37647435D01*
X76051047Y-37695055D01*
X76098666Y-37742674D01*
X76146285Y-37837912D01*
X76146285Y-37980769D01*
X76098666Y-38076007D01*
X76051047Y-38123626D01*
X75955809Y-38171245D01*
X75574857Y-38171245D01*
X77003428Y-37980769D02*
X77003428Y-38647435D01*
X76765333Y-37599816D02*
X76527238Y-38314102D01*
X77146285Y-38314102D01*
%TO.C,C36*%
X152573142Y-39267642D02*
X152525523Y-39315261D01*
X152382666Y-39362880D01*
X152287428Y-39362880D01*
X152144571Y-39315261D01*
X152049333Y-39220023D01*
X152001714Y-39124785D01*
X151954095Y-38934309D01*
X151954095Y-38791452D01*
X152001714Y-38600976D01*
X152049333Y-38505738D01*
X152144571Y-38410500D01*
X152287428Y-38362880D01*
X152382666Y-38362880D01*
X152525523Y-38410500D01*
X152573142Y-38458119D01*
X152906476Y-38362880D02*
X153525523Y-38362880D01*
X153192190Y-38743833D01*
X153335047Y-38743833D01*
X153430285Y-38791452D01*
X153477904Y-38839071D01*
X153525523Y-38934309D01*
X153525523Y-39172404D01*
X153477904Y-39267642D01*
X153430285Y-39315261D01*
X153335047Y-39362880D01*
X153049333Y-39362880D01*
X152954095Y-39315261D01*
X152906476Y-39267642D01*
X154382666Y-38362880D02*
X154192190Y-38362880D01*
X154096952Y-38410500D01*
X154049333Y-38458119D01*
X153954095Y-38600976D01*
X153906476Y-38791452D01*
X153906476Y-39172404D01*
X153954095Y-39267642D01*
X154001714Y-39315261D01*
X154096952Y-39362880D01*
X154287428Y-39362880D01*
X154382666Y-39315261D01*
X154430285Y-39267642D01*
X154477904Y-39172404D01*
X154477904Y-38934309D01*
X154430285Y-38839071D01*
X154382666Y-38791452D01*
X154287428Y-38743833D01*
X154096952Y-38743833D01*
X154001714Y-38791452D01*
X153954095Y-38839071D01*
X153906476Y-38934309D01*
%TO.C,R47*%
X173728142Y-23566380D02*
X173394809Y-23090190D01*
X173156714Y-23566380D02*
X173156714Y-22566380D01*
X173537666Y-22566380D01*
X173632904Y-22614000D01*
X173680523Y-22661619D01*
X173728142Y-22756857D01*
X173728142Y-22899714D01*
X173680523Y-22994952D01*
X173632904Y-23042571D01*
X173537666Y-23090190D01*
X173156714Y-23090190D01*
X174585285Y-22899714D02*
X174585285Y-23566380D01*
X174347190Y-22518761D02*
X174109095Y-23233047D01*
X174728142Y-23233047D01*
X175013857Y-22566380D02*
X175680523Y-22566380D01*
X175251952Y-23566380D01*
%TO.C,U10*%
X66438857Y-44478380D02*
X66438857Y-45287904D01*
X66486476Y-45383142D01*
X66534095Y-45430761D01*
X66629333Y-45478380D01*
X66819810Y-45478380D01*
X66915048Y-45430761D01*
X66962667Y-45383142D01*
X67010286Y-45287904D01*
X67010286Y-44478380D01*
X68010286Y-45478380D02*
X67438857Y-45478380D01*
X67724572Y-45478380D02*
X67724572Y-44478380D01*
X67629333Y-44621238D01*
X67534095Y-44716476D01*
X67438857Y-44764095D01*
X68629333Y-44478380D02*
X68724572Y-44478380D01*
X68819810Y-44526000D01*
X68867429Y-44573619D01*
X68915048Y-44668857D01*
X68962667Y-44859333D01*
X68962667Y-45097428D01*
X68915048Y-45287904D01*
X68867429Y-45383142D01*
X68819810Y-45430761D01*
X68724572Y-45478380D01*
X68629333Y-45478380D01*
X68534095Y-45430761D01*
X68486476Y-45383142D01*
X68438857Y-45287904D01*
X68391238Y-45097428D01*
X68391238Y-44859333D01*
X68438857Y-44668857D01*
X68486476Y-44573619D01*
X68534095Y-44526000D01*
X68629333Y-44478380D01*
%TO.C,H5*%
X23342695Y-15057380D02*
X23342695Y-14057380D01*
X23342695Y-14533571D02*
X23914123Y-14533571D01*
X23914123Y-15057380D02*
X23914123Y-14057380D01*
X24866504Y-14057380D02*
X24390314Y-14057380D01*
X24342695Y-14533571D01*
X24390314Y-14485952D01*
X24485552Y-14438333D01*
X24723647Y-14438333D01*
X24818885Y-14485952D01*
X24866504Y-14533571D01*
X24914123Y-14628809D01*
X24914123Y-14866904D01*
X24866504Y-14962142D01*
X24818885Y-15009761D01*
X24723647Y-15057380D01*
X24485552Y-15057380D01*
X24390314Y-15009761D01*
X24342695Y-14962142D01*
%TO.C,R50*%
X114495342Y-52167780D02*
X114162009Y-51691590D01*
X113923914Y-52167780D02*
X113923914Y-51167780D01*
X114304866Y-51167780D01*
X114400104Y-51215400D01*
X114447723Y-51263019D01*
X114495342Y-51358257D01*
X114495342Y-51501114D01*
X114447723Y-51596352D01*
X114400104Y-51643971D01*
X114304866Y-51691590D01*
X113923914Y-51691590D01*
X115400104Y-51167780D02*
X114923914Y-51167780D01*
X114876295Y-51643971D01*
X114923914Y-51596352D01*
X115019152Y-51548733D01*
X115257247Y-51548733D01*
X115352485Y-51596352D01*
X115400104Y-51643971D01*
X115447723Y-51739209D01*
X115447723Y-51977304D01*
X115400104Y-52072542D01*
X115352485Y-52120161D01*
X115257247Y-52167780D01*
X115019152Y-52167780D01*
X114923914Y-52120161D01*
X114876295Y-52072542D01*
X116066771Y-51167780D02*
X116162009Y-51167780D01*
X116257247Y-51215400D01*
X116304866Y-51263019D01*
X116352485Y-51358257D01*
X116400104Y-51548733D01*
X116400104Y-51786828D01*
X116352485Y-51977304D01*
X116304866Y-52072542D01*
X116257247Y-52120161D01*
X116162009Y-52167780D01*
X116066771Y-52167780D01*
X115971533Y-52120161D01*
X115923914Y-52072542D01*
X115876295Y-51977304D01*
X115828676Y-51786828D01*
X115828676Y-51548733D01*
X115876295Y-51358257D01*
X115923914Y-51263019D01*
X115971533Y-51215400D01*
X116066771Y-51167780D01*
D10*
%TO.C,TP5*%
X132272000Y-26354000D02*
X130872000Y-26354000D01*
X132272000Y-24954000D02*
X132272000Y-26354000D01*
X130872000Y-24954000D02*
X132272000Y-24954000D01*
X130872000Y-26354000D02*
X130872000Y-24954000D01*
%TO.C,R23*%
X88238000Y-18187936D02*
X88238000Y-18642064D01*
X86768000Y-18187936D02*
X86768000Y-18642064D01*
%TO.C,C37*%
X156779252Y-41429000D02*
X156256748Y-41429000D01*
X156779252Y-42899000D02*
X156256748Y-42899000D01*
%TO.C,R49*%
X166089064Y-21690000D02*
X165634936Y-21690000D01*
X166089064Y-20220000D02*
X165634936Y-20220000D01*
%TO.C,Q6*%
X48666400Y-51348200D02*
X49316400Y-51348200D01*
X48666400Y-54468200D02*
X48016400Y-54468200D01*
X48666400Y-51348200D02*
X48016400Y-51348200D01*
X48666400Y-54468200D02*
X50341400Y-54468200D01*
%TO.C,C51*%
X147928000Y-16248748D02*
X147928000Y-16771252D01*
X146458000Y-16248748D02*
X146458000Y-16771252D01*
%TO.C,U14*%
X144833000Y-20320000D02*
X144833000Y-16460000D01*
X144833000Y-20320000D02*
X144833000Y-24180000D01*
X134313000Y-20320000D02*
X134313000Y-16460000D01*
X134313000Y-20320000D02*
X134313000Y-24180000D01*
X134313000Y-16460000D02*
X134568000Y-16460000D01*
X134568000Y-24180000D02*
X134568000Y-25995000D01*
X134313000Y-24180000D02*
X134568000Y-24180000D01*
X144833000Y-16460000D02*
X144578000Y-16460000D01*
X144833000Y-24180000D02*
X144578000Y-24180000D01*
%TO.C,R25*%
X27332000Y-19229336D02*
X27332000Y-19683464D01*
X28802000Y-19229336D02*
X28802000Y-19683464D01*
%TO.C,R27*%
X156290936Y-29618000D02*
X156745064Y-29618000D01*
X156290936Y-31088000D02*
X156745064Y-31088000D01*
%TO.C,C35*%
X28836252Y-36323600D02*
X28313748Y-36323600D01*
X28836252Y-37793600D02*
X28313748Y-37793600D01*
%TO.C,JP4*%
X160423400Y-24393400D02*
X160423400Y-22393400D01*
X163223400Y-22393400D02*
X163223400Y-24393400D01*
X160423400Y-22393400D02*
X163223400Y-22393400D01*
X163223400Y-24393400D02*
X160423400Y-24393400D01*
%TO.C,TP3*%
X75234000Y-42578055D02*
X75234000Y-41178055D01*
X75234000Y-41178055D02*
X76634000Y-41178055D01*
X76634000Y-42578055D02*
X75234000Y-42578055D01*
X76634000Y-41178055D02*
X76634000Y-42578055D01*
%TO.C,R24*%
X90778000Y-18187936D02*
X90778000Y-18642064D01*
X89308000Y-18187936D02*
X89308000Y-18642064D01*
%TO.C,SW2*%
X163088600Y-34429900D02*
X162788600Y-34729900D01*
X176860200Y-32143700D02*
X176860200Y-34816900D01*
X163728400Y-32169100D02*
X163728400Y-34522700D01*
X162488600Y-34429900D02*
X163088600Y-34429900D01*
X176834800Y-44894500D02*
X172288600Y-44894500D01*
X172277600Y-32143700D02*
X176860200Y-32143700D01*
X163728400Y-42229900D02*
X163728400Y-44894500D01*
X176860200Y-37193700D02*
X176860200Y-39793700D01*
X176860200Y-42176700D02*
X176834800Y-44894500D01*
X162788600Y-34729900D02*
X162488600Y-34429900D01*
X168267600Y-32169100D02*
X163728400Y-32169100D01*
X168285600Y-44894500D02*
X163728400Y-44894500D01*
%TO.C,M3*%
X128664000Y-28452277D02*
X77744000Y-28452277D01*
X77684000Y-43862277D02*
X128724000Y-43862277D01*
X77744000Y-28452277D02*
X77744000Y-33912277D01*
X128724000Y-25962277D02*
X77684000Y-25962277D01*
X77744000Y-35912277D02*
X77744000Y-41372277D01*
X128724000Y-43862277D02*
X128724000Y-25962277D01*
X77684000Y-25962277D02*
X77684000Y-43862277D01*
X77744000Y-41372277D02*
X128664000Y-41372277D01*
X128664000Y-41372277D02*
X128664000Y-28452277D01*
X77744000Y-35912277D02*
G75*
G03*
X77744000Y-33912277I0J1000000D01*
G01*
%TO.C,D14*%
X171153200Y-13364200D02*
X171153200Y-17424200D01*
X173423200Y-13364200D02*
X171153200Y-13364200D01*
X173423200Y-17424200D02*
X173423200Y-13364200D01*
%TO.C,JP3*%
X160423400Y-26958800D02*
X160423400Y-24958800D01*
X163223400Y-26958800D02*
X160423400Y-26958800D01*
X160423400Y-24958800D02*
X163223400Y-24958800D01*
X163223400Y-24958800D02*
X163223400Y-26958800D01*
%TO.C,JP5*%
X160423400Y-19853400D02*
X163223400Y-19853400D01*
X163223400Y-19853400D02*
X163223400Y-21853400D01*
X163223400Y-21853400D02*
X160423400Y-21853400D01*
X160423400Y-21853400D02*
X160423400Y-19853400D01*
%TO.C,R51*%
X28347936Y-39978000D02*
X28802064Y-39978000D01*
X28347936Y-38508000D02*
X28802064Y-38508000D01*
%TO.C,D16*%
X161425000Y-13364200D02*
X161425000Y-17424200D01*
X163695000Y-17424200D02*
X163695000Y-13364200D01*
X163695000Y-13364200D02*
X161425000Y-13364200D01*
%TO.C,G\u002A\u002A\u002A*%
G36*
X20839485Y-43204447D02*
G01*
X20362937Y-43204447D01*
X20362937Y-42751727D01*
X20839485Y-42751727D01*
X20839485Y-43204447D01*
G37*
G36*
X20839485Y-43919269D02*
G01*
X20362937Y-43919269D01*
X20362937Y-43466548D01*
X20839485Y-43466548D01*
X20839485Y-43919269D01*
G37*
G36*
X18695020Y-46039907D02*
G01*
X18242300Y-46039907D01*
X18242300Y-45587186D01*
X18695020Y-45587186D01*
X18695020Y-46039907D01*
G37*
G36*
X21554307Y-43204447D02*
G01*
X21077759Y-43204447D01*
X21077759Y-42751727D01*
X21554307Y-42751727D01*
X21554307Y-43204447D01*
G37*
G36*
X18695020Y-45325085D02*
G01*
X18242300Y-45325085D01*
X18242300Y-44872364D01*
X18695020Y-44872364D01*
X18695020Y-45325085D01*
G37*
G36*
X20124663Y-45325085D02*
G01*
X19671943Y-45325085D01*
X19671943Y-44872364D01*
X20124663Y-44872364D01*
X20124663Y-45325085D01*
G37*
G36*
X19409842Y-43919269D02*
G01*
X18957121Y-43919269D01*
X18957121Y-43466548D01*
X19409842Y-43466548D01*
X19409842Y-43919269D01*
G37*
G36*
X19409842Y-44634090D02*
G01*
X18957121Y-44634090D01*
X18957121Y-44157543D01*
X19409842Y-44157543D01*
X19409842Y-44634090D01*
G37*
G36*
X20839485Y-44634090D02*
G01*
X20362937Y-44634090D01*
X20362937Y-44157543D01*
X20839485Y-44157543D01*
X20839485Y-44634090D01*
G37*
G36*
X20124663Y-43204447D02*
G01*
X19671943Y-43204447D01*
X19671943Y-42751727D01*
X20124663Y-42751727D01*
X20124663Y-43204447D01*
G37*
G36*
X22245301Y-43204447D02*
G01*
X21792581Y-43204447D01*
X21792581Y-42751727D01*
X22245301Y-42751727D01*
X22245301Y-43204447D01*
G37*
G36*
X20124663Y-43919269D02*
G01*
X19671943Y-43919269D01*
X19671943Y-43466548D01*
X20124663Y-43466548D01*
X20124663Y-43919269D01*
G37*
G36*
X21554307Y-43919269D02*
G01*
X21077759Y-43919269D01*
X21077759Y-43466548D01*
X21554307Y-43466548D01*
X21554307Y-43919269D01*
G37*
G36*
X18695020Y-43204447D02*
G01*
X18242300Y-43204447D01*
X18242300Y-42751727D01*
X18695020Y-42751727D01*
X18695020Y-43204447D01*
G37*
G36*
X20124663Y-44634090D02*
G01*
X19671943Y-44634090D01*
X19671943Y-44157543D01*
X20124663Y-44157543D01*
X20124663Y-44634090D01*
G37*
G36*
X18695020Y-46730901D02*
G01*
X18242300Y-46730901D01*
X18242300Y-46278181D01*
X18695020Y-46278181D01*
X18695020Y-46730901D01*
G37*
G36*
X19409842Y-43204447D02*
G01*
X18957121Y-43204447D01*
X18957121Y-42751727D01*
X19409842Y-42751727D01*
X19409842Y-43204447D01*
G37*
G36*
X18695020Y-43919269D02*
G01*
X18242300Y-43919269D01*
X18242300Y-43466548D01*
X18695020Y-43466548D01*
X18695020Y-43919269D01*
G37*
G36*
X19409842Y-45325085D02*
G01*
X18957121Y-45325085D01*
X18957121Y-44872364D01*
X19409842Y-44872364D01*
X19409842Y-45325085D01*
G37*
G36*
X19409842Y-46039907D02*
G01*
X18957121Y-46039907D01*
X18957121Y-45587186D01*
X19409842Y-45587186D01*
X19409842Y-46039907D01*
G37*
G36*
X18695020Y-44634090D02*
G01*
X18242300Y-44634090D01*
X18242300Y-44157543D01*
X18695020Y-44157543D01*
X18695020Y-44634090D01*
G37*
%TO.C,SW1*%
X20678000Y-22456000D02*
X33628000Y-22456000D01*
X33628000Y-35406000D02*
X20678000Y-35406000D01*
X33628000Y-22456000D02*
X33628000Y-35406000D01*
X20678000Y-35406000D02*
X20678000Y-22456000D01*
D13*
X30453000Y-28931000D02*
G75*
G03*
X30453000Y-28931000I-3300000J0D01*
G01*
D10*
X31628000Y-33756000D02*
X32678000Y-33756000D01*
X32678000Y-33756000D02*
X32676649Y-34355982D01*
X32676649Y-34355982D02*
X28976649Y-34305982D01*
X28976649Y-34305982D02*
X28978000Y-33756000D01*
X28978000Y-33756000D02*
X30128000Y-33756000D01*
X30128000Y-33756000D02*
X30128000Y-32656000D01*
X30128000Y-32656000D02*
X31628000Y-32656000D01*
X31628000Y-32656000D02*
X31628000Y-33756000D01*
G36*
X31628000Y-33756000D02*
G01*
X32678000Y-33756000D01*
X32676649Y-34355982D01*
X28976649Y-34305982D01*
X28978000Y-33756000D01*
X30128000Y-33756000D01*
X30128000Y-32656000D01*
X31628000Y-32656000D01*
X31628000Y-33756000D01*
G37*
X31628000Y-33756000D02*
X32678000Y-33756000D01*
X32676649Y-34355982D01*
X28976649Y-34305982D01*
X28978000Y-33756000D01*
X30128000Y-33756000D01*
X30128000Y-32656000D01*
X31628000Y-32656000D01*
X31628000Y-33756000D01*
%TO.C,R28*%
X156290936Y-36422000D02*
X156745064Y-36422000D01*
X156290936Y-34952000D02*
X156745064Y-34952000D01*
%TO.C,C38*%
X156256748Y-45693000D02*
X156779252Y-45693000D01*
X156256748Y-44223000D02*
X156779252Y-44223000D01*
%TO.C,R29*%
X156290936Y-33755000D02*
X156745064Y-33755000D01*
X156290936Y-32285000D02*
X156745064Y-32285000D01*
%TO.C,R26*%
X51462000Y-53202064D02*
X51462000Y-52747936D01*
X52932000Y-53202064D02*
X52932000Y-52747936D01*
D14*
%TO.C,J11*%
X36259281Y-14264800D02*
X160259281Y-14264800D01*
X160259281Y-14264800D02*
X160259281Y-56264800D01*
X160259281Y-56264800D02*
X36259281Y-56264800D01*
X36259281Y-56264800D02*
X36259281Y-14264800D01*
D15*
X46739281Y-14429800D02*
X152259281Y-14429800D01*
X152259281Y-14429800D02*
X152259281Y-56099800D01*
X152259281Y-56099800D02*
X46739281Y-56099800D01*
X46739281Y-56099800D02*
X46739281Y-14429800D01*
X54049281Y-16224800D02*
X144949281Y-16224800D01*
X144949281Y-16224800D02*
X144949281Y-54294800D01*
X144949281Y-54294800D02*
X54049281Y-54294800D01*
X54049281Y-54294800D02*
X54049281Y-16224800D01*
D10*
%TO.C,D15*%
X169009100Y-13364200D02*
X165839100Y-13364200D01*
X169009100Y-17424200D02*
X169009100Y-13364200D01*
X165839100Y-13364200D02*
X165839100Y-17424200D01*
%TO.C,C24*%
X133069000Y-19296748D02*
X133069000Y-19819252D01*
X131599000Y-19296748D02*
X131599000Y-19819252D01*
%TO.C,R48*%
X170026064Y-20220000D02*
X169571936Y-20220000D01*
X170026064Y-21690000D02*
X169571936Y-21690000D01*
%TO.C,TP4*%
X75232000Y-40548055D02*
X75232000Y-39148055D01*
X75232000Y-39148055D02*
X76632000Y-39148055D01*
X76632000Y-40548055D02*
X75232000Y-40548055D01*
X76632000Y-39148055D02*
X76632000Y-40548055D01*
%TO.C,C36*%
X156779252Y-38175500D02*
X156256748Y-38175500D01*
X156779252Y-39645500D02*
X156256748Y-39645500D01*
%TO.C,R47*%
X171169064Y-23849000D02*
X170714936Y-23849000D01*
X171169064Y-22379000D02*
X170714936Y-22379000D01*
%TO.C,U10*%
X71536953Y-43941000D02*
X73351953Y-43941000D01*
X67676953Y-26066000D02*
X63816953Y-26066000D01*
X63816953Y-44186000D02*
X63816953Y-43941000D01*
X71536953Y-44186000D02*
X71536953Y-43941000D01*
X71536953Y-26066000D02*
X71536953Y-26311000D01*
X67676953Y-26066000D02*
X71536953Y-26066000D01*
X67676953Y-44186000D02*
X71536953Y-44186000D01*
X63816953Y-26066000D02*
X63816953Y-26311000D01*
X67676953Y-44186000D02*
X63816953Y-44186000D01*
%TO.C,R50*%
X114911136Y-52630400D02*
X115365264Y-52630400D01*
X114911136Y-54100400D02*
X115365264Y-54100400D01*
%TD*%
M02*
