%TF.GenerationSoftware,KiCad,Pcbnew,(6.0.0-rc1-393-g0ad0627bb0)*%
%TF.CreationDate,2021-12-16T01:21:56+00:00*%
%TF.ProjectId,solarpump_disp,736f6c61-7270-4756-9d70-5f646973702e,1.0*%
%TF.SameCoordinates,Original*%
%TF.FileFunction,Soldermask,Top*%
%TF.FilePolarity,Negative*%
%FSLAX46Y46*%
G04 Gerber Fmt 4.6, Leading zero omitted, Abs format (unit mm)*
G04 Created by KiCad (PCBNEW (6.0.0-rc1-393-g0ad0627bb0)) date 2021-12-16 01:21:56*
%MOMM*%
%LPD*%
G01*
G04 APERTURE LIST*
G04 Aperture macros list*
%AMRoundRect*
0 Rectangle with rounded corners*
0 $1 Rounding radius*
0 $2 $3 $4 $5 $6 $7 $8 $9 X,Y pos of 4 corners*
0 Add a 4 corners polygon primitive as box body*
4,1,4,$2,$3,$4,$5,$6,$7,$8,$9,$2,$3,0*
0 Add four circle primitives for the rounded corners*
1,1,$1+$1,$2,$3*
1,1,$1+$1,$4,$5*
1,1,$1+$1,$6,$7*
1,1,$1+$1,$8,$9*
0 Add four rect primitives between the rounded corners*
20,1,$1+$1,$2,$3,$4,$5,0*
20,1,$1+$1,$4,$5,$6,$7,0*
20,1,$1+$1,$6,$7,$8,$9,0*
20,1,$1+$1,$8,$9,$2,$3,0*%
G04 Aperture macros list end*
%ADD10R,1.000000X1.000000*%
%ADD11RoundRect,0.250000X-0.450000X0.350000X-0.450000X-0.350000X0.450000X-0.350000X0.450000X0.350000X0*%
%ADD12RoundRect,0.250000X0.337500X0.475000X-0.337500X0.475000X-0.337500X-0.475000X0.337500X-0.475000X0*%
%ADD13RoundRect,0.250000X0.350000X0.450000X-0.350000X0.450000X-0.350000X-0.450000X0.350000X-0.450000X0*%
%ADD14RoundRect,0.150000X0.587500X0.150000X-0.587500X0.150000X-0.587500X-0.150000X0.587500X-0.150000X0*%
%ADD15RoundRect,0.250000X-0.475000X0.337500X-0.475000X-0.337500X0.475000X-0.337500X0.475000X0.337500X0*%
%ADD16RoundRect,0.150000X0.150000X-0.875000X0.150000X0.875000X-0.150000X0.875000X-0.150000X-0.875000X0*%
%ADD17C,4.300000*%
%ADD18RoundRect,0.250000X-0.350000X-0.450000X0.350000X-0.450000X0.350000X0.450000X-0.350000X0.450000X0*%
%ADD19R,1.000000X1.500000*%
%ADD20R,1.600000X1.600000*%
%ADD21O,1.600000X1.600000*%
%ADD22RoundRect,0.250001X-0.624999X0.462499X-0.624999X-0.462499X0.624999X-0.462499X0.624999X0.462499X0*%
%ADD23RoundRect,0.250001X-0.799999X-0.799999X0.799999X-0.799999X0.799999X0.799999X-0.799999X0.799999X0*%
%ADD24C,2.100000*%
%ADD25C,1.400000*%
%ADD26C,2.500000*%
%ADD27RoundRect,0.250001X0.799999X0.799999X-0.799999X0.799999X-0.799999X-0.799999X0.799999X-0.799999X0*%
%ADD28RoundRect,0.250000X-0.337500X-0.475000X0.337500X-0.475000X0.337500X0.475000X-0.337500X0.475000X0*%
%ADD29RoundRect,0.250000X0.450000X-0.350000X0.450000X0.350000X-0.450000X0.350000X-0.450000X-0.350000X0*%
%ADD30C,5.800000*%
%ADD31C,6.000000*%
%ADD32C,1.600000*%
%ADD33RoundRect,0.250001X-1.074999X0.462499X-1.074999X-0.462499X1.074999X-0.462499X1.074999X0.462499X0*%
%ADD34RoundRect,0.150000X0.875000X0.150000X-0.875000X0.150000X-0.875000X-0.150000X0.875000X-0.150000X0*%
%ADD35C,2.540000*%
%ADD36RoundRect,0.250000X-0.350000X-0.625000X0.350000X-0.625000X0.350000X0.625000X-0.350000X0.625000X0*%
%ADD37O,1.200000X1.750000*%
%ADD38R,1.350000X1.350000*%
%ADD39O,1.350000X1.350000*%
%ADD40C,1.750000*%
%ADD41C,1.524000*%
G04 APERTURE END LIST*
D10*
%TO.C,TP5*%
X131572000Y-25654000D03*
%TD*%
D11*
%TO.C,R23*%
X87503000Y-17415000D03*
X87503000Y-19415000D03*
%TD*%
D12*
%TO.C,C37*%
X157555500Y-42164000D03*
X155480500Y-42164000D03*
%TD*%
D13*
%TO.C,R49*%
X166862000Y-20955000D03*
X164862000Y-20955000D03*
%TD*%
D14*
%TO.C,Q6*%
X49603900Y-53858200D03*
X49603900Y-51958200D03*
X47728900Y-52908200D03*
%TD*%
D15*
%TO.C,C51*%
X147193000Y-15472500D03*
X147193000Y-17547500D03*
%TD*%
D16*
%TO.C,U14*%
X135128000Y-24970000D03*
X136398000Y-24970000D03*
X137668000Y-24970000D03*
X138938000Y-24970000D03*
X140208000Y-24970000D03*
X141478000Y-24970000D03*
X142748000Y-24970000D03*
X144018000Y-24970000D03*
X144018000Y-15670000D03*
X142748000Y-15670000D03*
X141478000Y-15670000D03*
X140208000Y-15670000D03*
X138938000Y-15670000D03*
X137668000Y-15670000D03*
X136398000Y-15670000D03*
X135128000Y-15670000D03*
%TD*%
D11*
%TO.C,R25*%
X28067000Y-18456400D03*
X28067000Y-20456400D03*
%TD*%
D17*
%TO.C,H7*%
X178054000Y-52578000D03*
%TD*%
D18*
%TO.C,R27*%
X155518000Y-30353000D03*
X157518000Y-30353000D03*
%TD*%
D12*
%TO.C,C35*%
X29612500Y-37058600D03*
X27537500Y-37058600D03*
%TD*%
D19*
%TO.C,JP4*%
X162473400Y-23393400D03*
X161173400Y-23393400D03*
%TD*%
D10*
%TO.C,TP3*%
X75934000Y-41878055D03*
%TD*%
D17*
%TO.C,H6*%
X178054000Y-17272000D03*
%TD*%
D11*
%TO.C,R24*%
X90043000Y-17415000D03*
X90043000Y-19415000D03*
%TD*%
D20*
%TO.C,M3*%
X79074000Y-42532277D03*
D21*
X81614000Y-42532277D03*
X84154000Y-42532277D03*
X86694000Y-42532277D03*
X89234000Y-42532277D03*
X91774000Y-42532277D03*
X94314000Y-42532277D03*
X96854000Y-42532277D03*
X99394000Y-42532277D03*
X101934000Y-42532277D03*
X104474000Y-42532277D03*
X107014000Y-42532277D03*
X109554000Y-42532277D03*
X112094000Y-42532277D03*
X114634000Y-42532277D03*
X117174000Y-42532277D03*
X119714000Y-42532277D03*
X122254000Y-42532277D03*
X124794000Y-42532277D03*
X127334000Y-42532277D03*
X127334000Y-27292277D03*
X124794000Y-27292277D03*
X122254000Y-27292277D03*
X119714000Y-27292277D03*
X117174000Y-27292277D03*
X114634000Y-27292277D03*
X112094000Y-27292277D03*
X109554000Y-27292277D03*
X107014000Y-27292277D03*
X104474000Y-27292277D03*
X101934000Y-27292277D03*
X99394000Y-27292277D03*
X96854000Y-27292277D03*
X94314000Y-27292277D03*
X91774000Y-27292277D03*
X89234000Y-27292277D03*
X86694000Y-27292277D03*
X84154000Y-27292277D03*
X81614000Y-27292277D03*
X79074000Y-27292277D03*
%TD*%
D22*
%TO.C,D14*%
X172288200Y-14336700D03*
X172288200Y-17311700D03*
%TD*%
D19*
%TO.C,JP3*%
X162473400Y-25958800D03*
X161173400Y-25958800D03*
%TD*%
%TO.C,JP5*%
X162473400Y-20853400D03*
X161173400Y-20853400D03*
%TD*%
D18*
%TO.C,R51*%
X27575000Y-39243000D03*
X29575000Y-39243000D03*
%TD*%
D22*
%TO.C,D16*%
X162560000Y-14336700D03*
X162560000Y-17311700D03*
%TD*%
D23*
%TO.C,SW4*%
X117257800Y-47091600D03*
D24*
X121857800Y-47091600D03*
%TD*%
D23*
%TO.C,SW5*%
X126466600Y-47091600D03*
D24*
X131066600Y-47091600D03*
%TD*%
D25*
%TO.C,SW1*%
X30963000Y-25121000D03*
X23343000Y-32741000D03*
D26*
X23343000Y-25121000D03*
X27153000Y-28931000D03*
%TD*%
D18*
%TO.C,R28*%
X155518000Y-35687000D03*
X157518000Y-35687000D03*
%TD*%
D17*
%TO.C,H8*%
X22256235Y-52578000D03*
%TD*%
D27*
%TO.C,SW3*%
X112790000Y-47091600D03*
D24*
X108190000Y-47091600D03*
%TD*%
D28*
%TO.C,C38*%
X155480500Y-44958000D03*
X157555500Y-44958000D03*
%TD*%
D18*
%TO.C,R29*%
X155518000Y-33020000D03*
X157518000Y-33020000D03*
%TD*%
D29*
%TO.C,R26*%
X52197000Y-53975000D03*
X52197000Y-51975000D03*
%TD*%
D30*
%TO.C,J11*%
X157259281Y-53264800D03*
D31*
X157259281Y-17264800D03*
D30*
X39259281Y-53264800D03*
X39259281Y-17264800D03*
D20*
X38259281Y-46659800D03*
D32*
X38259281Y-44119800D03*
X38259281Y-41579800D03*
X38259281Y-39039800D03*
X38259281Y-36499800D03*
X38259281Y-33959800D03*
X38259281Y-31419800D03*
X38259281Y-28879800D03*
X38259281Y-26339800D03*
X38259281Y-23799800D03*
%TD*%
D33*
%TO.C,D15*%
X167424100Y-14336700D03*
X167424100Y-17311700D03*
%TD*%
D15*
%TO.C,C24*%
X132334000Y-18520500D03*
X132334000Y-20595500D03*
%TD*%
D13*
%TO.C,R48*%
X170799000Y-20955000D03*
X168799000Y-20955000D03*
%TD*%
D10*
%TO.C,TP4*%
X75932000Y-39848055D03*
%TD*%
D12*
%TO.C,C36*%
X157555500Y-38910500D03*
X155480500Y-38910500D03*
%TD*%
D13*
%TO.C,R47*%
X171942000Y-23114000D03*
X169942000Y-23114000D03*
%TD*%
D34*
%TO.C,U10*%
X72326953Y-43381000D03*
X72326953Y-42111000D03*
X72326953Y-40841000D03*
X72326953Y-39571000D03*
X72326953Y-38301000D03*
X72326953Y-37031000D03*
X72326953Y-35761000D03*
X72326953Y-34491000D03*
X72326953Y-33221000D03*
X72326953Y-31951000D03*
X72326953Y-30681000D03*
X72326953Y-29411000D03*
X72326953Y-28141000D03*
X72326953Y-26871000D03*
X63026953Y-26871000D03*
X63026953Y-28141000D03*
X63026953Y-29411000D03*
X63026953Y-30681000D03*
X63026953Y-31951000D03*
X63026953Y-33221000D03*
X63026953Y-34491000D03*
X63026953Y-35761000D03*
X63026953Y-37031000D03*
X63026953Y-38301000D03*
X63026953Y-39571000D03*
X63026953Y-40841000D03*
X63026953Y-42111000D03*
X63026953Y-43381000D03*
%TD*%
D17*
%TO.C,H5*%
X22256235Y-17272000D03*
%TD*%
D18*
%TO.C,R50*%
X114138200Y-53365400D03*
X116138200Y-53365400D03*
%TD*%
D26*
%TO.C,BT2*%
X147193000Y-21844000D03*
D35*
X147193000Y-31374000D03*
%TD*%
D36*
%TO.C,J12*%
X96977200Y-20777200D03*
D37*
X98977200Y-20777200D03*
X100977200Y-20777200D03*
X102977200Y-20777200D03*
%TD*%
D38*
%TO.C,J6*%
X81835000Y-20685000D03*
D39*
X81835000Y-18685000D03*
X79835000Y-20685000D03*
X79835000Y-18685000D03*
X77835000Y-20685000D03*
X77835000Y-18685000D03*
X75835000Y-20685000D03*
X75835000Y-18685000D03*
X73835000Y-20685000D03*
X73835000Y-18685000D03*
X71835000Y-20685000D03*
X71835000Y-18685000D03*
%TD*%
D40*
%TO.C,BZ1*%
X49784000Y-46393000D03*
X49784000Y-19393000D03*
D41*
X57862600Y-49861800D03*
X57862600Y-54961800D03*
%TD*%
M02*
